<?xml version="1.0" encoding="UTF-8"?>
<!DOCTYPE svg PUBLIC "-//W3C//DTD SVG 1.1//EN" "http://www.w3.org/Graphics/SVG/1.1/DTD/svg11.dtd">
<svg xmlns="http://www.w3.org/2000/svg" version="1.1" width="512px" height="512px" style="shape-rendering:geometricPrecision; text-rendering:geometricPrecision; image-rendering:optimizeQuality; fill-rule:evenodd; clip-rule:evenodd" xmlns:xlink="http://www.w3.org/1999/xlink">
<g fill="#515151" stroke="none">
<path d="M 202.5,41.5 C 279.943,41.1797 335.776,75.5131 370,144.5C 385.304,183.022 387.637,222.355 377,262.5C 373.043,275.715 367.543,288.215 360.5,300C 393.667,333.167 426.833,366.333 460,399.5C 475.222,424.062 471.388,445.229 448.5,463C 431.511,472.267 415.177,471.267 399.5,460C 366.333,426.833 333.167,393.667 300,360.5C 258.258,383.989 214.092,389.822 167.5,378C 115.09,362.26 77.5895,329.426 55,279.5C 30.1722,212.661 40.5056,151.994 86,97.5C 117.656,63.9222 156.489,45.2555 202.5,41.5 Z M 204.5,106.5 C 247.169,105.416 280.336,122.416 304,157.5C 319.425,185.437 322.758,214.771 314,245.5C 296.43,292.209 262.597,316.875 212.5,319.5C 164.54,316.956 131.374,293.623 113,249.5C 98.9114,203.349 109.411,163.849 144.5,131C 162.163,116.998 182.163,108.832 204.5,106.5 Z"/>
</g>
</svg>
