<?xml version="1.0" encoding="UTF-8"?>
<!DOCTYPE svg PUBLIC "-//W3C//DTD SVG 1.1//EN" "http://www.w3.org/Graphics/SVG/1.1/DTD/svg11.dtd">
<svg xmlns="http://www.w3.org/2000/svg" version="1.1" width="512px" height="512px" style="shape-rendering:geometricPrecision; text-rendering:geometricPrecision; image-rendering:optimizeQuality; fill-rule:evenodd; clip-rule:evenodd" xmlns:xlink="http://www.w3.org/1999/xlink">
<g fill="#818181" stroke="none">
<path d="M 100.5,-0.5 C 101.5,-0.5 102.5,-0.5 103.5,-0.5C 153.812,50.479 204.479,101.146 255.5,151.5C 306.521,101.146 357.188,50.479 407.5,-0.5C 408.5,-0.5 409.5,-0.5 410.5,-0.5C 443.833,33.5 477.5,67.1667 511.5,100.5C 511.5,101.5 511.5,102.5 511.5,103.5C 460.521,153.812 409.854,204.479 359.5,255.5C 409.854,306.521 460.521,357.188 511.5,407.5C 511.5,408.5 511.5,409.5 511.5,410.5C 477.5,443.833 443.833,477.5 410.5,511.5C 409.5,511.5 408.5,511.5 407.5,511.5C 357.188,460.521 306.521,409.854 255.5,359.5C 204.479,409.854 153.812,460.521 103.5,511.5C 102.5,511.5 101.5,511.5 100.5,511.5C 67.1667,477.5 33.5,443.833 -0.5,410.5C -0.5,409.5 -0.5,408.5 -0.5,407.5C 50.479,357.188 101.146,306.521 151.5,255.5C 101.146,204.479 50.479,153.812 -0.5,103.5C -0.5,102.5 -0.5,101.5 -0.5,100.5C 33.5,67.1667 67.1667,33.5 100.5,-0.5 Z"/>
</g>
</svg>
