<?xml version="1.0" encoding="UTF-8"?>
<!DOCTYPE svg PUBLIC "-//W3C//DTD SVG 1.1//EN" "http://www.w3.org/Graphics/SVG/1.1/DTD/svg11.dtd">
<svg xmlns="http://www.w3.org/2000/svg" version="1.1" width="512px" height="512px" style="shape-rendering:geometricPrecision; text-rendering:geometricPrecision; image-rendering:optimizeQuality; fill-rule:evenodd; clip-rule:evenodd" xmlns:xlink="http://www.w3.org/1999/xlink">
<g fill="#515151" stroke="none">
<path d="M 442.5,14.5 C 466.073,15.2562 480.907,26.9229 487,49.5C 489.446,72.7852 479.946,88.9519 458.5,98C 446.862,101.483 435.696,100.316 425,94.5C 404.131,113.705 382.964,132.538 361.5,151C 360.101,152.062 359.101,153.395 358.5,155C 365.574,184.523 354.574,203.523 325.5,212C 314.771,213.588 304.771,211.588 295.5,206C 290.301,201.798 285.468,197.298 281,192.5C 263.225,196.588 245.392,200.422 227.5,204C 222.627,226.709 208.627,238.875 185.5,240.5C 177.064,240.916 169.397,238.749 162.5,234C 161.5,233.333 160.5,233.333 159.5,234C 141.441,246.356 123.775,259.189 106.5,272.5C 110.665,298.329 100.332,315.496 75.5,324C 53.2132,327.44 36.7132,319.273 26,299.5C 18.0339,274.382 25.5339,255.549 48.5,243C 63.0717,237.749 76.905,239.249 90,247.5C 107.667,234.833 125.333,222.167 143,209.5C 139.295,186.746 147.462,169.912 167.5,159C 189.734,151.414 207.901,156.914 222,175.5C 239.831,171.667 257.664,167.834 275.5,164C 282.585,137.957 299.585,125.957 326.5,128C 331.014,129.175 335.348,130.508 339.5,132C 361.036,112.129 382.869,92.6292 405,73.5C 398.602,51.9255 404.435,34.4255 422.5,21C 428.875,17.4847 435.542,15.3181 442.5,14.5 Z"/>
<path d="M 405.5,128.5 C 432.502,128.333 459.502,128.5 486.5,129C 491.062,130.627 493.895,133.794 495,138.5C 495.667,254.167 495.667,369.833 495,485.5C 493.833,490.667 490.667,493.833 485.5,495C 459.167,495.667 432.833,495.667 406.5,495C 401.333,493.833 398.167,490.667 397,485.5C 396.333,369.833 396.333,254.167 397,138.5C 398.261,133.745 401.095,130.412 405.5,128.5 Z"/>
<path d="M 280.5,240.5 C 305.836,240.333 331.169,240.5 356.5,241C 363,242.167 366.833,246 368,252.5C 368.667,329.5 368.667,406.5 368,483.5C 367.043,489.127 363.876,492.96 358.5,495C 331.833,495.667 305.167,495.667 278.5,495C 274.725,493.558 271.892,491.058 270,487.5C 268.345,409.544 268.012,331.544 269,253.5C 270.239,246.767 274.072,242.433 280.5,240.5 Z"/>
<path d="M 154.5,268.5 C 179.502,268.333 204.502,268.5 229.5,269C 235.127,269.957 238.96,273.124 241,278.5C 241.667,347.5 241.667,416.5 241,485.5C 239.911,489.186 237.745,492.019 234.5,494C 207.229,495.641 179.895,495.974 152.5,495C 148.814,493.911 145.981,491.745 144,488.5C 142.343,418.557 142.01,348.557 143,278.5C 145.21,273.112 149.043,269.779 154.5,268.5 Z"/>
<path d="M 24.5,353.5 C 51.1687,353.333 77.8354,353.5 104.5,354C 109.876,356.04 113.043,359.873 114,365.5C 114.667,404.833 114.667,444.167 114,483.5C 113.043,489.127 109.876,492.96 104.5,495C 77.8333,495.667 51.1667,495.667 24.5,495C 19.1239,492.96 15.9572,489.127 15,483.5C 14.3333,444.167 14.3333,404.833 15,365.5C 16.1552,359.851 19.3218,355.851 24.5,353.5 Z"/>
</g>
</svg>
