<?xml version="1.0" encoding="UTF-8"?>
<!DOCTYPE svg PUBLIC "-//W3C//DTD SVG 1.1//EN" "http://www.w3.org/Graphics/SVG/1.1/DTD/svg11.dtd">
<svg xmlns="http://www.w3.org/2000/svg" version="1.1" width="512px" height="512px" style="shape-rendering:geometricPrecision; text-rendering:geometricPrecision; image-rendering:optimizeQuality; fill-rule:evenodd; clip-rule:evenodd" xmlns:xlink="http://www.w3.org/1999/xlink">
<g fill="#818181" stroke="none">
<path d="M 419.5,41.5 C 450.393,40.5989 472.559,53.9322 486,81.5C 496.531,114.237 488.031,140.737 460.5,161C 434.078,175.031 408.745,173.364 384.5,156C 364.772,137.478 357.938,114.978 364,88.5C 373.205,61.7912 391.705,46.1246 419.5,41.5 Z"/>
<path d="M 36.5,84.5 C 125.501,84.3333 214.501,84.5 303.5,85C 316.797,89.4148 321.964,98.5815 319,112.5C 316.833,120 312,124.833 304.5,127C 214.833,127.667 125.167,127.667 35.5,127C 23.7941,122.098 18.9607,113.265 21,100.5C 23.685,92.6498 28.8517,87.3165 36.5,84.5 Z"/>
<path d="M 158.5,191.5 C 191.47,188.227 215.303,201.227 230,230.5C 240.717,263.005 232.551,289.505 205.5,310C 173.537,326.552 145.037,322.052 120,296.5C 115.667,290.827 112.167,284.66 109.5,278C 85.8333,277.667 62.1667,277.333 38.5,277C 21.9503,271.731 16.7836,260.898 23,244.5C 26.5264,238.648 31.693,235.148 38.5,234C 62.1667,233.667 85.8333,233.333 109.5,233C 118.792,210.709 135.125,196.876 158.5,191.5 Z"/>
<path d="M 294.5,233.5 C 353.834,233.333 413.168,233.5 472.5,234C 489.05,239.269 494.216,250.102 488,266.5C 484.474,272.352 479.307,275.852 472.5,277C 413.167,277.667 353.833,277.667 294.5,277C 280.578,273.063 274.745,263.896 277,249.5C 279.861,240.802 285.694,235.468 294.5,233.5 Z"/>
<path d="M 331.5,340.5 C 364.681,338.39 388.014,352.39 401.5,382.5C 427.222,383.027 452.889,383.86 478.5,385C 489.291,391.697 492.791,401.197 489,413.5C 486.014,419.82 481.181,423.987 474.5,426C 450.167,426.333 425.833,426.667 401.5,427C 387.047,458.897 362.38,472.564 327.5,468C 300.836,461.336 284.169,444.669 277.5,418C 272.752,386.5 284.085,362.833 311.5,347C 318.119,344.293 324.786,342.126 331.5,340.5 Z"/>
<path d="M 35.5,383.5 C 96.8342,383.333 158.168,383.5 219.5,384C 231.206,388.902 236.039,397.735 234,410.5C 231.5,418.333 226.333,423.5 218.5,426C 157.833,426.667 97.1667,426.667 36.5,426C 22.7306,420.627 17.8973,410.794 22,396.5C 24.7302,390.238 29.2302,385.904 35.5,383.5 Z"/>
</g>
</svg>