<?xml version="1.0" encoding="UTF-8"?>
<!DOCTYPE svg PUBLIC "-//W3C//DTD SVG 1.1//EN" "http://www.w3.org/Graphics/SVG/1.1/DTD/svg11.dtd">
<svg xmlns="http://www.w3.org/2000/svg" version="1.1" width="545px" height="540px" style="shape-rendering:geometricPrecision; text-rendering:geometricPrecision; image-rendering:optimizeQuality; fill-rule:evenodd; clip-rule:evenodd" xmlns:xlink="http://www.w3.org/1999/xlink">
<g fill="#818181" stroke="none">
<path d="M 9.5,3.5 C 13.7932,5.74377 18.4599,7.0771 23.5,7.5C 60.2875,17.6323 97.2875,27.4657 134.5,37C 138.285,51.6503 142.285,66.1503 146.5,80.5C 147.768,82.9052 148.435,85.5718 148.5,88.5C 153.59,113.114 159.257,137.614 165.5,162C 165.355,162.772 165.022,163.439 164.5,164C 132.186,156.672 99.8525,149.172 67.5,141.5C 65.901,141.768 64.5676,141.434 63.5,140.5C 55.5782,138.224 47.7448,135.558 40,132.5C 32.4305,101.548 24.2638,70.8809 15.5,40.5C 14.2318,38.0948 13.5651,35.4282 13.5,32.5C 13.7148,30.8212 13.0481,29.8212 11.5,29.5C 11.5,29.1667 11.5,28.8333 11.5,28.5C 12.1239,28.0831 12.4573,27.4164 12.5,26.5C 10.7866,19.6235 8.78657,12.9568 6.5,6.5C 6.5,5.5 6.5,4.5 6.5,3.5C 7.5,3.5 8.5,3.5 9.5,3.5 Z"/>
<path d="M 529.5,102.5 C 531.842,112.859 534.009,123.192 536,133.5C 527.785,136.116 519.452,137.116 511,136.5C 505.924,123.33 499.091,111.33 490.5,100.5C 477.807,81.6398 461.474,66.8065 441.5,56C 436.036,52.9323 430.369,50.4323 424.5,48.5C 422.727,47.1077 420.727,45.941 418.5,45C 409.655,41.8712 400.655,39.2046 391.5,37C 390.167,36.3333 390.167,35.6667 391.5,35C 424.075,26.9411 456.408,18.4411 488.5,9.5C 489.568,8.56552 490.901,8.23219 492.5,8.5C 495.443,8.35348 498.276,7.68681 501,6.5C 502.987,7.15363 504.32,8.48697 505,10.5C 512.571,41.4573 520.737,72.124 529.5,102.5 Z"/>
<path d="M 262.5,10.5 C 263.568,9.56552 264.901,9.23219 266.5,9.5C 296.067,17.8098 325.733,25.9765 355.5,34C 327.451,35.9564 301.118,44.123 276.5,58.5C 275.914,58.2907 275.414,57.9574 275,57.5C 273.452,50.6279 271.618,43.9613 269.5,37.5C 268.232,35.0948 267.565,32.4282 267.5,29.5C 267.693,26.1889 266.693,23.5223 264.5,21.5C 264.5,21.1667 264.5,20.8333 264.5,20.5C 265.124,20.0831 265.457,19.4164 265.5,18.5C 265.095,15.4952 264.095,12.8285 262.5,10.5 Z"/>
<path d="M 174.5,157.5 C 174.706,154.505 174.04,151.838 172.5,149.5C 172.657,148.127 172.49,146.793 172,145.5C 171.617,146.056 171.117,146.389 170.5,146.5C 170.5,145.833 170.5,145.167 170.5,144.5C 171.885,143.053 171.552,142.053 169.5,141.5C 169.5,141.167 169.5,140.833 169.5,140.5C 170.124,140.083 170.457,139.416 170.5,138.5C 162.761,104.879 154.428,71.5454 145.5,38.5C 145.328,37.5084 145.662,36.8417 146.5,36.5C 146.735,37.0967 147.235,37.4301 148,37.5C 182.494,28.4184 216.994,19.4184 251.5,10.5C 252.971,11.3805 253.804,12.7139 254,14.5C 258.319,31.7659 261.986,49.0992 265,66.5C 235.372,89.0695 215.706,118.403 206,154.5C 205.167,155.333 204.333,156.167 203.5,157C 195.529,159.268 187.529,161.435 179.5,163.5C 178.558,163.392 177.725,163.059 177,162.5C 176.243,160.685 175.41,159.019 174.5,157.5 Z"/>
<path d="M 325.5,141.5 C 314.4,138.598 303.234,135.598 292,132.5C 289.421,121.017 286.921,109.517 284.5,98C 284.643,95.849 285.643,94.1824 287.5,93C 300.821,83.9534 315.155,77.1201 330.5,72.5C 333.219,71.087 336.219,70.4203 339.5,70.5C 351.511,68.7663 363.511,68.5996 375.5,70C 376.333,70.8333 377.167,71.6667 378,72.5C 383.406,99.6031 389.239,126.603 395.5,153.5C 394.829,154.946 393.662,155.612 392,155.5C 369.934,150.275 347.768,145.608 325.5,141.5 Z"/>
<path d="M 392.5,72.5 C 429.72,84.2176 457.387,107.384 475.5,142C 473.974,143.887 471.974,144.887 469.5,145C 448.801,148.229 428.134,151.229 407.5,154C 407,153.5 406.5,153 406,152.5C 403.429,138.89 400.263,125.557 396.5,112.5C 395.343,109.727 394.676,106.727 394.5,103.5C 394.843,101.517 394.176,100.183 392.5,99.5C 392.5,99.1667 392.5,98.8333 392.5,98.5C 393.124,98.0831 393.457,97.4164 393.5,96.5C 393.253,95.2867 392.586,94.62 391.5,94.5C 391.5,94.1667 391.5,93.8333 391.5,93.5C 392.124,93.0831 392.457,92.4164 392.5,91.5C 391.394,85.9095 390.06,80.4095 388.5,75C 389.471,73.5187 390.804,72.6854 392.5,72.5 Z"/>
<path d="M 266.5,140.5 C 260.817,141.67 255.151,143.004 249.5,144.5C 248.263,144.444 247.263,143.944 246.5,143C 253.401,128.941 262.401,116.441 273.5,105.5C 274.799,106.09 275.632,107.09 276,108.5C 278.045,117.067 280.212,125.567 282.5,134C 281.833,134.667 281.167,135.333 280.5,136C 275.62,137.212 270.953,138.712 266.5,140.5 Z"/>
<path d="M 387.5,163.5 C 387.833,163.5 388.167,163.5 388.5,163.5C 389.183,165.176 390.517,165.843 392.5,165.5C 395.247,165.923 396.58,167.59 396.5,170.5C 390.857,204.534 384.524,238.367 377.5,272C 375.512,272.18 373.512,272.014 371.5,271.5C 365.188,270.371 358.855,269.371 352.5,268.5C 350.585,268.784 348.919,268.451 347.5,267.5C 322.793,261.991 297.96,256.657 273,251.5C 272.762,247.152 273.095,242.819 274,238.5C 279.923,208.217 285.59,177.883 291,147.5C 291.408,145.59 292.575,144.59 294.5,144.5C 325.527,152.038 356.527,158.371 387.5,163.5 Z"/>
<path d="M 126.5,165.5 C 129.428,165.565 132.095,166.232 134.5,167.5C 144.293,170.619 154.293,173.452 164.5,176C 165.081,176.893 165.415,177.893 165.5,179C 159.457,203.766 153.79,228.599 148.5,253.5C 147.815,258.239 146.815,262.905 145.5,267.5C 144.883,267.611 144.383,267.944 144,268.5C 143,272.5 142,276.5 141,280.5C 140.311,281.357 139.478,282.023 138.5,282.5C 119.235,277.517 99.9017,272.85 80.5,268.5C 77.2727,268.324 74.2727,267.657 71.5,266.5C 52.1388,260.743 32.4721,255.743 12.5,251.5C 11.8333,251.5 11.5,251.167 11.5,250.5C 13.256,249.448 13.9227,247.781 13.5,245.5C 13.5651,242.572 14.2318,239.905 15.5,237.5C 24.0467,207.155 32.38,176.655 40.5,146C 42.1667,145.333 43.8333,145.333 45.5,146C 72.4055,152.977 99.4055,159.477 126.5,165.5 Z"/>
<path d="M 534.5,144.5 C 535.791,144.263 536.791,144.596 537.5,145.5C 532.584,160.492 528.584,175.826 525.5,191.5C 524.685,192.429 523.852,193.429 523,194.5C 522.667,194.167 522.333,193.833 522,193.5C 521.549,186.758 520.382,180.425 518.5,174.5C 518.5,174.167 518.5,173.833 518.5,173.5C 519.152,172.551 519.486,171.385 519.5,170C 518.188,163.119 517.022,156.286 516,149.5C 516.5,149 517,148.5 517.5,148C 523.462,147.642 529.129,146.475 534.5,144.5 Z"/>
<path d="M 273.5,189.5 C 268.655,209.557 264.488,229.89 261,250.5C 258.029,251.495 255.029,252.495 252,253.5C 251.228,253.355 250.561,253.022 250,252.5C 245.454,243.337 241.62,234.004 238.5,224.5C 237.087,221.781 236.42,218.781 236.5,215.5C 236.035,204.002 235.369,192.669 234.5,181.5C 234.5,181.167 234.5,180.833 234.5,180.5C 236.308,179.082 236.975,177.082 236.5,174.5C 236.42,171.219 237.087,168.219 238.5,165.5C 239.225,162.231 240.892,159.398 243.5,157C 255.438,153.349 267.438,150.349 279.5,148C 279.957,148.414 280.291,148.914 280.5,149.5C 277.519,162.722 275.185,176.056 273.5,189.5 Z"/>
<path d="M 415.5,266.5 C 415.167,266.5 414.833,266.5 414.5,266.5C 406.527,267.293 398.861,268.959 391.5,271.5C 390.833,271.167 390.167,270.833 389.5,270.5C 390.336,264.317 391.336,258.151 392.5,252C 392.472,250.93 392.139,250.097 391.5,249.5C 391.5,249.167 391.5,248.833 391.5,248.5C 392.649,248.209 393.316,247.376 393.5,246C 393.472,244.93 393.139,244.097 392.5,243.5C 392.5,243.167 392.5,242.833 392.5,242.5C 394.176,241.817 394.843,240.483 394.5,238.5C 394.205,236.265 394.539,234.265 395.5,232.5C 400.717,210.184 404.717,187.851 407.5,165.5C 407.328,164.508 407.662,163.842 408.5,163.5C 431.74,161.174 455.073,157.841 478.5,153.5C 479.799,154.09 480.632,155.09 481,156.5C 490.469,189.263 487.802,220.93 473,251.5C 471.681,253.487 469.848,254.654 467.5,255C 452.164,258 436.831,261 421.5,264C 419.277,264.566 417.277,265.4 415.5,266.5 Z"/>
<path d="M 201.5,168.5 C 202.833,168.5 203.5,169.167 203.5,170.5C 198.004,201.896 202.004,232.23 215.5,261.5C 214.91,262.799 213.91,263.632 212.5,264C 208.891,264.701 205.558,265.868 202.5,267.5C 201.432,268.434 200.099,268.768 198.5,268.5C 183.992,272.057 169.492,275.723 155,279.5C 153.941,279.37 153.108,278.87 152.5,278C 160.543,243.493 169.21,209.16 178.5,175C 186.334,172.962 194,170.796 201.5,168.5 Z"/>
<path d="M 259.5,261.5 C 260.167,261.5 260.833,261.5 261.5,261.5C 262.633,264.557 263.633,267.557 264.5,270.5C 264.678,271.695 265.011,272.862 265.5,274C 264.824,275.683 263.824,275.85 262.5,274.5C 261.736,271.982 260.736,269.649 259.5,267.5C 259.167,267.5 258.833,267.5 258.5,267.5C 257.135,265.249 257.469,263.249 259.5,261.5 Z"/>
<path d="M 525.5,321.5 C 525.294,324.495 525.96,327.162 527.5,329.5C 527.41,332.152 528.076,334.485 529.5,336.5C 531.253,346.852 533.92,356.852 537.5,366.5C 537.5,367.167 537.167,367.5 536.5,367.5C 497.649,374.336 458.816,381.336 420,388.5C 418.289,388.561 416.956,387.894 416,386.5C 412.833,374.5 409.667,362.5 406.5,350.5C 406.608,349.558 406.941,348.725 407.5,348C 453.183,333.253 486.683,304.42 508,261.5C 508.915,262.328 509.581,263.328 510,264.5C 514.726,283.749 519.893,302.749 525.5,321.5 Z"/>
<path d="M 25.5,264.5 C 59.5171,273.91 93.8504,282.576 128.5,290.5C 129.416,290.457 130.083,290.124 130.5,289.5C 130.833,289.5 131.167,289.5 131.5,289.5C 132.053,291.552 133.053,291.885 134.5,290.5C 134.833,290.5 135.167,290.5 135.5,290.5C 135.821,292.048 136.821,292.715 138.5,292.5C 141.133,302.38 144.133,312.047 147.5,321.5C 150.487,332.443 152.987,343.443 155,354.5C 145.167,364.333 135.333,374.167 125.5,384C 123.5,384.667 121.5,384.667 119.5,384C 93.5797,377.949 67.5797,372.283 41.5,367C 39.7647,364.808 38.598,362.308 38,359.5C 31.253,330.838 23.753,302.505 15.5,274.5C 10.1667,262.5 13.5,259.167 25.5,264.5 Z"/>
<path d="M 461.5,266.5 C 463.048,266.821 463.715,267.821 463.5,269.5C 446.298,290.629 424.631,305.629 398.5,314.5C 396.79,312.357 395.457,310.023 394.5,307.5C 394.843,305.517 394.176,304.183 392.5,303.5C 392.5,303.167 392.5,302.833 392.5,302.5C 393.885,301.053 393.552,300.053 391.5,299.5C 391.5,299.167 391.5,298.833 391.5,298.5C 392.124,298.083 392.457,297.416 392.5,296.5C 390.405,291.661 389.405,286.827 389.5,282C 413.609,276.747 437.609,271.58 461.5,266.5 Z"/>
<path d="M 216.5,273.5 C 219.044,273.104 221.211,273.771 223,275.5C 224.665,278.078 225.665,280.745 226,283.5C 206.167,303.333 186.333,323.167 166.5,343C 165.833,343.667 165.167,343.667 164.5,343C 158.821,326.446 154.321,309.613 151,292.5C 151.5,292 152,291.5 152.5,291C 173.979,285.222 195.312,279.389 216.5,273.5 Z"/>
<path d="M 279.5,263.5 C 311.583,270.55 343.917,277.05 376.5,283C 377.701,283.903 378.535,285.069 379,286.5C 381.67,296.508 384.003,306.508 386,316.5C 346.78,324.778 311.78,316.112 281,290.5C 277.765,281.729 275.598,272.896 274.5,264C 276.134,263.506 277.801,263.34 279.5,263.5 Z"/>
<path d="M 219.5,382.5 C 236.5,364.833 253.833,347.5 271.5,330.5C 275.644,329.638 279.144,330.971 282,334.5C 284.729,344.49 287.062,354.49 289,364.5C 266.673,371.33 244.173,377.663 221.5,383.5C 220.817,383.137 220.15,382.804 219.5,382.5 Z"/>
<path d="M 293.5,341.5 C 294.919,340.549 296.585,340.216 298.5,340.5C 298.577,341.75 299.244,342.583 300.5,343C 314.031,348.383 328.031,351.883 342.5,353.5C 354.833,354.833 367.167,354.833 379.5,353.5C 384.805,352.447 390.139,351.947 395.5,352C 397.104,356.949 398.771,361.782 400.5,366.5C 400.41,369.152 401.076,371.485 402.5,373.5C 403.5,378.833 404.5,384.167 405.5,389.5C 405.167,389.5 404.833,389.5 404.5,389.5C 371.756,381.232 338.756,373.399 305.5,366C 302.746,365.401 300.746,363.901 299.5,361.5C 299.5,360.167 298.833,359.5 297.5,359.5C 297.5,359.167 297.5,358.833 297.5,358.5C 298.885,357.053 298.552,356.053 296.5,355.5C 296.5,355.167 296.5,354.833 296.5,354.5C 297.124,354.083 297.457,353.416 297.5,352.5C 296.608,348.55 295.275,344.883 293.5,341.5 Z"/>
<path d="M 351.5,385.5 C 351.833,385.5 352.167,385.5 352.5,385.5C 353.053,387.552 354.053,387.885 355.5,386.5C 355.833,386.5 356.167,386.5 356.5,386.5C 356.821,388.048 357.821,388.715 359.5,388.5C 364.12,388.74 368.453,389.74 372.5,391.5C 383.258,394.759 394.258,397.592 405.5,400C 405.957,400.414 406.291,400.914 406.5,401.5C 404.85,406.769 403.516,412.102 402.5,417.5C 401.815,422.239 400.815,426.905 399.5,431.5C 389.606,464.067 380.772,497.067 373,530.5C 372.5,531 372,531.5 371.5,532C 336.034,523.904 300.701,515.071 265.5,505.5C 264.596,504.791 264.263,503.791 264.5,502.5C 267.16,499.887 268.493,496.554 268.5,492.5C 268.232,490.901 268.566,489.568 269.5,488.5C 279.353,454.265 288.686,419.765 297.5,385C 297.43,384.235 297.097,383.735 296.5,383.5C 296.5,382.833 296.5,382.167 296.5,381.5C 298.163,379.627 299.829,377.627 301.5,375.5C 317.337,379.101 333.171,382.768 349,386.5C 350.07,386.472 350.903,386.139 351.5,385.5 Z"/>
<path d="M 203.5,519.5 C 203.167,519.5 202.833,519.5 202.5,519.5C 199.848,519.41 197.515,520.076 195.5,521.5C 194.432,522.434 193.099,522.768 191.5,522.5C 177.496,525.134 163.662,528.467 150,532.5C 148.5,532.333 147.667,531.5 147.5,530C 154.74,501.873 161.74,473.707 168.5,445.5C 169.531,439.711 171.031,434.045 173,428.5C 182.5,419 192,409.5 201.5,400C 213.319,396.634 224.986,393.134 236.5,389.5C 237.568,388.566 238.901,388.232 240.5,388.5C 255.9,384.817 271.233,380.817 286.5,376.5C 287.72,376.887 288.387,377.72 288.5,379C 277.254,420.816 266.088,462.65 255,504.5C 254.25,505.126 253.416,505.626 252.5,506C 235.912,510.06 219.579,514.56 203.5,519.5 Z"/>
<path d="M 95.5,388.5 C 97.099,388.232 98.4324,388.566 99.5,389.5C 104.6,390.866 109.6,392.699 114.5,395C 101.935,406.895 90.1021,419.395 79,432.5C 77.6476,435.72 76.8143,439.053 76.5,442.5C 74.7888,464.971 85.2888,477.304 108,479.5C 115.539,479.476 122.373,477.31 128.5,473C 138.035,463.298 147.702,453.798 157.5,444.5C 158.404,445.209 158.737,446.209 158.5,447.5C 157.883,447.611 157.383,447.944 157,448.5C 153.847,460.443 151.014,472.443 148.5,484.5C 148.784,486.415 148.451,488.081 147.5,489.5C 143.442,503.555 139.442,517.722 135.5,532C 121.484,529.164 107.484,525.997 93.5,522.5C 90.5718,522.435 87.9052,521.768 85.5,520.5C 61.7046,513.715 37.7046,507.215 13.5,501C 11.6969,500.363 10.3636,499.197 9.5,497.5C 11.0466,494.425 11.38,491.425 10.5,488.5C 10.5,488.167 10.5,487.833 10.5,487.5C 11.9311,487.119 12.7645,486.119 13,484.5C 22.0817,449.088 31.415,413.755 41,378.5C 41.7247,377.941 42.5581,377.608 43.5,377.5C 60.7441,381.682 78.0775,385.349 95.5,388.5 Z"/>
<path d="M 536.5,378.5 C 534.17,389.158 531.837,399.825 529.5,410.5C 529.768,412.099 529.434,413.432 528.5,414.5C 520.382,442.962 512.549,471.628 505,500.5C 481.111,507.262 457.278,513.928 433.5,520.5C 431.095,521.768 428.428,522.435 425.5,522.5C 412.253,525.437 399.086,528.77 386,532.5C 385.228,532.355 384.561,532.022 384,531.5C 387.482,516.232 390.982,500.898 394.5,485.5C 402.752,457.5 410.252,429.167 417,400.5C 434.313,397.043 451.479,393.377 468.5,389.5C 470.265,388.539 472.265,388.205 474.5,388.5C 477.038,388.493 479.538,388.159 482,387.5C 483.376,387.316 484.209,386.649 484.5,385.5C 485.167,385.5 485.833,385.5 486.5,385.5C 486.917,386.124 487.584,386.457 488.5,386.5C 504.476,383.552 520.476,380.885 536.5,378.5 Z"/>
</g>
</svg>
