<?xml version="1.0" encoding="UTF-8"?>
<!DOCTYPE svg PUBLIC "-//W3C//DTD SVG 1.1//EN" "http://www.w3.org/Graphics/SVG/1.1/DTD/svg11.dtd">
<svg xmlns="http://www.w3.org/2000/svg" version="1.1" width="512px" height="512px" style="shape-rendering:geometricPrecision; text-rendering:geometricPrecision; image-rendering:optimizeQuality; fill-rule:evenodd; clip-rule:evenodd" xmlns:xlink="http://www.w3.org/1999/xlink">
<g fill="#c55656" stroke="none">
<path d="M 220.5,-0.5 C 243.833,-0.5 267.167,-0.5 290.5,-0.5C 293.728,1.21585 296.561,3.54918 299,6.5C 303.767,17.2001 308.933,27.7001 314.5,38C 335.079,43.6361 354.579,51.8028 373,62.5C 381.773,58.1968 390.606,54.0301 399.5,50C 403.594,49.2327 407.594,49.566 411.5,51C 427.305,65.8042 442.805,80.9709 458,96.5C 461.173,101.023 462.173,106.023 461,111.5C 456.97,120.394 452.803,129.227 448.5,138C 460.362,158.222 469.028,179.722 474.5,202.5C 483.845,205.226 493.178,208.059 502.5,211C 506.027,213.362 509.027,216.196 511.5,219.5C 511.5,243.5 511.5,267.5 511.5,291.5C 509.027,294.804 506.027,297.638 502.5,300C 493.178,302.941 483.845,305.774 474.5,308.5C 469.534,329.565 461.534,349.399 450.5,368C 454.192,378.075 457.692,388.242 461,398.5C 462.068,403.768 461.401,408.768 459,413.5C 443.833,428.667 428.667,443.833 413.5,459C 408.768,461.401 403.768,462.068 398.5,461C 388.242,457.692 378.075,454.192 368,450.5C 349.399,461.534 329.565,469.534 308.5,474.5C 305.774,483.845 302.941,493.178 300,502.5C 297.638,506.027 294.804,509.027 291.5,511.5C 267.5,511.5 243.5,511.5 219.5,511.5C 216.196,509.027 213.362,506.027 211,502.5C 208.059,493.178 205.226,483.845 202.5,474.5C 181.435,469.534 161.601,461.534 143,450.5C 132.925,454.192 122.758,457.692 112.5,461C 107.232,462.068 102.232,461.401 97.5,459C 82.3333,443.833 67.1667,428.667 52,413.5C 49.5987,408.768 48.932,403.768 50,398.5C 53.308,388.242 56.808,378.075 60.5,368C 50.4003,351.296 42.9003,333.463 38,314.5C 27.7001,308.933 17.2001,303.767 6.5,299C 3.54918,296.561 1.21585,293.728 -0.5,290.5C -0.5,267.167 -0.5,243.833 -0.5,220.5C 1.21585,217.272 3.54918,214.439 6.5,212C 17.2001,207.233 27.7001,202.067 38,196.5C 43.6361,175.921 51.8028,156.421 62.5,138C 58.1968,129.227 54.0301,120.394 50,111.5C 48.8274,106.023 49.8274,101.023 53,96.5C 68.5602,80.2712 84.7268,64.7712 101.5,50C 105.167,49.3333 108.833,49.3333 112.5,50C 120.939,54.3027 129.439,58.4693 138,62.5C 156.421,51.8028 175.921,43.6361 196.5,38C 202.067,27.7001 207.233,17.2001 212,6.5C 214.439,3.54918 217.272,1.21585 220.5,-0.5 Z M 237.5,91.5 C 307.263,87.7947 360.763,115.128 398,173.5C 423.295,220.773 426.295,269.44 407,319.5C 380.289,376.297 335.789,409.463 273.5,419C 203.713,423.192 150.213,396.025 113,337.5C 87.7048,290.227 84.7048,241.56 104,191.5C 130.919,134.754 175.419,101.421 237.5,91.5 Z"/>
<path d="M 243.5,150.5 C 280.999,147.16 308.166,162.16 325,195.5C 337.826,232.675 328.993,263.508 298.5,288C 275.331,301.926 250.998,304.26 225.5,295C 190.155,276.812 175.655,247.978 182,208.5C 191.08,176.917 211.58,157.583 243.5,150.5 Z"/>
<path d="M 181.5,300.5 C 187.271,304.424 192.937,308.591 198.5,313C 229.348,331.509 261.682,334.509 295.5,322C 307.714,316.604 318.714,309.438 328.5,300.5C 342.272,313.05 351.105,328.384 355,346.5C 317.469,385.339 272.302,398.505 219.5,386C 194.562,378.787 173.395,365.62 156,346.5C 156.567,339.794 158.567,333.461 162,327.5C 167.53,317.764 174.03,308.764 181.5,300.5 Z"/>
</g>
</svg>
