<?xml version="1.0" encoding="UTF-8"?>
<!DOCTYPE svg PUBLIC "-//W3C//DTD SVG 1.1//EN" "http://www.w3.org/Graphics/SVG/1.1/DTD/svg11.dtd">
<svg xmlns="http://www.w3.org/2000/svg" version="1.1" width="512px" height="512px" style="shape-rendering:geometricPrecision; text-rendering:geometricPrecision; image-rendering:optimizeQuality; fill-rule:evenodd; clip-rule:evenodd" xmlns:xlink="http://www.w3.org/1999/xlink">
<g fill="#3FB8AF" stroke="none">
<path d="M 119.5,-0.5 C 123.5,-0.5 127.5,-0.5 131.5,-0.5C 135.479,1.31481 138.312,4.31481 140,8.5C 140.333,30.1667 140.667,51.8333 141,73.5C 148.879,66.4773 158.046,61.9773 168.5,60C 183.167,59.3333 197.833,59.3333 212.5,60C 215.667,61.8333 218.167,64.3333 220,67.5C 224.841,103.589 210.341,127.756 176.5,140C 164.553,141.391 152.553,141.891 140.5,141.5C 140.333,162.503 140.5,183.503 141,204.5C 153.359,191.236 168.525,183.069 186.5,180C 201.833,179.333 217.167,179.333 232.5,180C 235.667,181.833 238.167,184.333 240,187.5C 244.791,222.733 232.624,250.233 203.5,270C 183.79,280.508 162.79,284.342 140.5,281.5C 140.5,298.167 140.5,314.833 140.5,331.5C 130.5,331.5 120.5,331.5 110.5,331.5C 110.5,314.833 110.5,298.167 110.5,281.5C 83.4926,285.272 59.1593,279.106 37.5,263C 15.5748,242.563 6.74144,217.397 11,187.5C 12.8333,184.333 15.3333,181.833 18.5,180C 33.8333,179.333 49.1667,179.333 64.5,180C 82.4748,183.069 97.6415,191.236 110,204.5C 110.5,183.503 110.667,162.503 110.5,141.5C 98.4466,141.891 86.4466,141.391 74.5,140C 40.6594,127.756 26.1594,103.589 31,67.5C 32.8333,64.3333 35.3333,61.8333 38.5,60C 53.1667,59.3333 67.8333,59.3333 82.5,60C 92.954,61.9773 102.121,66.4773 110,73.5C 110.333,51.8333 110.667,30.1667 111,8.5C 112.688,4.31481 115.521,1.31481 119.5,-0.5 Z"/>
<path d="M 379.5,-0.5 C 383.5,-0.5 387.5,-0.5 391.5,-0.5C 395.479,1.31481 398.312,4.31481 400,8.5C 400.333,30.1667 400.667,51.8333 401,73.5C 408.879,66.4773 418.046,61.9773 428.5,60C 443.167,59.3333 457.833,59.3333 472.5,60C 475.667,61.8333 478.167,64.3333 480,67.5C 484.841,103.589 470.341,127.756 436.5,140C 424.553,141.391 412.553,141.891 400.5,141.5C 400.333,162.503 400.5,183.503 401,204.5C 413.359,191.236 428.525,183.069 446.5,180C 461.833,179.333 477.167,179.333 492.5,180C 495.667,181.833 498.167,184.333 500,187.5C 504.791,222.733 492.624,250.233 463.5,270C 443.79,280.508 422.79,284.342 400.5,281.5C 400.5,298.167 400.5,314.833 400.5,331.5C 390.5,331.5 380.5,331.5 370.5,331.5C 370.5,314.833 370.5,298.167 370.5,281.5C 343.493,285.272 319.159,279.106 297.5,263C 275.575,242.563 266.741,217.397 271,187.5C 272.833,184.333 275.333,181.833 278.5,180C 293.833,179.333 309.167,179.333 324.5,180C 342.475,183.069 357.641,191.236 370,204.5C 370.5,183.503 370.667,162.503 370.5,141.5C 358.447,141.891 346.447,141.391 334.5,140C 300.659,127.756 286.159,103.589 291,67.5C 292.833,64.3333 295.333,61.8333 298.5,60C 313.167,59.3333 327.833,59.3333 342.5,60C 352.954,61.9773 362.121,66.4773 370,73.5C 370.333,51.8333 370.667,30.1667 371,8.5C 372.688,4.31481 375.521,1.31481 379.5,-0.5 Z"/>
<path d="M 511.5,370.5 C 511.5,387.5 511.5,404.5 511.5,421.5C 340.833,421.5 170.167,421.5 -0.5,421.5C -0.5,404.5 -0.5,387.5 -0.5,370.5C 1.31481,366.521 4.31481,363.688 8.5,362C 173.167,361.333 337.833,361.333 502.5,362C 506.685,363.688 509.685,366.521 511.5,370.5 Z"/>
<path d="M -0.5,451.5 C 170.167,451.5 340.833,451.5 511.5,451.5C 511.5,468.5 511.5,485.5 511.5,502.5C 510.196,503.987 509.03,505.654 508,507.5C 505.985,508.697 504.151,510.03 502.5,511.5C 337.833,511.5 173.167,511.5 8.5,511.5C 7.01307,510.196 5.3464,509.03 3.5,508C 2.30342,505.985 0.970083,504.151 -0.5,502.5C -0.5,485.5 -0.5,468.5 -0.5,451.5 Z"/>
</g>
</svg>
