<?xml version="1.0" encoding="UTF-8"?>
<!DOCTYPE svg PUBLIC "-//W3C//DTD SVG 1.1//EN" "http://www.w3.org/Graphics/SVG/1.1/DTD/svg11.dtd">
<svg xmlns="http://www.w3.org/2000/svg" version="1.1" width="512px" height="512px" style="shape-rendering:geometricPrecision; text-rendering:geometricPrecision; image-rendering:optimizeQuality; fill-rule:evenodd; clip-rule:evenodd" xmlns:xlink="http://www.w3.org/1999/xlink">
<g fill="#db6ad2" stroke="none">
<path d="M 249.5,10.5 C 251.499,173.83 252.165,337.497 251.5,501.5C 201.356,501.995 151.356,501.495 101.5,500C 125.038,361.606 148.205,223.106 171,84.5C 174.131,80.3672 177.631,76.5338 181.5,73C 204.363,52.3007 227.029,31.4673 249.5,10.5 Z M 234.5,52.5 C 235.826,66.6722 235.826,81.0055 234.5,95.5C 214.42,109.29 194.253,122.957 174,136.5C 176.335,122.812 179.169,109.145 182.5,95.5C 199.877,81.1137 217.211,66.7804 234.5,52.5 Z M 234.5,116.5 C 235.661,130.661 235.827,144.994 235,159.5C 211.333,173.833 187.667,188.167 164,202.5C 165.767,188.553 167.767,174.553 170,160.5C 191.653,145.934 213.153,131.267 234.5,116.5 Z M 233.5,183.5 C 234.831,190.301 235.497,197.467 235.5,205C 235.167,212.167 234.833,219.333 234.5,226.5C 208.324,240.422 181.99,254.088 155.5,267.5C 156.056,253.43 157.89,239.43 161,225.5C 185.311,211.599 209.478,197.599 233.5,183.5 Z M 234.5,247.5 C 235.83,261.902 235.83,276.402 234.5,291C 204.833,304 175.167,317 145.5,330C 144.5,330.667 143.5,330.667 142.5,330C 144.69,316.18 147.023,302.347 149.5,288.5C 178.047,275.059 206.38,261.392 234.5,247.5 Z M 233.5,313.5 C 234.831,320.301 235.497,327.467 235.5,335C 235.167,342.167 234.833,349.333 234.5,356.5C 200.942,370.407 167.442,384.407 134,398.5C 135.192,385.152 136.858,371.818 139,358.5C 139.249,357.376 139.749,356.376 140.5,355.5C 171.709,341.725 202.709,327.725 233.5,313.5 Z M 234.5,378.5 C 235.496,392.99 235.829,407.657 235.5,422.5C 198.833,435.833 162.167,449.167 125.5,462.5C 127.095,448.328 129.428,434.328 132.5,420.5C 166.681,406.669 200.681,392.669 234.5,378.5 Z"/>
<path d="M 258.5,10.5 C 280.586,27.6509 302.086,45.6509 323,64.5C 350.266,210.097 377.099,355.764 403.5,501.5C 355.167,501.5 306.833,501.5 258.5,501.5C 258.5,337.833 258.5,174.167 258.5,10.5 Z M 268.5,51.5 C 283.883,62.6133 299.383,73.6133 315,84.5C 317.606,96.756 320.44,108.923 323.5,121C 305.195,111.673 287.195,101.506 269.5,90.5C 268.501,77.5171 268.168,64.5171 268.5,51.5 Z M 268.5,116.5 C 287.331,124.832 305.831,133.832 324,143.5C 325.848,154.908 328.015,166.241 330.5,177.5C 329.635,178.583 328.635,178.749 327.5,178C 308.167,170.333 288.833,162.667 269.5,155C 268.511,142.246 268.178,129.413 268.5,116.5 Z M 268.5,180.5 C 289.226,188.298 309.893,196.298 330.5,204.5C 333.322,216.788 335.988,229.121 338.5,241.5C 338.167,242.167 337.833,242.833 337.5,243.5C 314.909,235.303 292.242,227.303 269.5,219.5C 268.501,206.517 268.168,193.517 268.5,180.5 Z M 347.5,315.5 C 321.349,307.172 295.349,298.338 269.5,289C 268.177,274.563 268.177,260.063 269.5,245.5C 292.5,253.5 315.5,261.5 338.5,269.5C 342.267,284.67 345.267,300.004 347.5,315.5 Z M 268.5,310.5 C 296.359,319.619 323.859,329.619 351,340.5C 354.126,354.609 356.626,368.609 358.5,382.5C 328.833,372.5 299.167,362.5 269.5,352.5C 268.501,338.516 268.167,324.516 268.5,310.5 Z M 268.5,374.5 C 298.472,385.491 328.472,396.491 358.5,407.5C 362.621,420.31 366.288,433.31 369.5,446.5C 368.277,447.614 366.944,447.781 365.5,447C 333.5,437.333 301.5,427.667 269.5,418C 268.51,403.579 268.176,389.079 268.5,374.5 Z"/>
<path d="M -0.5,501.5 C -0.5,497.167 -0.5,492.833 -0.5,488.5C 8.37642,384.986 17.2098,281.32 26,177.5C 38.3333,158.167 50.6667,138.833 63,119.5C 54.3558,246.852 45.1891,374.186 35.5,501.5C 23.5,501.5 11.5,501.5 -0.5,501.5 Z"/>
<path d="M 70.5,122.5 C 93.2629,132.754 116.263,142.42 139.5,151.5C 139.667,181.169 139.5,210.835 139,240.5C 135.214,263.883 131.214,287.217 127,310.5C 126.788,307.242 126.288,304.076 125.5,301C 105.718,294.129 86.0518,286.962 66.5,279.5C 65.1161,285.78 64.1161,292.114 63.5,298.5C 83.8157,306.16 104.482,312.827 125.5,318.5C 125.682,324.411 124.682,330.077 122.5,335.5C 103.021,328.396 83.5214,321.396 64,314.5C 63.0027,321.467 62.5027,328.467 62.5,335.5C 81.8333,341.167 101.167,346.833 120.5,352.5C 119.616,357.804 118.949,363.137 118.5,368.5C 99.0382,363.068 79.8715,356.735 61,349.5C 60.2837,356.066 59.4504,362.566 58.5,369C 76.6367,375.121 94.9701,380.787 113.5,386C 114.642,391.663 113.975,397.163 111.5,402.5C 94.0917,396.697 76.7584,390.697 59.5,384.5C 58.7492,385.376 58.2492,386.376 58,387.5C 57.3013,393.175 56.968,398.842 57,404.5C 74.3339,410.042 91.8339,415.042 109.5,419.5C 108.833,424.833 108.167,430.167 107.5,435.5C 90.083,430.812 72.7496,425.812 55.5,420.5C 55.0258,426.692 54.3591,432.858 53.5,439C 53.8333,439.5 54.1667,440 54.5,440.5C 71.161,444.999 87.8277,449.499 104.5,454C 101.568,469.758 98.9014,485.591 96.5,501.5C 77.8214,501.833 59.1548,501.5 40.5,500.5C 50.551,374.503 60.551,248.503 70.5,122.5 Z M 77.5,139.5 C 95.5835,146.363 113.584,153.53 131.5,161C 132.642,167.084 132.809,173.251 132,179.5C 113.337,172.335 94.5038,165.668 75.5,159.5C 76.1667,152.833 76.8333,146.167 77.5,139.5 Z M 75.5,173.5 C 93.681,181.227 112.014,188.56 130.5,195.5C 130.5,201.5 130.5,207.5 130.5,213.5C 112.127,207.375 93.7936,201.042 75.5,194.5C 74.993,187.542 74.993,180.542 75.5,173.5 Z M 72.5,208.5 C 91.2583,215.71 109.925,223.21 128.5,231C 129.642,237.084 129.809,243.251 129,249.5C 110.26,242.475 91.4264,235.642 72.5,229C 71.5721,222.234 71.5721,215.401 72.5,208.5 Z M 69.5,242.5 C 88.4743,250.318 107.474,258.151 126.5,266C 127.475,271.741 127.808,277.575 127.5,283.5C 107.236,277.023 87.2359,269.857 67.5,262C 68.6134,255.592 69.2801,249.092 69.5,242.5 Z"/>
<path d="M 461.5,176.5 C 462.29,177.609 462.79,178.942 463,180.5C 468.963,287.467 474.463,394.3 479.5,501C 456.836,501.5 434.169,501.667 411.5,501.5C 408.323,483.781 404.823,466.115 401,448.5C 400.333,446.5 400.333,444.5 401,442.5C 423.42,438.845 445.92,435.511 468.5,432.5C 467.778,424.172 467.112,415.839 466.5,407.5C 443.596,411.381 420.763,415.714 398,420.5C 396.674,420.245 395.674,419.578 395,418.5C 393.971,413.856 393.138,409.19 392.5,404.5C 416.805,399.34 441.138,394.34 465.5,389.5C 464.834,381.517 464.501,373.517 464.5,365.5C 438.886,371.756 413.22,377.756 387.5,383.5C 385.743,372.634 383.743,361.801 381.5,351C 385.638,301.841 389.638,252.674 393.5,203.5C 416.448,195.019 439.115,186.019 461.5,176.5 Z M 454.5,199.5 C 456.292,206.864 456.625,214.364 455.5,222C 436.963,228.013 418.297,233.513 399.5,238.5C 399.326,232.075 399.993,225.741 401.5,219.5C 419.365,213.055 437.031,206.389 454.5,199.5 Z M 457.5,233.5 C 459.184,240.202 459.517,247.035 458.5,254C 437.902,260.145 417.236,265.978 396.5,271.5C 396.231,265.06 396.898,258.727 398.5,252.5C 418.337,246.331 438.003,239.998 457.5,233.5 Z M 456.5,265.5 C 457.5,265.5 458.5,265.5 459.5,265.5C 460.165,272.48 460.498,279.48 460.5,286.5C 438.456,292.292 416.456,298.292 394.5,304.5C 393.176,297.886 393.509,291.386 395.5,285C 416.094,278.942 436.427,272.442 456.5,265.5 Z M 458.5,298.5 C 459.5,298.5 460.5,298.5 461.5,298.5C 462.426,305.517 462.426,312.517 461.5,319.5C 438.167,325.5 414.833,331.5 391.5,337.5C 390.105,330.876 390.438,324.376 392.5,318C 414.642,311.559 436.642,305.059 458.5,298.5 Z M 461.5,330.5 C 462.829,337.194 463.829,344.027 464.5,351C 438.561,357.985 412.561,364.319 386.5,370C 387.378,363.567 388.044,357.067 388.5,350.5C 413.145,344.591 437.478,337.924 461.5,330.5 Z"/>
<path d="M 511.5,487.5 C 511.5,492.167 511.5,496.833 511.5,501.5C 503.5,501.5 495.5,501.5 487.5,501.5C 480.157,394.85 473.323,288.183 467,181.5C 474.333,194.833 481.667,208.167 489,221.5C 496.512,310.312 504.012,398.979 511.5,487.5 Z"/>
</g>
</svg>
