<?xml version="1.0" encoding="UTF-8"?>
<!DOCTYPE svg PUBLIC "-//W3C//DTD SVG 1.1//EN" "http://www.w3.org/Graphics/SVG/1.1/DTD/svg11.dtd">
<svg xmlns="http://www.w3.org/2000/svg" version="1.1" width="512px" height="512px" style="shape-rendering:geometricPrecision; text-rendering:geometricPrecision; image-rendering:optimizeQuality; fill-rule:evenodd; clip-rule:evenodd" xmlns:xlink="http://www.w3.org/1999/xlink">
<g fill="#a74e9f" stroke="none">
<path d="M 186.5,9.5 C 213.296,10.1296 225.462,23.7963 223,50.5C 216.57,68.6387 203.737,76.472 184.5,74C 164.772,67.5856 156.605,54.0856 160,33.5C 164.32,20.3396 173.153,12.3396 186.5,9.5 Z"/>
<path d="M 418.5,31.5 C 440.258,29.7097 456.258,38.3764 466.5,57.5C 487.887,61.2202 499.554,73.8869 501.5,95.5C 451.5,95.5 401.5,95.5 351.5,95.5C 352.785,73.3763 364.451,60.5429 386.5,57C 392.943,43.0433 403.61,34.5433 418.5,31.5 Z"/>
<path d="M 75.5,74.5 C 97.7655,71.4651 114.099,79.7984 124.5,99.5C 146.45,103.442 158.116,116.442 159.5,138.5C 109.5,138.5 59.5,138.5 9.5,138.5C 11.387,116.276 23.387,103.276 45.5,99.5C 51.6403,86.4434 61.6403,78.11 75.5,74.5 Z"/>
<path d="M 223.5,137.5 C 259.167,137.5 294.833,137.5 330.5,137.5C 330.5,144.833 330.5,152.167 330.5,159.5C 294.833,159.5 259.167,159.5 223.5,159.5C 223.5,152.167 223.5,144.833 223.5,137.5 Z"/>
<path d="M 351.5,511.5 C 322.833,511.5 294.167,511.5 265.5,511.5C 265.667,410.833 265.5,310.166 265,209.5C 263.413,206.244 260.913,204.077 257.5,203C 238.836,202.5 220.17,202.333 201.5,202.5C 201.5,195.167 201.5,187.833 201.5,180.5C 251.5,180.5 301.5,180.5 351.5,180.5C 351.5,290.833 351.5,401.167 351.5,511.5 Z"/>
<path d="M 245.5,511.5 C 227.5,511.5 209.5,511.5 191.5,511.5C 191.968,474.46 191.468,437.46 190,400.5C 188.125,397.813 185.625,395.979 182.5,395C 167.504,394.5 152.504,394.333 137.5,394.5C 137.5,337.5 137.5,280.5 137.5,223.5C 173.5,223.5 209.5,223.5 245.5,223.5C 245.5,319.5 245.5,415.5 245.5,511.5 Z"/>
<path d="M 511.5,495.5 C 511.5,498.833 511.5,502.167 511.5,505.5C 509.833,507.833 507.833,509.833 505.5,511.5C 461.167,511.5 416.833,511.5 372.5,511.5C 372.5,429.5 372.5,347.5 372.5,265.5C 408.167,265.5 443.833,265.5 479.5,265.5C 479.5,340.167 479.5,414.833 479.5,489.5C 487.507,489.334 495.507,489.5 503.5,490C 506.576,491.243 509.243,493.077 511.5,495.5 Z"/>
<path d="M 85.5,511.5 C 58.8333,511.5 32.1667,511.5 5.5,511.5C 3.16667,509.833 1.16667,507.833 -0.5,505.5C -0.5,502.167 -0.5,498.833 -0.5,495.5C 1.75741,493.077 4.42408,491.243 7.5,490C 15.4931,489.5 23.4931,489.334 31.5,489.5C 31.5,443.5 31.5,397.5 31.5,351.5C 60.1667,351.5 88.8333,351.5 117.5,351.5C 117.5,365.833 117.5,380.167 117.5,394.5C 108.418,394.086 99.4178,394.586 90.5,396C 88.6217,397.543 87.1217,399.376 86,401.5C 85.5,438.165 85.3333,474.832 85.5,511.5 Z"/>
<path d="M 170.5,511.5 C 148.833,511.5 127.167,511.5 105.5,511.5C 105.5,479.5 105.5,447.5 105.5,415.5C 127.167,415.5 148.833,415.5 170.5,415.5C 170.5,447.5 170.5,479.5 170.5,511.5 Z"/>
</g>
</svg>
