<?xml version="1.0" encoding="UTF-8"?>
<!DOCTYPE svg PUBLIC "-//W3C//DTD SVG 1.1//EN" "http://www.w3.org/Graphics/SVG/1.1/DTD/svg11.dtd">
<svg xmlns="http://www.w3.org/2000/svg" version="1.1" width="512px" height="512px" style="shape-rendering:geometricPrecision; text-rendering:geometricPrecision; image-rendering:optimizeQuality; fill-rule:evenodd; clip-rule:evenodd" xmlns:xlink="http://www.w3.org/1999/xlink">
<g fill="#c55656" stroke="none">
<path d="M 511.5,347.5 C 511.5,357.167 511.5,366.833 511.5,376.5C 502.404,424.1 474.404,454.267 427.5,467C 422.53,467.886 417.53,468.552 412.5,469C 367.168,469.5 321.835,469.667 276.5,469.5C 276.5,454.833 276.5,440.167 276.5,425.5C 304.833,425.5 333.167,425.5 361.5,425.5C 361.5,368.833 361.5,312.167 361.5,255.5C 375.833,255.5 390.167,255.5 404.5,255.5C 408.838,197.376 388.505,150.209 343.5,114C 297.872,82.8804 249.206,77.2137 197.5,97C 143.638,122.551 113.471,165.051 107,224.5C 106.5,234.828 106.334,245.161 106.5,255.5C 120.833,255.5 135.167,255.5 149.5,255.5C 149.5,326.833 149.5,398.167 149.5,469.5C 129.469,469.882 109.469,469.382 89.5,468C 49.4449,460.563 21.6116,438.063 6,400.5C 3.17941,392.541 1.01274,384.541 -0.5,376.5C -0.5,366.833 -0.5,357.167 -0.5,347.5C 6.37815,308.762 27.5448,280.762 63,263.5C 56.2736,188.502 81.7736,127.335 139.5,80C 199.329,38.3598 263.329,30.6931 331.5,57C 398.373,88.5597 436.873,141.06 447,214.5C 447.333,230.833 447.667,247.167 448,263.5C 483.455,280.762 504.622,308.762 511.5,347.5 Z"/>
</g>
</svg>
