<?xml version="1.0" encoding="UTF-8"?>
<!DOCTYPE svg PUBLIC "-//W3C//DTD SVG 1.1//EN" "http://www.w3.org/Graphics/SVG/1.1/DTD/svg11.dtd">
<svg xmlns="http://www.w3.org/2000/svg" version="1.1" width="512px" height="512px" style="shape-rendering:geometricPrecision; text-rendering:geometricPrecision; image-rendering:optimizeQuality; fill-rule:evenodd; clip-rule:evenodd" xmlns:xlink="http://www.w3.org/1999/xlink">
<g fill="#a74e9f" stroke="none">
<path d="M 16.5,-0.5 C 105.167,-0.5 193.833,-0.5 282.5,-0.5C 315.799,33.2987 349.299,66.9654 383,100.5C 383.667,231.833 383.667,363.167 383,494.5C 379.981,502.684 374.481,508.351 366.5,511.5C 249.833,511.5 133.167,511.5 16.5,511.5C 8.5,508.167 2.83333,502.5 -0.5,494.5C -0.5,335.167 -0.5,175.833 -0.5,16.5C 2.83333,8.5 8.5,2.83333 16.5,-0.5 Z M 73.5,76.5 C 135.168,76.3333 196.834,76.5 258.5,77C 275.117,80.3746 282.283,90.5413 280,107.5C 276.865,120.3 268.698,126.8 255.5,127C 193.14,127.974 130.806,127.641 68.5,126C 54.5556,120.555 49.0556,110.389 52,95.5C 55.3068,84.6877 62.4734,78.3544 73.5,76.5 Z M 69.5,179.5 C 150.834,179.333 232.167,179.5 313.5,180C 327.702,185.225 333.535,195.392 331,210.5C 327.978,220.854 321.145,227.021 310.5,229C 230.833,229.667 151.167,229.667 71.5,229C 55.5391,224.61 49.0391,214.11 52,197.5C 54.6834,188.318 60.5167,182.318 69.5,179.5 Z M 71.5,281.5 C 151.501,281.333 231.501,281.5 311.5,282C 327.151,286.105 333.651,296.272 331,312.5C 328.167,322 322,328.167 312.5,331C 231.5,331.667 150.5,331.667 69.5,331C 57.4454,327.563 51.4454,319.563 51.5,307C 51.6316,293.185 58.2983,284.685 71.5,281.5 Z M 75.5,383.5 C 152.834,383.333 230.167,383.5 307.5,384C 325.861,386.531 333.694,397.031 331,415.5C 327.375,425.736 320.208,431.903 309.5,434C 230.833,434.667 152.167,434.667 73.5,434C 56.1041,430.589 48.9374,420.089 52,402.5C 55.5733,390.749 63.4066,384.415 75.5,383.5 Z"/>
<path d="M 441.5,-0.5 C 462.5,-0.5 483.5,-0.5 504.5,-0.5C 507.167,1.5 509.5,3.83333 511.5,6.5C 511.5,123.833 511.5,241.167 511.5,358.5C 485.833,358.5 460.167,358.5 434.5,358.5C 434.333,241.5 434.5,124.5 435,7.5C 436.277,4.06178 438.443,1.39512 441.5,-0.5 Z"/>
<path d="M 511.5,408.5 C 511.5,409.833 511.5,411.167 511.5,412.5C 498.595,445.326 485.928,478.326 473.5,511.5C 473.167,511.5 472.833,511.5 472.5,511.5C 459.438,477.314 446.771,442.98 434.5,408.5C 460.167,408.5 485.833,408.5 511.5,408.5 Z"/>
</g>
</svg>
