<?xml version="1.0" standalone="no"?>
<!DOCTYPE svg PUBLIC "-//W3C//DTD SVG 20010904//EN"
 "http://www.w3.org/TR/2001/REC-SVG-20010904/DTD/svg10.dtd">
<svg version="1.0" xmlns="http://www.w3.org/2000/svg"
 width="512.000000pt" height="512.000000pt" viewBox="0 0 512.000000 512.000000"
 preserveAspectRatio="xMidYMid meet">

<g transform="translate(0.000000,512.000000) scale(0.100000,-0.100000)"
fill="#c55656" stroke="none">
<path d="M1020 5104 c-266 -57 -470 -311 -470 -584 0 -324 276 -600 600 -600
276 0 528 205 585 475 43 204 -16 397 -164 546 -149 149 -347 207 -551 163z"/>
<path d="M3878 5099 c-23 -12 -46 -35 -58 -59 -19 -37 -20 -58 -20 -420 0
-362 1 -383 20 -420 13 -26 34 -47 60 -60 38 -19 58 -20 580 -20 522 0 542 1
580 20 26 13 47 34 60 60 19 37 20 58 20 420 0 362 -1 383 -20 420 -13 26 -34
47 -60 60 -38 19 -57 20 -582 20 -521 -1 -545 -2 -580 -21z"/>
<path d="M2878 4749 c-23 -12 -46 -35 -58 -59 -20 -38 -20 -57 -20 -1010 l0
-970 -249 0 -249 0 -5 258 c-5 290 -15 346 -86 496 -76 163 -196 305 -334 395
l-67 43 -57 -49 c-119 -102 -238 -166 -378 -204 -115 -32 -335 -32 -450 0
-118 32 -248 99 -348 181 l-88 72 -67 -44 c-83 -54 -195 -164 -251 -247 -57
-83 -116 -211 -143 -308 -22 -76 -22 -94 -23 -598 l0 -520 33 -67 c57 -116
163 -186 293 -196 l69 -5 2 -826 3 -826 26 -56 c37 -79 90 -133 167 -171 66
-33 68 -33 234 -36 l168 -4 0 902 c0 865 1 902 19 938 22 43 84 82 130 82 51
0 108 -35 131 -80 20 -38 20 -57 20 -940 l0 -902 168 4 c166 3 168 3 234 36
77 38 130 92 167 171 l26 56 3 826 2 826 70 5 c133 10 242 86 298 207 22 47
27 73 30 169 l4 112 249 0 249 0 0 -970 c0 -953 0 -972 20 -1010 13 -26 34
-47 60 -60 37 -19 58 -20 330 -20 l290 0 0 150 0 150 -200 0 -200 0 0 535 0
535 200 0 200 0 0 150 0 150 -200 0 -200 0 0 540 0 540 200 0 200 0 0 150 0
150 -200 0 -200 0 0 535 0 535 200 0 200 0 0 150 0 150 -292 0 c-272 -1 -296
-2 -330 -21z"/>
<path d="M3906 3740 c-16 -5 -40 -19 -54 -32 -51 -47 -52 -59 -52 -465 0 -422
0 -425 69 -470 l34 -23 557 0 557 0 34 23 c70 46 70 46 67 484 -3 378 -4 393
-24 419 -11 15 -33 37 -48 48 -27 21 -39 21 -569 23 -298 1 -555 -2 -571 -7z"/>
<path d="M3869 2347 c-70 -46 -70 -46 -67 -484 3 -378 4 -393 24 -419 11 -15
33 -37 48 -48 27 -21 37 -21 586 -21 549 0 559 0 586 21 15 11 37 33 48 48 20
26 21 41 24 419 3 438 3 438 -67 484 l-34 23 -557 0 -557 0 -34 -23z"/>
<path d="M3878 979 c-23 -12 -46 -35 -58 -59 -19 -37 -20 -58 -20 -420 0 -362
1 -383 20 -420 13 -26 34 -47 60 -60 38 -19 58 -20 580 -20 522 0 542 1 580
20 26 13 47 34 60 60 19 37 20 58 20 420 0 362 -1 383 -20 420 -13 26 -34 47
-60 60 -38 19 -57 20 -582 20 -521 -1 -545 -2 -580 -21z"/>
</g>
</svg>
