<?xml version="1.0" encoding="UTF-8"?>
<!DOCTYPE svg PUBLIC "-//W3C//DTD SVG 1.1//EN" "http://www.w3.org/Graphics/SVG/1.1/DTD/svg11.dtd">
<svg xmlns="http://www.w3.org/2000/svg" version="1.1" width="512px" height="512px" style="shape-rendering:geometricPrecision; text-rendering:geometricPrecision; image-rendering:optimizeQuality; fill-rule:evenodd; clip-rule:evenodd" xmlns:xlink="http://www.w3.org/1999/xlink">
<g fill="#3FB8AF" stroke="none">
<path d="M 88.5,-0.5 C 98.5,-0.5 108.5,-0.5 118.5,-0.5C 138.536,2.56356 157.869,8.3969 176.5,17C 204.505,30.6581 230.838,46.8248 255.5,65.5C 288.027,39.7289 324.027,19.8956 363.5,6C 373.195,3.32272 382.862,1.15605 392.5,-0.5C 402.5,-0.5 412.5,-0.5 422.5,-0.5C 455.096,5.38978 480.263,22.3898 498,50.5C 504.823,62.4774 509.323,75.1441 511.5,88.5C 511.5,98.5 511.5,108.5 511.5,118.5C 508.435,138.54 502.601,157.874 494,176.5C 480.342,204.505 464.175,230.838 445.5,255.5C 471.271,288.027 491.104,324.027 505,363.5C 507.516,372.889 509.683,382.222 511.5,391.5C 511.5,401.833 511.5,412.167 511.5,422.5C 505.61,455.096 488.61,480.263 460.5,498C 448.523,504.823 435.856,509.323 422.5,511.5C 412.167,511.5 401.833,511.5 391.5,511.5C 355.161,504.436 321.495,490.602 290.5,470C 278.484,462.326 266.817,454.159 255.5,445.5C 222.973,471.271 186.973,491.104 147.5,505C 138.138,507.635 128.805,509.802 119.5,511.5C 109.167,511.5 98.8333,511.5 88.5,511.5C 48.7317,503.674 20.8983,481.008 5,443.5C 2.70496,436.486 0.871627,429.486 -0.5,422.5C -0.5,412.167 -0.5,401.833 -0.5,391.5C 6.64453,355.195 20.4779,321.528 41,290.5C 48.6742,278.484 56.8409,266.817 65.5,255.5C 39.7289,222.973 19.8956,186.973 6,147.5C 3.48423,138.113 1.31756,128.779 -0.5,119.5C -0.5,109.167 -0.5,98.8333 -0.5,88.5C 5.38978,55.9036 22.3898,30.7369 50.5,13C 62.4774,6.17674 75.1441,1.67674 88.5,-0.5 Z M 93.5,43.5 C 114.45,42.3899 134.45,46.2233 153.5,55C 177.325,65.4003 199.325,78.567 219.5,94.5C 174.833,133.167 133.167,174.833 94.5,219.5C 73.4696,192.782 57.6363,163.115 47,130.5C 42.0077,113.359 42.341,96.3588 48,79.5C 57.47,60.1863 72.6367,48.1863 93.5,43.5 Z M 395.5,43.5 C 426.395,40.1926 448.895,52.1926 463,79.5C 467.719,93.2117 468.719,107.212 466,121.5C 460.245,145.342 450.911,167.675 438,188.5C 431.314,199.219 424.147,209.553 416.5,219.5C 377.833,174.833 336.167,133.167 291.5,94.5C 322.192,69.4879 356.858,52.4879 395.5,43.5 Z M 253.5,122.5 C 254.873,122.343 256.207,122.51 257.5,123C 305.081,163.413 348.747,207.58 388.5,255.5C 357.882,292.959 324.548,328.126 288.5,361C 277.912,370.763 266.912,379.93 255.5,388.5C 218.041,357.882 182.874,324.548 150,288.5C 140.237,277.912 131.07,266.912 122.5,255.5C 126.413,250.027 130.58,244.693 135,239.5C 172.096,197.903 211.596,158.903 253.5,122.5 Z M 93.5,291.5 C 132.437,335.436 174.103,376.769 218.5,415.5C 219.711,416.274 219.711,417.107 218.5,418C 195.229,434.903 170.229,448.903 143.5,460C 125.707,467.133 107.374,469.133 88.5,466C 55.0364,454.49 40.2031,430.99 44,395.5C 47.8178,374.714 54.8178,355.048 65,336.5C 73.9339,321.082 83.4339,306.082 93.5,291.5 Z M 415.5,291.5 C 417.74,292.568 419.574,294.234 421,296.5C 434.45,315.724 446.117,336.057 456,357.5C 464.811,376.219 468.477,395.886 467,416.5C 458.082,453.389 434.582,470.222 396.5,467C 379.803,464.212 363.803,459.212 348.5,452C 328.282,441.914 309.282,430.081 291.5,416.5C 336.222,378.112 377.555,336.445 415.5,291.5 Z"/>
<path d="M 247.5,212.5 C 282.307,211.807 299.14,228.807 298,263.5C 290.864,288.997 274.031,300.497 247.5,298C 222.003,290.864 210.503,274.031 213,247.5C 217.348,228.653 228.848,216.986 247.5,212.5 Z"/>
</g>
</svg>
