<?xml version="1.0" encoding="UTF-8"?>
<!DOCTYPE svg PUBLIC "-//W3C//DTD SVG 1.1//EN" "http://www.w3.org/Graphics/SVG/1.1/DTD/svg11.dtd">
<svg xmlns="http://www.w3.org/2000/svg" version="1.1" width="512px" height="512px" style="shape-rendering:geometricPrecision; text-rendering:geometricPrecision; image-rendering:optimizeQuality; fill-rule:evenodd; clip-rule:evenodd" xmlns:xlink="http://www.w3.org/1999/xlink">
<g fill="#1e8326" stroke="none">
<path d="M 511.5,186.5 C 511.5,194.5 511.5,202.5 511.5,210.5C 504.655,244.647 484.322,266.147 450.5,275C 440.173,276.603 429.839,276.937 419.5,276C 396.157,317.339 360.824,335.339 313.5,330C 293.929,326.131 276.762,317.631 262,304.5C 226.892,325.309 191.725,325.475 156.5,305C 146.078,297.914 136.912,289.414 129,279.5C 85.9458,292.489 49.6125,282.155 20,248.5C 9.15944,234.125 2.32611,218.125 -0.5,200.5C -0.5,191.5 -0.5,182.5 -0.5,173.5C 9.90296,124.103 40.2363,96.1029 90.5,89.5C 96.902,61.8625 112.235,40.6958 136.5,26C 174.687,6.62942 211.353,9.29609 246.5,34C 252.667,38.8333 258.167,44.3333 263,50.5C 293.553,26.2561 327.719,19.4227 365.5,30C 408.863,45.5291 434.196,76.0291 441.5,121.5C 479.647,127.317 502.98,148.983 511.5,186.5 Z"/>
<path d="M 99.5,330.5 C 111.664,348.493 121.498,367.826 129,388.5C 132.388,411.121 122.721,424.121 100,427.5C 78.3798,424.595 68.3798,412.261 70,390.5C 77.4628,369.242 87.2961,349.242 99.5,330.5 Z"/>
<path d="M 254.5,330.5 C 257.465,333.324 259.965,336.657 262,340.5C 268.255,352.01 274.255,363.677 280,375.5C 282.989,382.464 285.156,389.63 286.5,397C 284.301,415.365 273.968,425.532 255.5,427.5C 236.849,425.516 226.516,415.183 224.5,396.5C 225.957,389.294 228.124,382.294 231,375.5C 238.349,360.131 246.182,345.131 254.5,330.5 Z"/>
<path d="M 410.5,330.5 C 422.916,347.994 432.749,366.994 440,387.5C 443.867,410.635 434.2,423.968 411,427.5C 392.597,425.264 382.431,414.931 380.5,396.5C 381.892,388.158 384.392,380.158 388,372.5C 395.258,358.314 402.758,344.314 410.5,330.5 Z"/>
<path d="M 176.5,401.5 C 179.346,403.475 181.513,406.141 183,409.5C 188.333,419.5 193.667,429.5 199,439.5C 203.263,448.457 206.43,457.79 208.5,467.5C 206.516,486.151 196.183,496.484 177.5,498.5C 154.064,494.558 144.564,480.892 149,457.5C 156.865,438.104 166.032,419.437 176.5,401.5 Z"/>
<path d="M 332.5,401.5 C 344.613,418.715 354.446,437.382 362,457.5C 366.425,480.901 356.925,494.568 333.5,498.5C 310.585,495.32 300.751,482.32 304,459.5C 311.671,439.16 321.171,419.826 332.5,401.5 Z"/>
</g>
</svg>
