<?xml version="1.0" encoding="UTF-8"?>
<!DOCTYPE svg PUBLIC "-//W3C//DTD SVG 1.1//EN" "http://www.w3.org/Graphics/SVG/1.1/DTD/svg11.dtd">
<svg xmlns="http://www.w3.org/2000/svg" version="1.1" width="512px" height="512px" style="shape-rendering:geometricPrecision; text-rendering:geometricPrecision; image-rendering:optimizeQuality; fill-rule:evenodd; clip-rule:evenodd" xmlns:xlink="http://www.w3.org/1999/xlink">
<g fill="#3FB8AF" stroke="none">
<path d="M 301.5,-0.5 C 314.167,-0.5 326.833,-0.5 339.5,-0.5C 412.432,9.88267 464.265,48.5493 495,115.5C 520.291,184.797 510.624,248.797 466,307.5C 442.373,335.278 413.207,354.945 378.5,366.5C 375.399,378.338 373.066,390.338 371.5,402.5C 281.833,402.5 192.167,402.5 102.5,402.5C 86.5,338.5 70.5,274.5 54.5,210.5C 36.8333,210.5 19.1667,210.5 1.5,210.5C 1.17887,198.919 1.51221,187.419 2.5,176C 28.8312,175.5 55.1646,175.333 81.5,175.5C 85.1683,190.84 88.835,206.173 92.5,221.5C 106.833,221.5 121.167,221.5 135.5,221.5C 124.579,143.372 150.246,80.5386 212.5,33C 239.508,14.6107 269.175,3.444 301.5,-0.5 Z M 302.5,39.5 C 303.496,55.3246 303.83,71.3246 303.5,87.5C 291.918,87.2445 280.585,85.7445 269.5,83C 277.003,65.6873 288.003,51.1873 302.5,39.5 Z M 338.5,40.5 C 344.695,44.1824 350.195,48.8491 355,54.5C 362.039,63.6926 367.539,73.6926 371.5,84.5C 360.533,85.83 349.533,86.83 338.5,87.5C 338.5,71.8333 338.5,56.1667 338.5,40.5 Z M 397.5,54.5 C 405.33,58.9191 412.663,64.0858 419.5,70C 415.516,72.218 411.35,74.0513 407,75.5C 403.731,68.5176 400.564,61.5176 397.5,54.5 Z M 243.5,55.5 C 241.395,61.7141 238.728,67.7141 235.5,73.5C 230.807,74.1092 226.474,72.9425 222.5,70C 228.848,64.1403 235.848,59.307 243.5,55.5 Z M 196.5,97.5 C 205.603,101.814 214.936,105.648 224.5,109C 219.127,128.776 216.127,148.943 215.5,169.5C 199.833,169.5 184.167,169.5 168.5,169.5C 171.756,143.054 181.089,119.054 196.5,97.5 Z M 444.5,97.5 C 460.472,118.799 469.805,142.799 472.5,169.5C 457.167,169.5 441.833,169.5 426.5,169.5C 425.299,149.224 422.299,129.224 417.5,109.5C 426.677,105.741 435.677,101.741 444.5,97.5 Z M 257.5,117.5 C 272.74,119.988 288.074,121.655 303.5,122.5C 303.5,138.167 303.5,153.833 303.5,169.5C 285.833,169.5 268.167,169.5 250.5,169.5C 251.339,151.96 253.672,134.627 257.5,117.5 Z M 379.5,117.5 C 380.978,117.238 382.311,117.571 383.5,118.5C 387.842,135.227 390.509,152.227 391.5,169.5C 373.833,169.5 356.167,169.5 338.5,169.5C 338.5,153.833 338.5,138.167 338.5,122.5C 352.452,122.047 366.119,120.381 379.5,117.5 Z M 168.5,204.5 C 184.167,204.5 199.833,204.5 215.5,204.5C 215.532,210.189 215.866,215.855 216.5,221.5C 201.496,221.667 186.496,221.5 171.5,221C 169.993,215.622 168.993,210.122 168.5,204.5 Z M 250.5,204.5 C 268.167,204.5 285.833,204.5 303.5,204.5C 303.5,209.833 303.5,215.167 303.5,220.5C 286.146,220.254 268.813,220.587 251.5,221.5C 250.968,215.848 250.635,210.181 250.5,204.5 Z M 338.5,204.5 C 356.167,204.5 373.833,204.5 391.5,204.5C 390.806,209.805 390.472,215.138 390.5,220.5C 373.167,220.5 355.833,220.5 338.5,220.5C 338.5,215.167 338.5,209.833 338.5,204.5 Z M 426.5,204.5 C 442.17,204.333 457.837,204.5 473.5,205C 469.911,231.779 460.078,255.946 444,277.5C 435.84,273.223 427.34,269.723 418.5,267C 417.978,266.439 417.645,265.772 417.5,265C 422.423,245.119 425.423,224.952 426.5,204.5 Z M 101.5,255.5 C 188.5,255.5 275.5,255.5 362.5,255.5C 355.833,292.833 349.167,330.167 342.5,367.5C 271.833,367.667 201.166,367.5 130.5,367C 120.758,329.865 111.091,292.698 101.5,255.5 Z M 397.5,319.5 C 400.431,313.301 403.098,306.968 405.5,300.5C 410.227,300.909 414.56,302.409 418.5,305C 412.167,310.83 405.167,315.664 397.5,319.5 Z"/>
<path d="M 337.5,511.5 C 330.833,511.5 324.167,511.5 317.5,511.5C 285.523,501.178 272.857,479.511 279.5,446.5C 251.175,445.5 222.841,445.167 194.5,445.5C 200.868,478.792 188.201,500.792 156.5,511.5C 149.5,511.5 142.5,511.5 135.5,511.5C 101.345,499.139 89.5117,475.472 100,440.5C 107.37,425.465 119.204,415.965 135.5,412C 169.144,410.866 202.81,410.366 236.5,410.5C 267.167,410.667 297.833,410.833 328.5,411C 358.919,414.252 375.253,431.085 377.5,461.5C 376.944,481.116 368.278,495.949 351.5,506C 346.839,508.151 342.172,509.984 337.5,511.5 Z M 144.5,445.5 C 159.667,447.834 164.5,456.167 159,470.5C 151.791,478.273 143.957,479.106 135.5,473C 129.508,466.228 129.008,459.061 134,451.5C 137.069,448.554 140.569,446.554 144.5,445.5 Z M 325.5,445.5 C 335.536,446.199 341.536,451.532 343.5,461.5C 339.775,475.363 331.442,479.53 318.5,474C 309.064,465.037 309.397,456.37 319.5,448C 321.611,447.155 323.611,446.322 325.5,445.5 Z"/>
</g>
</svg>
