<?xml version="1.0" standalone="no"?>
<!DOCTYPE svg PUBLIC "-//W3C//DTD SVG 20010904//EN"
 "http://www.w3.org/TR/2001/REC-SVG-20010904/DTD/svg10.dtd">
<svg version="1.0" xmlns="http://www.w3.org/2000/svg"
 width="512.000000pt" height="512.000000pt" viewBox="0 0 512.000000 512.000000"
 preserveAspectRatio="xMidYMid meet">

<g transform="translate(0.000000,512.000000) scale(0.100000,-0.100000)"
fill="#c55656" stroke="none">
<path d="M2370 5113 c-379 -36 -661 -116 -980 -278 -399 -203 -764 -541 -1010
-935 -179 -286 -309 -655 -362 -1025 -17 -118 -17 -512 0 -630 42 -295 120
-553 242 -800 137 -280 272 -468 494 -691 221 -220 412 -357 681 -489 188 -92
309 -137 500 -185 500 -126 1002 -102 1490 71 149 53 407 182 540 271 299 199
573 480 769 788 72 113 188 353 235 486 235 662 194 1372 -115 1993 -124 250
-263 447 -458 648 -216 224 -428 378 -711 518 -296 146 -572 225 -900 255
-102 9 -333 11 -415 3z m314 -435 c-5 -7 -72 -111 -151 -231 -80 -123 -145
-233 -149 -253 -11 -61 6 -106 101 -264 122 -204 125 -211 125 -269 0 -63 -13
-97 -53 -140 -41 -43 -84 -61 -145 -61 -39 0 -74 12 -182 65 -189 92 -209 89
-338 -38 -95 -94 -112 -120 -112 -176 0 -64 16 -91 108 -185 129 -131 142
-136 377 -136 197 0 292 -13 357 -46 83 -43 611 -379 640 -407 60 -61 90 -166
69 -245 -17 -62 -498 -1101 -528 -1141 -39 -51 -113 -81 -201 -81 -84 0 -132
17 -180 63 -67 64 -66 60 -72 412 -5 307 -6 322 -28 370 -16 36 -69 97 -186
215 -212 215 -209 210 -216 440 -5 167 -6 177 -31 220 -34 57 -137 156 -186
178 -32 14 -84 17 -318 22 -271 5 -281 6 -325 29 -40 21 -119 98 -370 364
l-64 68 43 87 c167 338 477 663 823 866 319 186 672 283 1041 285 124 1 157
-2 151 -11z m1783 -1169 c143 -286 210 -554 220 -879 5 -158 -6 -352 -20 -367
-2 -2 -124 55 -270 127 -235 116 -271 137 -310 180 -51 56 -56 73 -147 440
-69 275 -71 314 -23 402 33 61 55 77 265 198 l172 100 30 -48 c16 -26 53 -95
83 -153z"/>
</g>
</svg>
