<?xml version="1.0" encoding="UTF-8"?>
<!DOCTYPE svg PUBLIC "-//W3C//DTD SVG 1.1//EN" "http://www.w3.org/Graphics/SVG/1.1/DTD/svg11.dtd">
<svg xmlns="http://www.w3.org/2000/svg" version="1.1" width="512px" height="512px" style="shape-rendering:geometricPrecision; text-rendering:geometricPrecision; image-rendering:optimizeQuality; fill-rule:evenodd; clip-rule:evenodd" xmlns:xlink="http://www.w3.org/1999/xlink">
<g fill="#1e8326" stroke="none">
<path d="M 135.5,33.5 C 156.1,34.211 176.1,38.0444 195.5,45C 207.535,49.9374 217.702,57.4374 226,67.5C 239.1,83.6932 249.1,101.693 256,121.5C 266.191,96.9283 280.024,74.7617 297.5,55C 310.264,46.4088 324.264,40.7421 339.5,38C 350.095,36.0089 360.762,34.5089 371.5,33.5C 379.675,34.0074 383.675,38.3407 383.5,46.5C 382.334,66.4972 378.167,85.8305 371,104.5C 365.65,116.51 357.483,126.01 346.5,133C 322.921,145.582 297.921,154.082 271.5,158.5C 271.667,191.502 271.5,224.502 271,257.5C 267.279,262.879 262.112,264.879 255.5,263.5C 248.888,264.879 243.721,262.879 240,257.5C 239.5,224.502 239.333,191.502 239.5,158.5C 213.113,154.093 188.113,145.593 164.5,133C 153.517,126.01 145.35,116.51 140,104.5C 131.345,83.2379 127.679,61.2379 129,38.5C 130.965,36.4497 133.132,34.783 135.5,33.5 Z"/>
<path d="M 66.5,156.5 C 91.4998,154.907 108,165.907 116,189.5C 117.767,211.804 117.934,234.137 116.5,256.5C 97.212,275.655 91.712,298.322 100,324.5C 101.623,328.71 103.623,332.71 106,336.5C 119.456,353.624 133.289,370.458 147.5,387C 153.042,390.301 159.042,391.301 165.5,390C 167.869,389.464 169.869,388.297 171.5,386.5C 156.147,366.468 140.313,346.801 124,327.5C 115.667,313.864 114.334,299.53 120,284.5C 131.816,264.185 148.983,257.685 171.5,265C 174.661,266.413 177.661,268.08 180.5,270C 199.804,291.632 217.971,314.132 235,337.5C 239.136,345.772 242.136,354.439 244,363.5C 245.106,380.804 245.606,398.137 245.5,415.5C 245.333,430.167 245.167,444.833 245,459.5C 242.833,469 237,474.833 227.5,477C 189.833,477.667 152.167,477.667 114.5,477C 102.397,475.532 92.5638,470.032 85,460.5C 70,435.5 55,410.5 40,385.5C 36.1243,377.206 33.4576,368.54 32,359.5C 31.3333,302.833 31.3333,246.167 32,189.5C 37.2223,171.775 48.7223,160.775 66.5,156.5 Z"/>
<path d="M 428.5,156.5 C 454.681,154.211 471.514,165.544 479,190.5C 479.667,246.833 479.667,303.167 479,359.5C 477.542,368.54 474.876,377.206 471,385.5C 456,410.5 441,435.5 426,460.5C 418.436,470.032 408.603,475.532 396.5,477C 357.453,477.976 318.453,477.643 279.5,476C 272.053,472.952 267.553,467.452 266,459.5C 265.333,430.167 265.333,400.833 266,371.5C 267.691,354.419 273.691,339.086 284,325.5C 299.124,306.707 314.624,288.207 330.5,270C 349.059,258.201 366.726,259.368 383.5,273.5C 393.737,285.453 396.904,299.12 393,314.5C 391.804,319.223 389.804,323.557 387,327.5C 370.687,346.801 354.853,366.468 339.5,386.5C 351.309,393.328 361.476,391.328 370,380.5C 380.76,366.65 391.76,352.984 403,339.5C 417.583,316.255 418.249,292.589 405,268.5C 402.197,263.898 398.697,259.898 394.5,256.5C 393.334,236.175 393.167,215.842 394,195.5C 397.255,175.085 408.755,162.085 428.5,156.5 Z"/>
</g>
</svg>
