<?xml version="1.0" encoding="UTF-8"?>
<!DOCTYPE svg PUBLIC "-//W3C//DTD SVG 1.1//EN" "http://www.w3.org/Graphics/SVG/1.1/DTD/svg11.dtd">
<svg xmlns="http://www.w3.org/2000/svg" version="1.1" width="512px" height="512px" style="shape-rendering:geometricPrecision; text-rendering:geometricPrecision; image-rendering:optimizeQuality; fill-rule:evenodd; clip-rule:evenodd" xmlns:xlink="http://www.w3.org/1999/xlink">
<g fill="#c55656" stroke="none">
<path d="M 245.5,-0.5 C 252.167,-0.5 258.833,-0.5 265.5,-0.5C 291.071,6.75605 305.071,23.7561 307.5,50.5C 307.099,62.2069 303.432,72.7069 296.5,82C 322.646,96.1263 334.146,117.96 331,147.5C 329.062,150.106 326.562,151.939 323.5,153C 278.167,153.667 232.833,153.667 187.5,153C 180.399,150.466 177.399,145.466 178.5,138C 180.189,112.605 192.189,93.9388 214.5,82C 199.165,58.6686 200.332,36.1686 218,14.5C 226.017,7.24428 235.184,2.24428 245.5,-0.5 Z"/>
<path d="M 153.5,74.5 C 168.231,77.2009 171.898,85.0342 164.5,98C 100.999,132.55 63.4989,185.716 52,257.5C 46.925,263.472 40.7583,264.972 33.5,262C 28.8086,258.949 26.8086,254.615 27.5,249C 37.8913,180.514 71.558,126.848 128.5,88C 136.54,82.7539 144.874,78.2539 153.5,74.5 Z"/>
<path d="M 353.5,74.5 C 356.216,74.6785 358.883,75.1785 361.5,76C 430.573,113.44 471.24,171.107 483.5,249C 483.139,260.022 477.472,264.689 466.5,263C 463.438,261.939 460.938,260.106 459,257.5C 447.501,185.716 410.001,132.55 346.5,98C 339.662,87.3513 341.996,79.518 353.5,74.5 Z"/>
<path d="M -0.5,427.5 C -0.5,421.833 -0.5,416.167 -0.5,410.5C 4.38562,389.594 16.3856,374.094 35.5,364C 21.8937,344.427 21.0604,324.26 33,303.5C 52.3646,279.826 75.8646,274.659 103.5,288C 126.15,304.29 132.984,325.79 124,352.5C 122.337,356.496 120.171,360.163 117.5,363.5C 142.008,376.842 153.841,397.509 153,425.5C 151.681,431.076 148.181,434.243 142.5,435C 98.5,435.667 54.5,435.667 10.5,435C 5.58239,434.236 1.91572,431.736 -0.5,427.5 Z"/>
<path d="M 511.5,410.5 C 511.5,416.167 511.5,421.833 511.5,427.5C 509.084,431.736 505.418,434.236 500.5,435C 456.5,435.667 412.5,435.667 368.5,435C 360.816,432.831 357.149,427.664 357.5,419.5C 359.417,394.268 371.417,375.601 393.5,363.5C 384.359,350.929 381.192,336.929 384,321.5C 388.46,302.373 399.96,289.54 418.5,283C 442.932,276.699 462.765,283.532 478,303.5C 489.94,324.26 489.106,344.427 475.5,364C 494.614,374.094 506.614,389.594 511.5,410.5 Z"/>
<path d="M 276.5,511.5 C 262.5,511.5 248.5,511.5 234.5,511.5C 203.666,508.059 174.333,499.226 146.5,485C 137.575,477.657 137.241,469.99 145.5,462C 147.866,460.767 150.366,459.934 153,459.5C 163.325,463.245 173.492,467.412 183.5,472C 242.519,492.158 299.852,488.158 355.5,460C 369.139,460.774 373.639,467.607 369,480.5C 367.5,482 366,483.5 364.5,485C 336.667,499.226 307.334,508.059 276.5,511.5 Z"/>
</g>
</svg>
