<?xml version="1.0" encoding="UTF-8"?>
<!DOCTYPE svg PUBLIC "-//W3C//DTD SVG 1.1//EN" "http://www.w3.org/Graphics/SVG/1.1/DTD/svg11.dtd">
<svg xmlns="http://www.w3.org/2000/svg" version="1.1" width="512px" height="512px" style="shape-rendering:geometricPrecision; text-rendering:geometricPrecision; image-rendering:optimizeQuality; fill-rule:evenodd; clip-rule:evenodd" xmlns:xlink="http://www.w3.org/1999/xlink">
<g fill="#3FB8AF" stroke="none">
<path d="M 178.5,-0.5 C 193.5,-0.5 208.5,-0.5 223.5,-0.5C 225.475,0.646381 226.975,2.31305 228,4.5C 228.03,28.2296 228.696,51.8963 230,75.5C 235.486,81.0804 240.486,80.747 245,74.5C 246.285,59.5676 246.952,44.5676 247,29.5C 259.396,33.5767 271.229,38.91 282.5,45.5C 283.333,73.8275 283.833,102.161 284,130.5C 289.256,138.224 294.59,138.224 300,130.5C 300.167,106.493 300.667,82.4931 301.5,58.5C 339.83,89.1515 360.83,129.152 364.5,178.5C 341.488,185.559 318.488,192.726 295.5,200C 209.167,200.5 122.834,200.667 36.5,200.5C 34.707,143.273 55.3736,96.1063 98.5,59C 99.448,58.5172 100.448,58.3505 101.5,58.5C 101.333,82.8356 101.5,107.169 102,131.5C 108.131,138.135 113.464,137.469 118,129.5C 118.333,101.5 118.667,73.5 119,45.5C 130.38,38.8107 142.38,33.4774 155,29.5C 155.333,43.8333 155.667,58.1667 156,72.5C 158.49,79.1596 162.99,80.993 169.5,78C 171.317,76.2002 172.484,74.0336 173,71.5C 173.333,49.1667 173.667,26.8333 174,4.5C 175.025,2.31305 176.525,0.646381 178.5,-0.5 Z"/>
<path d="M 511.5,163.5 C 511.5,165.5 511.5,167.5 511.5,169.5C 485.07,251.294 458.903,333.294 433,415.5C 428.918,422.416 423.085,424.582 415.5,422C 384.776,411.311 356.776,395.978 331.5,376C 349.625,356.874 368.125,338.041 387,319.5C 395.182,304.484 392.682,291.317 379.5,280C 367.5,271.333 355.5,271.333 343.5,280C 325.333,298.167 307.167,316.333 289,334.5C 267.842,307.352 252.342,277.186 242.5,244C 242.427,239.142 244.427,235.475 248.5,233C 330.12,206.845 411.786,180.845 493.5,155C 502.132,152.819 508.132,155.652 511.5,163.5 Z"/>
<path d="M -0.5,275.5 C -0.5,258.5 -0.5,241.5 -0.5,224.5C 1.39512,221.443 4.06178,219.277 7.5,218C 84.8355,217.167 162.169,217.333 239.5,218.5C 224.778,229.59 221.278,243.59 229,260.5C 231.736,267.54 234.569,274.54 237.5,281.5C 160.169,282.667 82.8355,282.833 5.5,282C 2.68648,280.506 0.686482,278.34 -0.5,275.5 Z"/>
<path d="M 358.5,290.5 C 364.765,289.866 369.599,292.2 373,297.5C 374.504,301.039 374.837,304.705 374,308.5C 345.5,337 317,365.5 288.5,394C 287.833,394.667 287.167,394.667 286.5,394C 281.333,388.833 276.167,383.667 271,378.5C 270.333,377.833 270.333,377.167 271,376.5C 299.757,347.242 328.923,318.575 358.5,290.5 Z"/>
<path d="M 183.5,511.5 C 179.5,511.5 175.5,511.5 171.5,511.5C 164.971,507.813 159.471,502.813 155,496.5C 152.737,489.995 153.071,483.662 156,477.5C 187.68,445.653 219.514,413.986 251.5,382.5C 261.819,392.319 271.986,402.319 282,412.5C 282.667,413.5 282.667,414.5 282,415.5C 251.167,446.333 220.333,477.167 189.5,508C 187.568,509.459 185.568,510.625 183.5,511.5 Z"/>
</g>
</svg>
