<?xml version="1.0" encoding="UTF-8"?>
<!DOCTYPE svg PUBLIC "-//W3C//DTD SVG 1.1//EN" "http://www.w3.org/Graphics/SVG/1.1/DTD/svg11.dtd">
<svg xmlns="http://www.w3.org/2000/svg" version="1.1" width="512px" height="512px" style="shape-rendering:geometricPrecision; text-rendering:geometricPrecision; image-rendering:optimizeQuality; fill-rule:evenodd; clip-rule:evenodd" xmlns:xlink="http://www.w3.org/1999/xlink">
<g fill="#3FB8AF" stroke="none">
<path d="M 97.5,14.5 C 202.834,14.3333 308.167,14.5 413.5,15C 428.329,19.8273 436.495,29.994 438,45.5C 438.667,185.833 438.667,326.167 438,466.5C 436.03,481.471 427.864,491.304 413.5,496C 308.5,496.667 203.5,496.667 98.5,496C 83.5477,491.716 75.0477,481.883 73,466.5C 72.3333,325.833 72.3333,185.167 73,44.5C 75.1358,29.5346 83.3024,19.5346 97.5,14.5 Z M 132.5,60.5 C 215.557,60.0083 298.557,60.5083 381.5,62C 385.719,64.552 388.886,68.052 391,72.5C 391.972,98.2292 391.639,123.896 390,149.5C 387.16,155.004 382.66,158.171 376.5,159C 294.456,159.989 212.456,159.655 130.5,158C 125.243,155.744 121.743,151.91 120,146.5C 119.333,121.833 119.333,97.1667 120,72.5C 122.769,66.8947 126.936,62.8947 132.5,60.5 Z M 142.5,209.5 C 154.505,209.333 166.505,209.5 178.5,210C 185.167,210.414 189,213.914 190,220.5C 190.667,231.833 190.667,243.167 190,254.5C 189.285,259.105 186.785,262.271 182.5,264C 167.833,264.667 153.167,264.667 138.5,264C 136.376,262.878 134.543,261.378 133,259.5C 131.369,245.594 131.036,231.594 132,217.5C 134.271,213.044 137.771,210.378 142.5,209.5 Z M 237.5,209.5 C 249.505,209.333 261.505,209.5 273.5,210C 280.625,210.458 284.458,214.291 285,221.5C 285.667,232.167 285.667,242.833 285,253.5C 284.588,257.491 282.754,260.658 279.5,263C 264.259,264.634 248.926,264.968 233.5,264C 229.056,261.889 226.556,258.389 226,253.5C 225.333,242.833 225.333,232.167 226,221.5C 226.678,214.324 230.511,210.324 237.5,209.5 Z M 332.5,209.5 C 346.218,209.094 359.885,209.594 373.5,211C 375,212.5 376.5,214 378,215.5C 379.631,229.406 379.964,243.406 379,257.5C 377.878,259.624 376.378,261.457 374.5,263C 359.259,264.634 343.926,264.968 328.5,264C 323.908,261.978 321.408,258.478 321,253.5C 320.333,242.833 320.333,232.167 321,221.5C 321.678,214.324 325.511,210.324 332.5,209.5 Z M 139.5,300.5 C 153.504,300.333 167.504,300.5 181.5,301C 186.071,302.573 188.904,305.74 190,310.5C 190.667,321.833 190.667,333.167 190,344.5C 189.285,350.215 186.118,353.715 180.5,355C 167.167,355.667 153.833,355.667 140.5,355C 136.501,354.332 133.668,352.165 132,348.5C 131.333,334.833 131.333,321.167 132,307.5C 133.767,304.228 136.267,301.895 139.5,300.5 Z M 234.5,300.5 C 248.504,300.333 262.504,300.5 276.5,301C 281.522,302.692 284.355,306.192 285,311.5C 285.894,323.882 285.561,336.215 284,348.5C 282.332,352.165 279.499,354.332 275.5,355C 262.167,355.667 248.833,355.667 235.5,355C 229.417,353.583 226.251,349.75 226,343.5C 225.333,332.833 225.333,322.167 226,311.5C 226.843,306.172 229.677,302.505 234.5,300.5 Z M 329.5,300.5 C 343.504,300.333 357.504,300.5 371.5,301C 374.196,301.69 376.363,303.19 378,305.5C 379.632,319.74 379.965,334.073 379,348.5C 377.332,352.165 374.499,354.332 370.5,355C 357.167,355.667 343.833,355.667 330.5,355C 324.882,353.715 321.715,350.215 321,344.5C 320.333,333.5 320.333,322.5 321,311.5C 321.843,306.172 324.677,302.505 329.5,300.5 Z M 140.5,390.5 C 153.837,390.333 167.171,390.5 180.5,391C 186.118,392.285 189.285,395.785 190,401.5C 190.667,412.833 190.667,424.167 190,435.5C 189.3,439.066 187.467,441.9 184.5,444C 169.593,445.633 154.593,445.967 139.5,445C 136.804,444.31 134.637,442.81 133,440.5C 131.368,426.26 131.035,411.927 132,397.5C 133.851,393.843 136.684,391.51 140.5,390.5 Z M 235.5,390.5 C 248.837,390.333 262.171,390.5 275.5,391C 281.583,392.417 284.749,396.25 285,402.5C 285.667,413.167 285.667,423.833 285,434.5C 284.588,438.491 282.754,441.658 279.5,444C 264.259,445.634 248.926,445.968 233.5,445C 229.056,442.889 226.556,439.389 226,434.5C 225.333,423.833 225.333,413.167 226,402.5C 226.445,396.233 229.612,392.233 235.5,390.5 Z M 330.5,390.5 C 343.837,390.333 357.171,390.5 370.5,391C 373.548,391.606 376.048,393.106 378,395.5C 379.632,409.74 379.965,424.073 379,438.5C 377.878,440.624 376.378,442.457 374.5,444C 359.235,445.619 343.901,445.952 328.5,445C 324.056,442.889 321.556,439.389 321,434.5C 320.333,423.5 320.333,412.5 321,401.5C 321.904,395.77 325.071,392.103 330.5,390.5 Z"/>
</g>
</svg>
