<?xml version="1.0" encoding="UTF-8"?>
<!DOCTYPE svg PUBLIC "-//W3C//DTD SVG 1.1//EN" "http://www.w3.org/Graphics/SVG/1.1/DTD/svg11.dtd">
<svg xmlns="http://www.w3.org/2000/svg" version="1.1" width="512px" height="512px" style="shape-rendering:geometricPrecision; text-rendering:geometricPrecision; image-rendering:optimizeQuality; fill-rule:evenodd; clip-rule:evenodd" xmlns:xlink="http://www.w3.org/1999/xlink">
<g fill="#c55656" stroke="none">
<path d="M 511.5,69.5 C 511.5,73.8333 511.5,78.1667 511.5,82.5C 506.472,104.971 501.805,127.637 497.5,150.5C 336.5,150.667 175.5,150.5 14.5,150C 6.89554,140.296 1.89554,129.462 -0.5,117.5C -0.5,111.5 -0.5,105.5 -0.5,99.5C 4.08125,91.2221 11.0812,88.3888 20.5,91C 24.6667,92.5 27.5,95.3333 29,99.5C 29.581,107.741 31.2476,115.741 34,123.5C 36.5698,128.898 40.0698,133.565 44.5,137.5C 48.9302,133.565 52.4302,128.898 55,123.5C 57.5778,114.965 59.5778,106.298 61,97.5C 62.7648,94.527 65.2648,92.3604 68.5,91C 178.833,90.6667 289.167,90.3333 399.5,90C 409.231,79.5999 419.564,69.9333 430.5,61C 454.5,60.3333 478.5,60.3333 502.5,61C 506.685,62.6878 509.685,65.5212 511.5,69.5 Z"/>
<path d="M -0.5,180.5 C 163.501,180.167 327.501,180.5 491.5,181.5C 487.938,198.142 484.438,214.809 481,231.5C 479.5,235.667 476.667,238.5 472.5,240C 423.834,240.5 375.168,240.667 326.5,240.5C 319.839,262.316 312.673,283.982 305,305.5C 298.291,318.542 287.791,326.709 273.5,330C 241.168,330.5 208.835,330.667 176.5,330.5C 172.309,344.574 167.809,358.574 163,372.5C 159.598,384.369 160.265,396.036 165,407.5C 169.011,415.527 174.011,422.86 180,429.5C 182.311,437.674 180.144,444.174 173.5,449C 118.583,450.658 63.5827,450.991 8.5,450C 4.31481,448.312 1.31481,445.479 -0.5,441.5C -0.5,437.5 -0.5,433.5 -0.5,429.5C 16.7319,371.788 33.3985,313.788 49.5,255.5C 48.7171,249.097 45.3837,244.597 39.5,242C 29.2158,240.796 18.8824,240.13 8.5,240C 4.31481,238.312 1.31481,235.479 -0.5,231.5C -0.5,214.5 -0.5,197.5 -0.5,180.5 Z M 206.5,240.5 C 209.777,240.216 212.943,240.549 216,241.5C 225.117,260.235 234.617,278.735 244.5,297C 246.167,298 247.833,299 249.5,300C 228.836,300.5 208.169,300.667 187.5,300.5C 193.833,280.5 200.167,260.5 206.5,240.5 Z M 263.5,299.5 C 270.122,294.487 272.288,287.82 270,279.5C 263.628,266.589 257.128,253.755 250.5,241C 264.829,240.5 279.163,240.333 293.5,240.5C 288.173,258.315 282.339,275.982 276,293.5C 272.787,297.524 268.62,299.524 263.5,299.5 Z"/>
</g>
</svg>
