<?xml version="1.0" encoding="UTF-8"?>
<!DOCTYPE svg PUBLIC "-//W3C//DTD SVG 1.1//EN" "http://www.w3.org/Graphics/SVG/1.1/DTD/svg11.dtd">
<svg xmlns="http://www.w3.org/2000/svg" version="1.1" width="512px" height="512px" style="shape-rendering:geometricPrecision; text-rendering:geometricPrecision; image-rendering:optimizeQuality; fill-rule:evenodd; clip-rule:evenodd" xmlns:xlink="http://www.w3.org/1999/xlink">
<g fill="#c55656" stroke="none">
<path d="M 234.5,-0.5 C 249.167,-0.5 263.833,-0.5 278.5,-0.5C 367.752,10.5184 435.252,54.5184 481,131.5C 496.29,159.54 506.457,189.207 511.5,220.5C 511.5,244.5 511.5,268.5 511.5,292.5C 508.363,312.702 502.863,332.368 495,351.5C 482.494,370.337 465.327,376.504 443.5,370C 440.833,368.667 438.167,367.333 435.5,366C 424.882,354.356 412.216,345.69 397.5,340C 360.361,330.487 330.861,341.32 309,372.5C 301.426,385.463 297.592,399.463 297.5,414.5C 298.64,441.15 298.807,467.817 298,494.5C 294.6,504.407 287.767,510.073 277.5,511.5C 263.167,511.5 248.833,511.5 234.5,511.5C 148.976,501.173 83.143,459.84 37,387.5C -3.64824,315.43 -9.98157,240.43 18,162.5C 43.6372,98.196 87.8039,51.3627 150.5,22C 177.448,10.0983 205.448,2.59834 234.5,-0.5 Z M 261.5,106.5 C 286.325,107.156 298.159,119.822 297,144.5C 291.288,162.273 279.121,170.44 260.5,169C 242.751,163.904 234.251,152.071 235,133.5C 238.682,119.319 247.515,110.319 261.5,106.5 Z M 155.5,170.5 C 180.277,171.776 191.777,184.776 190,209.5C 184.114,227.029 171.947,234.863 153.5,233C 134.594,227.025 126.427,214.192 129,194.5C 133.332,181.326 142.165,173.326 155.5,170.5 Z M 368.5,170.5 C 387.851,170.355 399.685,179.689 404,198.5C 403.334,222.831 390.834,234.331 366.5,233C 348.727,227.288 340.56,215.121 342,196.5C 345.424,182.242 354.257,173.575 368.5,170.5 Z M 155.5,298.5 C 180.277,299.776 191.777,312.776 190,337.5C 184.114,355.029 171.947,362.863 153.5,361C 134.594,355.025 126.427,342.192 129,322.5C 133.332,309.326 142.165,301.326 155.5,298.5 Z"/>
</g>
</svg>
