<?xml version="1.0" encoding="UTF-8"?>
<!DOCTYPE svg PUBLIC "-//W3C//DTD SVG 1.1//EN" "http://www.w3.org/Graphics/SVG/1.1/DTD/svg11.dtd">
<svg xmlns="http://www.w3.org/2000/svg" version="1.1" width="512px" height="512px" style="shape-rendering:geometricPrecision; text-rendering:geometricPrecision; image-rendering:optimizeQuality; fill-rule:evenodd; clip-rule:evenodd" xmlns:xlink="http://www.w3.org/1999/xlink">
<g fill="#4189db" stroke="none">
<path d="M 8.5,-0.5 C 12.5,-0.5 16.5,-0.5 20.5,-0.5C 22.1513,0.970083 23.9847,2.30342 26,3.5C 46.4178,35.3374 67.0845,67.0041 88,98.5C 97.9321,127.463 107.765,156.463 117.5,185.5C 128.251,191.959 139.085,198.293 150,204.5C 151.232,242.486 169.065,269.319 203.5,285C 210.008,287.46 216.675,289.293 223.5,290.5C 229.25,302.277 235.083,313.943 241,325.5C 288.925,348.546 336.759,371.713 384.5,395C 385.667,396.833 386.833,398.667 388,400.5C 397.142,427.425 405.975,454.425 414.5,481.5C 443.835,481.333 473.169,481.5 502.5,482C 506.685,483.688 509.685,486.521 511.5,490.5C 511.5,494.5 511.5,498.5 511.5,502.5C 510.196,503.987 509.03,505.654 508,507.5C 505.985,508.697 504.151,510.03 502.5,511.5C 337.833,511.5 173.167,511.5 8.5,511.5C 7.01307,510.196 5.3464,509.03 3.5,508C 2.30342,505.985 0.970083,504.151 -0.5,502.5C -0.5,337.833 -0.5,173.167 -0.5,8.5C 0.803551,7.01307 1.97022,5.3464 3,3.5C 5.01533,2.30342 6.84866,0.970083 8.5,-0.5 Z"/>
<path d="M 183.5,51.5 C 189.969,50.5116 195.802,51.845 201,55.5C 210.6,71.7026 219.933,88.0359 229,104.5C 230.887,120.281 224.054,126.781 208.5,124C 205.898,123.117 203.731,121.617 202,119.5C 193,103.833 184,88.1667 175,72.5C 172.389,63.0812 175.222,56.0812 183.5,51.5 Z"/>
<path d="M 121.5,54.5 C 127.944,54.0653 133.11,56.3986 137,61.5C 145.919,76.3365 154.586,91.3365 163,106.5C 166.751,119.336 162.084,127.003 149,129.5C 143.832,128.749 139.498,126.415 136,122.5C 127.333,107.167 118.667,91.8333 110,76.5C 106.747,65.3365 110.58,58.0032 121.5,54.5 Z"/>
<path d="M 223.5,151.5 C 257.629,148.163 279.462,162.829 289,195.5C 292.824,229.651 278.324,251.484 245.5,261C 221.559,264.606 202.392,256.773 188,237.5C 172.169,207.342 177.336,181.508 203.5,160C 209.92,156.282 216.586,153.449 223.5,151.5 Z"/>
<path d="M 412.5,216.5 C 428.654,214.487 435.487,221.487 433,237.5C 428.652,245.915 421.819,248.748 412.5,246C 404.085,241.652 401.252,234.819 404,225.5C 405.688,221.315 408.521,218.315 412.5,216.5 Z"/>
<path d="M 393.5,271.5 C 416.793,268.396 433.959,277.062 445,297.5C 453.029,318.545 448.862,336.712 432.5,352C 420.92,360.811 407.92,363.811 393.5,361C 375.333,356.167 363.833,344.667 359,326.5C 355.854,298.76 367.354,280.427 393.5,271.5 Z"/>
</g>
</svg>
