<?xml version="1.0" encoding="UTF-8"?>
<!DOCTYPE svg PUBLIC "-//W3C//DTD SVG 1.1//EN" "http://www.w3.org/Graphics/SVG/1.1/DTD/svg11.dtd">
<svg xmlns="http://www.w3.org/2000/svg" version="1.1" width="512px" height="512px" style="shape-rendering:geometricPrecision; text-rendering:geometricPrecision; image-rendering:optimizeQuality; fill-rule:evenodd; clip-rule:evenodd" xmlns:xlink="http://www.w3.org/1999/xlink">
<g fill="#e77a21" stroke="none">
<path d="M 288.5,60.5 C 325.634,57.4971 349.134,73.8305 359,109.5C 362.487,146.658 346.321,170.158 310.5,180C 278.972,183.491 256.472,170.991 243,142.5C 233.894,113.072 241.394,88.9053 265.5,70C 272.819,65.6636 280.486,62.4969 288.5,60.5 Z"/>
<path d="M 78.5,100.5 C 115.634,97.4971 139.134,113.83 149,149.5C 152.487,186.658 136.321,210.158 100.5,220C 68.9717,223.491 46.4717,210.991 33,182.5C 23.8938,153.072 31.3938,128.905 55.5,110C 62.8193,105.664 70.486,102.497 78.5,100.5 Z"/>
<path d="M 511.5,169.5 C 511.5,193.5 511.5,217.5 511.5,241.5C 506.919,249.778 499.919,252.611 490.5,250C 486.333,248.5 483.5,245.667 482,241.5C 481.667,232.167 481.333,222.833 481,213.5C 426.5,268 372,322.5 317.5,377C 310.167,381.667 302.833,381.667 295.5,377C 282.833,364.333 270.167,351.667 257.5,339C 256.833,338.333 256.167,338.333 255.5,339C 219.5,375 183.5,411 147.5,447C 145.833,448 144.167,449 142.5,450C 97.8333,450.667 53.1667,450.667 8.5,450C 4.31481,448.312 1.31481,445.479 -0.5,441.5C -0.5,437.5 -0.5,433.5 -0.5,429.5C 1.31481,425.521 4.31481,422.688 8.5,421C 48.8333,420.667 89.1667,420.333 129.5,420C 168.167,381.333 206.833,342.667 245.5,304C 252.833,299.333 260.167,299.333 267.5,304C 280.167,316.667 292.833,329.333 305.5,342C 306.167,342.667 306.833,342.667 307.5,342C 357.833,291.667 408.167,241.333 458.5,191C 449.167,190.667 439.833,190.333 430.5,190C 422.085,185.652 419.252,178.819 422,169.5C 423.5,165.333 426.333,162.5 430.5,161C 454.5,160.333 478.5,160.333 502.5,161C 506.685,162.688 509.685,165.521 511.5,169.5 Z"/>
<path d="M 247.5,195.5 C 248.873,195.343 250.207,195.51 251.5,196C 274.674,210.049 299.341,213.382 325.5,206C 333.34,203.746 340.673,200.413 347.5,196C 348.833,195.333 350.167,195.333 351.5,196C 363.645,204.63 372.978,215.63 379.5,229C 355.693,253.973 331.36,278.473 306.5,302.5C 297.984,294.15 289.318,285.984 280.5,278C 264.5,269.333 248.5,269.333 232.5,278C 224.697,284.802 217.197,291.969 210,299.5C 209.333,285.167 209.333,270.833 210,256.5C 214.396,231.016 226.896,210.682 247.5,195.5 Z"/>
<path d="M -0.5,390.5 C -0.5,359.167 -0.5,327.833 -0.5,296.5C 4.17235,271.324 16.839,251.157 37.5,236C 38.8333,235.333 40.1667,235.333 41.5,236C 64.6738,250.049 89.3405,253.382 115.5,246C 123.887,243.305 131.887,239.805 139.5,235.5C 167.056,253.941 180.39,279.941 179.5,313.5C 179.333,319.167 179.167,324.833 179,330.5C 159.167,350.333 139.333,370.167 119.5,390C 79.5014,390.5 39.5014,390.667 -0.5,390.5 Z"/>
</g>
</svg>
