<?xml version="1.0" encoding="UTF-8"?>
<!DOCTYPE svg PUBLIC "-//W3C//DTD SVG 1.1//EN" "http://www.w3.org/Graphics/SVG/1.1/DTD/svg11.dtd">
<svg xmlns="http://www.w3.org/2000/svg" version="1.1" width="512px" height="512px" style="shape-rendering:geometricPrecision; text-rendering:geometricPrecision; image-rendering:optimizeQuality; fill-rule:evenodd; clip-rule:evenodd" xmlns:xlink="http://www.w3.org/1999/xlink">
<g fill="#3FB8AF" stroke="none">
<path d="M 81.5,6.5 C 128.502,8.00057 154.502,32.1672 159.5,79C 158.695,92.4158 154.862,104.916 148,116.5C 127.244,146.761 107.077,177.427 87.5,208.5C 67.5942,178.364 47.4275,148.364 27,118.5C 11.7012,91.8022 11.7012,65.1355 27,38.5C 40.4051,19.7145 58.5717,9.04779 81.5,6.5 Z M 79.5,41.5 C 102.622,39.8132 116.789,50.1465 122,72.5C 122.402,93.1061 112.568,105.939 92.5,111C 72.6237,112.118 59.457,103.284 53,84.5C 50.5795,63.1123 59.4128,48.779 79.5,41.5 Z"/>
<path d="M 242.5,68.5 C 243.498,93.9946 243.831,119.661 243.5,145.5C 223.447,145.256 203.447,144.09 183.5,142C 182.978,141.439 182.645,140.772 182.5,140C 189.936,117.445 201.936,97.7787 218.5,81C 225.597,74.9529 233.597,70.7862 242.5,68.5 Z"/>
<path d="M 258.5,68.5 C 271.426,71.7154 282.259,78.382 291,88.5C 303.789,104.234 313.622,121.734 320.5,141C 313.694,142.714 306.694,143.714 299.5,144C 285.857,145.153 272.19,145.653 258.5,145.5C 258.5,119.833 258.5,94.1667 258.5,68.5 Z"/>
<path d="M 200.5,73.5 C 201.552,73.3505 202.552,73.5172 203.5,74C 186.384,93.0591 174.05,114.892 166.5,139.5C 161.797,139.88 157.464,138.88 153.5,136.5C 160.848,125.974 166.682,114.641 171,102.5C 172.427,96.1759 173.76,89.8426 175,83.5C 183.622,80.2418 192.122,76.9085 200.5,73.5 Z"/>
<path d="M 299.5,75.5 C 334.475,83.6667 364.142,101.167 388.5,128C 372.325,133.67 355.659,137.504 338.5,139.5C 337.5,139.167 336.5,138.833 335.5,138.5C 327.841,114.828 315.841,93.8283 299.5,75.5 Z"/>
<path d="M 398.5,141.5 C 399.496,141.414 400.329,141.748 401,142.5C 423.889,173.659 436.389,208.659 438.5,247.5C 410.167,247.5 381.833,247.5 353.5,247.5C 353.188,216.004 349.188,185.004 341.5,154.5C 361.104,152.315 380.104,147.982 398.5,141.5 Z"/>
<path d="M 142.5,151.5 C 148.362,153.272 154.362,154.272 160.5,154.5C 152.527,184.975 148.194,215.975 147.5,247.5C 119.5,247.5 91.5,247.5 63.5,247.5C 63.8298,234.852 65.8298,222.519 69.5,210.5C 73.9439,216.542 78.2772,222.708 82.5,229C 85.5,231 88.5,231 91.5,229C 109.132,203.566 126.132,177.733 142.5,151.5 Z"/>
<path d="M 176.5,157.5 C 198.454,159.554 220.454,160.887 242.5,161.5C 242.5,190.167 242.5,218.833 242.5,247.5C 216.167,247.5 189.833,247.5 163.5,247.5C 164.103,216.944 168.437,186.944 176.5,157.5 Z"/>
<path d="M 316.5,157.5 C 319.5,157.5 322.5,157.5 325.5,157.5C 333.191,187.004 337.524,217.004 338.5,247.5C 311.833,247.5 285.167,247.5 258.5,247.5C 258.5,218.833 258.5,190.167 258.5,161.5C 278.052,161.149 297.385,159.816 316.5,157.5 Z"/>
<path d="M 258.5,262.5 C 285.167,262.5 311.833,262.5 338.5,262.5C 337.822,286.105 334.988,309.438 330,332.5C 323.951,339.044 318.118,345.711 312.5,352.5C 294.611,349.998 276.611,348.998 258.5,349.5C 258.5,320.5 258.5,291.5 258.5,262.5 Z"/>
<path d="M 63.5,263.5 C 91.8333,263.5 120.167,263.5 148.5,263.5C 149.138,294.941 153.138,325.941 160.5,356.5C 140.377,358.951 120.711,363.117 101.5,369C 78.0211,337.847 65.3545,302.681 63.5,263.5 Z"/>
<path d="M 163.5,263.5 C 189.833,263.5 216.167,263.5 242.5,263.5C 242.5,292.167 242.5,320.833 242.5,349.5C 221.782,350.002 201.115,351.336 180.5,353.5C 179.167,353.167 177.833,352.833 176.5,352.5C 168.343,323.402 164.01,293.736 163.5,263.5 Z"/>
<path d="M 353.5,263.5 C 381.833,263.5 410.167,263.5 438.5,263.5C 437.718,278.092 435.385,292.425 431.5,306.5C 430.667,306.833 429.833,307.167 429,307.5C 400.887,300.853 374.22,304.52 349,318.5C 351.821,300.358 353.321,282.025 353.5,263.5 Z"/>
<path d="M 392.5,319.5 C 440.985,317.805 473.818,339.471 491,384.5C 501.599,428.427 488.766,463.594 452.5,490C 416.66,510.294 381.66,508.961 347.5,486C 315.21,458.79 304.376,424.624 315,383.5C 328.42,346.896 354.253,325.563 392.5,319.5 Z M 399.5,348.5 C 402.167,348.5 404.833,348.5 407.5,348.5C 407.5,351.167 407.5,353.833 407.5,356.5C 419.112,356.531 429.112,360.364 437.5,368C 434.682,372.156 431.848,376.323 429,380.5C 422.689,375.563 415.522,372.896 407.5,372.5C 407.334,382.172 407.5,391.839 408,401.5C 416.747,403.638 424.914,407.138 432.5,412C 444.417,425.717 444.417,439.383 432.5,453C 425.069,458.442 416.736,461.276 407.5,461.5C 407.5,465.167 407.5,468.833 407.5,472.5C 404.833,472.5 402.167,472.5 399.5,472.5C 399.5,468.833 399.5,465.167 399.5,461.5C 385.506,459.998 373.506,454.498 363.5,445C 366.543,441.093 369.709,437.259 373,433.5C 380.727,439.697 389.394,444.03 399,446.5C 399.832,436.151 399.666,425.817 398.5,415.5C 390.285,413.597 382.619,410.43 375.5,406C 363.695,392.38 363.695,378.713 375.5,365C 382.461,359.29 390.461,356.457 399.5,356.5C 399.5,353.833 399.5,351.167 399.5,348.5 Z"/>
<path d="M 240.5,365.5 C 241.5,365.5 242.5,365.5 243.5,365.5C 243.667,391.169 243.5,416.835 243,442.5C 228.772,437.04 216.772,428.374 207,416.5C 195.989,402.321 187.823,386.654 182.5,369.5C 201.948,367.599 221.281,366.266 240.5,365.5 Z"/>
<path d="M 258.5,365.5 C 273.868,365.502 289.201,366.169 304.5,367.5C 298.067,383.501 294.9,400.168 295,417.5C 285.669,429.413 273.836,437.746 259.5,442.5C 258.5,416.842 258.167,391.175 258.5,365.5 Z"/>
<path d="M 162.5,370.5 C 163.833,370.5 165.167,370.5 166.5,370.5C 174.14,394.793 186.64,416.126 204,434.5C 204.591,435.483 204.257,436.15 203,436.5C 168.304,427.108 138.637,409.442 114,383.5C 113.544,382.256 114.044,381.423 115.5,381C 131.226,377.158 146.893,373.658 162.5,370.5 Z"/>
<path d="M 396.5,370.5 C 397.5,370.5 398.5,370.5 399.5,370.5C 399.5,379.5 399.5,388.5 399.5,397.5C 390.624,396.612 385.291,391.945 383.5,383.5C 384.85,376.15 389.183,371.817 396.5,370.5 Z"/>
<path d="M 407.5,417.5 C 412.008,418.839 416.342,420.672 420.5,423C 426.222,430.284 425.555,436.95 418.5,443C 415.095,444.544 411.595,445.711 408,446.5C 407.5,436.839 407.334,427.172 407.5,417.5 Z"/>
</g>
</svg>
