<?xml version="1.0" encoding="UTF-8"?>
<!DOCTYPE svg PUBLIC "-//W3C//DTD SVG 1.1//EN" "http://www.w3.org/Graphics/SVG/1.1/DTD/svg11.dtd">
<svg xmlns="http://www.w3.org/2000/svg" version="1.1" width="512px" height="512px" style="shape-rendering:geometricPrecision; text-rendering:geometricPrecision; image-rendering:optimizeQuality; fill-rule:evenodd; clip-rule:evenodd" xmlns:xlink="http://www.w3.org/1999/xlink">
<g fill="#1e8326" stroke="none">
<path d="M 371.5,-0.5 C 372.167,-0.5 372.833,-0.5 373.5,-0.5C 375.533,15.1279 377.199,30.7946 378.5,46.5C 378.773,79.2128 367.106,106.713 343.5,129C 334.306,135.928 323.973,140.095 312.5,141.5C 308.625,167.704 306.459,194.038 306,220.5C 326.513,197.16 352.346,184.327 383.5,182C 364.994,179.25 346.828,180.75 329,186.5C 327.527,186.097 326.194,185.43 325,184.5C 324.333,181.5 324.333,178.5 325,175.5C 339.406,148.423 361.239,139.923 390.5,150C 397.324,152.909 403.658,156.576 409.5,161C 418.744,168.745 428.411,175.912 438.5,182.5C 429.161,197.181 419.327,211.514 409,225.5C 390.924,245.097 369.758,249.264 345.5,238C 341.084,235.588 337.251,232.422 334,228.5C 322.967,238.23 314.634,249.896 309,263.5C 301.514,271.441 293.014,272.941 283.5,268C 276.495,262.326 273.829,254.992 275.5,246C 276.119,207.946 279.286,170.113 285,132.5C 288.55,114.634 292.883,96.967 298,79.5C 302.816,66.3638 309.316,54.1971 317.5,43C 297.852,51.9922 284.352,66.8255 277,87.5C 275.008,96.455 273.341,105.455 272,114.5C 267.374,120.487 262.374,120.82 257,115.5C 244.899,96.4451 242.232,76.1118 249,54.5C 255.775,38.7255 266.941,27.2255 282.5,20C 290.87,16.4068 299.537,13.7402 308.5,12C 325.846,9.73943 343.179,7.40609 360.5,5C 364.787,4.19004 368.454,2.35671 371.5,-0.5 Z"/>
<path d="M 205.5,146.5 C 231.483,143.564 249.65,153.897 260,177.5C 261.856,183.464 259.856,187.131 254,188.5C 234.755,181.032 214.922,178.865 194.5,182C 213.99,183.608 231.99,189.608 248.5,200C 257.303,208.939 257.803,218.439 250,228.5C 229.285,247.534 207.119,249.368 183.5,234C 177.258,228.429 171.758,222.262 167,215.5C 160.03,204.365 152.863,193.365 145.5,182.5C 156.857,174.821 167.857,166.654 178.5,158C 186.899,152.487 195.899,148.653 205.5,146.5 Z"/>
<path d="M 511.5,296.5 C 511.5,300.5 511.5,304.5 511.5,308.5C 508.443,313.066 504.776,317.233 500.5,321C 458.5,358.333 416.5,395.667 374.5,433C 361.375,445.729 345.708,453.395 327.5,456C 266.831,456.167 206.164,456.667 145.5,457.5C 133.49,475.529 121.49,493.529 109.5,511.5C 109.167,511.5 108.833,511.5 108.5,511.5C 72.5,474.833 36.1667,438.5 -0.5,402.5C -0.5,401.5 -0.5,400.5 -0.5,399.5C 34.2982,365.869 68.9649,332.036 103.5,298C 135.82,273.224 171.487,266.89 210.5,279C 223.288,286.041 236.955,290.041 251.5,291C 272.167,291.333 292.833,291.667 313.5,292C 337.072,296.556 348.239,310.723 347,334.5C 342.231,350.933 331.398,360.766 314.5,364C 289.531,365.264 264.531,365.931 239.5,366C 244.833,371.333 250.167,376.667 255.5,382C 279.833,382.667 304.167,382.667 328.5,382C 368.5,352.667 408.5,323.333 448.5,294C 467.134,280.514 486.467,279.181 506.5,290C 508.066,292.326 509.732,294.492 511.5,296.5 Z"/>
</g>
</svg>
