<?xml version="1.0" standalone="no"?>
<!DOCTYPE svg PUBLIC "-//W3C//DTD SVG 20010904//EN"
 "http://www.w3.org/TR/2001/REC-SVG-20010904/DTD/svg10.dtd">
<svg version="1.0" xmlns="http://www.w3.org/2000/svg"
 width="512.000000pt" height="512.000000pt" viewBox="0 0 512.000000 512.000000"
 preserveAspectRatio="xMidYMid meet">

<g transform="translate(0.000000,512.000000) scale(0.100000,-0.100000)"
fill="#c55656" stroke="none">
<path d="M1260 5104 c-180 -47 -314 -170 -379 -348 l-26 -71 -3 -1671 -2
-1671 92 -27 c51 -14 436 -125 856 -245 l763 -218 817 234 c449 128 834 238
855 244 l37 10 -2 1667 -3 1667 -22 66 c-75 221 -280 369 -509 369 -94 0 -500
-89 -586 -128 -169 -77 -299 -231 -356 -419 -15 -54 -17 -178 -22 -1633 l-5
-1574 -102 -30 -103 -29 -103 29 -102 30 -5 1574 c-6 1755 0 1604 -76 1760
-28 56 -58 96 -118 156 -127 127 -213 162 -625 254 -105 23 -193 25 -271 4z"/>
<path d="M4690 3061 l0 -2018 -1042 -298 c-574 -164 -1055 -300 -1069 -303
-16 -2 -457 119 -1088 299 l-1061 303 0 1908 c0 1520 -3 1908 -12 1908 -25 0
-114 -48 -175 -94 -110 -83 -199 -225 -229 -365 -11 -55 -14 -366 -14 -1872
l0 -1806 1265 -362 c696 -198 1278 -361 1295 -361 17 0 599 163 1295 361
l1265 362 0 1911 c0 1639 -2 1921 -15 1981 -31 147 -133 303 -254 384 -46 31
-143 81 -157 81 -2 0 -4 -908 -4 -2019z"/>
</g>
</svg>
