<?xml version="1.0" encoding="UTF-8"?>
<!DOCTYPE svg PUBLIC "-//W3C//DTD SVG 1.1//EN" "http://www.w3.org/Graphics/SVG/1.1/DTD/svg11.dtd">
<svg xmlns="http://www.w3.org/2000/svg" version="1.1" width="512px" height="512px" style="shape-rendering:geometricPrecision; text-rendering:geometricPrecision; image-rendering:optimizeQuality; fill-rule:evenodd; clip-rule:evenodd" xmlns:xlink="http://www.w3.org/1999/xlink">
<g fill="#c55656" stroke="none">
<path d="M 145.5,4.5 C 218.501,4.33334 291.501,4.5 364.5,5C 370.088,7.58642 373.921,11.7531 376,17.5C 376.667,87.1667 376.667,156.833 376,226.5C 374.564,232.87 370.731,237.037 364.5,239C 291.5,239.667 218.5,239.667 145.5,239C 139.269,237.037 135.436,232.87 134,226.5C 133.333,156.833 133.333,87.1667 134,17.5C 136.002,11.4634 139.835,7.13007 145.5,4.5 Z M 246.5,38.5 C 253.241,38.1712 259.908,38.6712 266.5,40C 270.24,41.2899 273.407,43.4565 276,46.5C 290.531,91.7612 304.865,137.094 319,182.5C 319.76,187.482 317.927,191.315 313.5,194C 307.018,198.014 300.018,199.348 292.5,198C 289.943,197.315 288.109,195.815 287,193.5C 284.496,184.148 281.996,174.814 279.5,165.5C 263.153,165.167 246.82,165.501 230.5,166.5C 227.963,176.318 224.963,185.985 221.5,195.5C 213.024,199.627 204.691,199.127 196.5,194C 190.941,189.991 189.441,184.824 192,178.5C 205.667,134.833 219.333,91.1667 233,47.5C 236.517,42.8383 241.017,39.8383 246.5,38.5 Z"/>
<path d="M 254.5,79.5 C 260.767,99.223 266.434,119.223 271.5,139.5C 260.162,139.667 248.828,139.5 237.5,139C 243.264,119.205 248.931,99.372 254.5,79.5 Z"/>
<path d="M -0.5,494.5 C -0.5,423.167 -0.5,351.833 -0.5,280.5C 2.58232,274.261 7.58232,270.427 14.5,269C 85.8774,268.013 157.211,268.346 228.5,270C 233.333,272.167 236.833,275.667 239,280.5C 239.667,351.833 239.667,423.167 239,494.5C 237.193,500.307 233.36,504.141 227.5,506C 155.5,506.667 83.5,506.667 11.5,506C 5.64984,503.981 1.64984,500.148 -0.5,494.5 Z M 73.5,308.5 C 95.8653,308.091 118.199,308.591 140.5,310C 160.592,314.321 170.592,326.821 170.5,347.5C 169.848,352.531 169.015,357.531 168,362.5C 164.656,367.861 162.49,373.694 161.5,380C 161.947,382.956 162.78,385.789 164,388.5C 171.55,397.166 175.05,407.332 174.5,419C 174.708,431.002 171.875,442.169 166,452.5C 159.22,460.308 150.72,465.141 140.5,467C 119.192,468.543 97.8588,468.876 76.5,468C 72.0579,467.863 68.5579,466.03 66,462.5C 64.3478,414.225 64.0145,365.892 65,317.5C 66.0152,312.654 68.8486,309.654 73.5,308.5 Z"/>
<path d="M 511.5,280.5 C 511.5,351.833 511.5,423.167 511.5,494.5C 509.35,500.148 505.35,503.981 499.5,506C 425.776,506.991 352.11,506.657 278.5,505C 272.996,502.16 269.829,497.66 269,491.5C 268.333,422.5 268.333,353.5 269,284.5C 270.226,277.606 274.06,272.773 280.5,270C 352.456,268.346 424.456,268.013 496.5,269C 503.418,270.427 508.418,274.261 511.5,280.5 Z M 382.5,308.5 C 399.963,307.365 415.963,311.532 430.5,321C 444.252,333.009 447.918,347.343 441.5,364C 433.8,367.823 425.8,368.49 417.5,366C 415.376,364.878 413.543,363.378 412,361.5C 411.865,343.024 402.699,335.19 384.5,338C 375.577,340.301 370.744,346.134 370,355.5C 369.333,377.833 369.333,400.167 370,422.5C 372.434,436.908 380.934,442.742 395.5,440C 401.083,438.757 405.249,435.59 408,430.5C 409.76,425.277 411.093,419.944 412,414.5C 414.1,411.533 416.934,409.7 420.5,409C 427.385,407.902 434.051,408.569 440.5,411C 443.611,414.78 445.278,419.113 445.5,424C 443.897,445.281 432.897,459.281 412.5,466C 390.33,472.647 369.663,469.647 350.5,457C 341.412,447.755 336.579,436.589 336,423.5C 335.333,400.5 335.333,377.5 336,354.5C 336.723,334.532 346.223,320.698 364.5,313C 370.52,311.036 376.52,309.536 382.5,308.5 Z"/>
<path d="M 98.5,337.5 C 108.912,337.074 119.246,337.574 129.5,339C 136.116,345.865 137.616,353.698 134,362.5C 132.833,365 131,366.833 128.5,368C 118.506,368.5 108.506,368.666 98.5,368.5C 98.5,358.167 98.5,347.833 98.5,337.5 Z"/>
<path d="M 98.5,394.5 C 108.172,394.334 117.839,394.5 127.5,395C 133.562,396.062 137.395,399.562 139,405.5C 141.129,413.932 140.795,422.266 138,430.5C 135.303,435.436 131.136,438.27 125.5,439C 116.506,439.5 107.506,439.666 98.5,439.5C 98.5,424.5 98.5,409.5 98.5,394.5 Z"/>
</g>
</svg>
