<?xml version="1.0" encoding="UTF-8"?>
<!DOCTYPE svg PUBLIC "-//W3C//DTD SVG 1.1//EN" "http://www.w3.org/Graphics/SVG/1.1/DTD/svg11.dtd">
<svg xmlns="http://www.w3.org/2000/svg" version="1.1" width="512px" height="512px" style="shape-rendering:geometricPrecision; text-rendering:geometricPrecision; image-rendering:optimizeQuality; fill-rule:evenodd; clip-rule:evenodd" xmlns:xlink="http://www.w3.org/1999/xlink">
<g fill="#c55656" stroke="none">
<path d="M 149.5,-0.5 C 220.167,-0.5 290.833,-0.5 361.5,-0.5C 361.5,59.8333 361.5,120.167 361.5,180.5C 290.833,180.5 220.167,180.5 149.5,180.5C 149.5,120.167 149.5,59.8333 149.5,-0.5 Z M 289.5,45.5 C 296.632,52.1307 303.632,58.9641 310.5,66C 287.5,89 264.5,112 241.5,135C 240.833,135.667 240.167,135.667 239.5,135C 226.5,122 213.5,109 200.5,96C 207.333,89.1667 214.167,82.3333 221,75.5C 227.167,81.6667 233.333,87.8333 239.5,94C 240.167,94.6667 240.833,94.6667 241.5,94C 257.702,77.9652 273.702,61.7986 289.5,45.5 Z"/>
<path d="M 44.5,119.5 C 69.8333,119.5 95.1667,119.5 120.5,119.5C 120.5,139.833 120.5,160.167 120.5,180.5C 95.1667,180.5 69.8333,180.5 44.5,180.5C 44.5,160.167 44.5,139.833 44.5,119.5 Z"/>
<path d="M 390.5,119.5 C 415.833,119.5 441.167,119.5 466.5,119.5C 466.5,139.833 466.5,160.167 466.5,180.5C 441.167,180.5 415.833,180.5 390.5,180.5C 390.5,160.167 390.5,139.833 390.5,119.5 Z"/>
<path d="M -0.5,209.5 C 170.167,209.5 340.833,209.5 511.5,209.5C 511.5,219.833 511.5,230.167 511.5,240.5C 340.833,240.5 170.167,240.5 -0.5,240.5C -0.5,230.167 -0.5,219.833 -0.5,209.5 Z"/>
<path d="M -0.5,270.5 C 170.167,270.5 340.833,270.5 511.5,270.5C 511.5,350.833 511.5,431.167 511.5,511.5C 340.833,511.5 170.167,511.5 -0.5,511.5C -0.5,431.167 -0.5,350.833 -0.5,270.5 Z M 30.5,316.5 C 40.1667,316.5 49.8333,316.5 59.5,316.5C 59.3335,326.506 59.5002,336.506 60,346.5C 67.1779,372.212 74.5112,397.878 82,423.5C 90.2538,397.732 97.9205,371.732 105,345.5C 105.5,335.839 105.666,326.172 105.5,316.5C 115.167,316.5 124.833,316.5 134.5,316.5C 134.667,327.505 134.5,338.505 134,349.5C 123,387.833 112,426.167 101,464.5C 88.58,465.489 76.08,465.822 63.5,465.5C 52.8264,427.141 41.993,388.808 31,350.5C 30.5001,339.172 30.3335,327.838 30.5,316.5 Z M 165.5,316.5 C 195.5,316.5 225.5,316.5 255.5,316.5C 255.5,366.167 255.5,415.833 255.5,465.5C 225.5,465.5 195.5,465.5 165.5,465.5C 165.5,415.833 165.5,366.167 165.5,316.5 Z M 286.5,316.5 C 316.167,316.5 345.833,316.5 375.5,316.5C 375.5,326.167 375.5,335.833 375.5,345.5C 365.5,345.5 355.5,345.5 345.5,345.5C 345.5,385.5 345.5,425.5 345.5,465.5C 335.833,465.5 326.167,465.5 316.5,465.5C 316.5,425.5 316.5,385.5 316.5,345.5C 306.5,345.5 296.5,345.5 286.5,345.5C 286.5,335.833 286.5,326.167 286.5,316.5 Z M 406.5,316.5 C 431.167,316.5 455.833,316.5 480.5,316.5C 480.5,326.167 480.5,335.833 480.5,345.5C 465.5,345.5 450.5,345.5 435.5,345.5C 435.5,355.833 435.5,366.167 435.5,376.5C 450.5,376.5 465.5,376.5 480.5,376.5C 480.5,386.167 480.5,395.833 480.5,405.5C 465.5,405.5 450.5,405.5 435.5,405.5C 435.5,415.833 435.5,426.167 435.5,436.5C 450.5,436.5 465.5,436.5 480.5,436.5C 480.5,446.167 480.5,455.833 480.5,465.5C 455.833,465.5 431.167,465.5 406.5,465.5C 406.5,415.833 406.5,366.167 406.5,316.5 Z"/>
<path d="M 194.5,345.5 C 204.833,345.5 215.167,345.5 225.5,345.5C 225.5,375.833 225.5,406.167 225.5,436.5C 215.167,436.5 204.833,436.5 194.5,436.5C 194.5,406.167 194.5,375.833 194.5,345.5 Z"/>
</g>
</svg>
