<?xml version="1.0" encoding="UTF-8"?>
<!DOCTYPE svg PUBLIC "-//W3C//DTD SVG 1.1//EN" "http://www.w3.org/Graphics/SVG/1.1/DTD/svg11.dtd">
<svg xmlns="http://www.w3.org/2000/svg" version="1.1" width="512px" height="512px" style="shape-rendering:geometricPrecision; text-rendering:geometricPrecision; image-rendering:optimizeQuality; fill-rule:evenodd; clip-rule:evenodd" xmlns:xlink="http://www.w3.org/1999/xlink">
<g fill="#3FB8AF" stroke="none">
<path d="M 249.5,-0.5 C 253.5,-0.5 257.5,-0.5 261.5,-0.5C 266.143,1.97883 269.643,5.64549 272,10.5C 272.667,27.5 272.667,44.5 272,61.5C 269.331,69.2626 263.831,73.2626 255.5,73.5C 247.169,73.2626 241.669,69.2626 239,61.5C 238.333,44.5 238.333,27.5 239,10.5C 241.357,5.64549 244.857,1.97883 249.5,-0.5 Z"/>
<path d="M 129.5,38.5 C 134.742,38.0227 139.742,38.8561 144.5,41C 153.454,52.4099 162.288,63.9099 171,75.5C 177.581,85.0856 176.748,93.9189 168.5,102C 158.225,107.391 149.392,105.558 142,96.5C 133.609,85.108 125.609,73.4413 118,61.5C 115.521,50.457 119.354,42.7903 129.5,38.5 Z"/>
<path d="M 371.5,38.5 C 387.808,37.6414 394.975,45.308 393,61.5C 384.267,75.7975 374.434,89.2975 363.5,102C 356.519,106.509 349.519,106.509 342.5,102C 336.367,96.2983 334.533,89.4649 337,81.5C 344.944,69.2242 353.277,57.2242 362,45.5C 364.529,42.1151 367.696,39.7818 371.5,38.5 Z"/>
<path d="M 248.5,99.5 C 304.554,99.4556 344.721,124.456 369,174.5C 384.15,213.98 381.15,251.98 360,288.5C 342.518,310.791 326.518,334.125 312,358.5C 311.5,371.829 311.333,385.163 311.5,398.5C 273.833,398.5 236.167,398.5 198.5,398.5C 198.667,384.496 198.5,370.496 198,356.5C 183.504,333.007 167.837,310.341 151,288.5C 126.032,243.988 126.366,199.655 152,155.5C 175.492,122.001 207.658,103.334 248.5,99.5 Z"/>
<path d="M 54.5,141.5 C 58.1817,141.335 61.8484,141.501 65.5,142C 80.0156,146.544 94.349,151.544 108.5,157C 117.051,167.279 116.384,176.946 106.5,186C 103.638,187.299 100.638,188.132 97.5,188.5C 81.1437,184.437 65.1437,179.27 49.5,173C 41.6625,165.475 40.4958,156.975 46,147.5C 48.6713,145.098 51.5046,143.098 54.5,141.5 Z"/>
<path d="M 445.5,141.5 C 464.899,140.966 471.733,149.966 466,168.5C 464.5,170 463,171.5 461.5,173C 445.856,179.27 429.856,184.437 413.5,188.5C 400.443,186.274 394.943,178.608 397,165.5C 398.198,162.274 400.031,159.441 402.5,157C 416.869,151.667 431.202,146.5 445.5,141.5 Z"/>
<path d="M 91.5,256.5 C 108.316,255.148 115.816,262.815 114,279.5C 112.6,282.902 110.433,285.736 107.5,288C 91.8575,294.27 75.8575,299.436 59.5,303.5C 46.4153,301.252 40.9153,293.585 43,280.5C 44.2106,277.241 46.0439,274.408 48.5,272C 62.8825,266.708 77.2158,261.541 91.5,256.5 Z"/>
<path d="M 407.5,256.5 C 411.514,256.334 415.514,256.501 419.5,257C 433.995,261.609 448.328,266.609 462.5,272C 470.733,281.66 470.4,290.993 461.5,300C 458.237,301.858 454.737,303.025 451,303.5C 434.836,299.334 419.003,294.168 403.5,288C 396.009,281.006 394.509,272.84 399,263.5C 401.441,260.546 404.275,258.213 407.5,256.5 Z"/>
<path d="M 152.5,339.5 C 165.601,337.946 173.268,343.612 175.5,356.5C 175.158,358.867 174.658,361.2 174,363.5C 165.08,376.921 155.58,389.921 145.5,402.5C 133.772,408.851 124.606,406.184 118,394.5C 117.333,390.5 117.333,386.5 118,382.5C 126.278,369.89 134.944,357.556 144,345.5C 146.637,343.109 149.47,341.109 152.5,339.5 Z"/>
<path d="M 348.5,339.5 C 354.275,338.775 359.608,339.941 364.5,343C 373.699,354.565 382.532,366.399 391,378.5C 397.004,393.829 392.004,403.162 376,406.5C 369.127,405.627 363.794,402.293 360,396.5C 353.245,386.656 346.245,376.99 339,367.5C 332.926,354.887 336.093,345.553 348.5,339.5 Z"/>
<path d="M 206.5,416.5 C 239.168,416.333 271.835,416.5 304.5,417C 312.912,420.655 315.745,426.821 313,435.5C 311.5,438.333 309.333,440.5 306.5,442C 272.5,442.667 238.5,442.667 204.5,442C 193.456,432.65 194.123,424.15 206.5,416.5 Z"/>
<path d="M 262.5,511.5 C 257.833,511.5 253.167,511.5 248.5,511.5C 239.753,508.078 234.086,501.745 231.5,492.5C 214.435,489.104 205.102,478.77 203.5,461.5C 238.167,461.5 272.833,461.5 307.5,461.5C 305.898,478.77 296.565,489.104 279.5,492.5C 276.914,501.745 271.247,508.078 262.5,511.5 Z"/>
</g>
</svg>
