<?xml version="1.0" encoding="UTF-8"?>
<!DOCTYPE svg PUBLIC "-//W3C//DTD SVG 1.1//EN" "http://www.w3.org/Graphics/SVG/1.1/DTD/svg11.dtd">
<svg xmlns="http://www.w3.org/2000/svg" version="1.1" width="512px" height="512px" style="shape-rendering:geometricPrecision; text-rendering:geometricPrecision; image-rendering:optimizeQuality; fill-rule:evenodd; clip-rule:evenodd" xmlns:xlink="http://www.w3.org/1999/xlink">
<g fill="#a74e9f" stroke="none">
<path d="M 206.5,-0.5 C 239.167,-0.5 271.833,-0.5 304.5,-0.5C 304.5,25.5 304.5,51.5 304.5,77.5C 326.833,77.5 349.167,77.5 371.5,77.5C 371.334,70.4921 371.5,63.4921 372,56.5C 379.25,35.9576 393.417,28.7909 414.5,35C 422.822,38.6549 428.322,44.8215 431,53.5C 432.321,61.4393 432.821,69.4393 432.5,77.5C 442.167,77.5 451.833,77.5 461.5,77.5C 461.5,97.8333 461.5,118.167 461.5,138.5C 324.167,138.5 186.833,138.5 49.5,138.5C 49.5,118.167 49.5,97.8333 49.5,77.5C 59.1667,77.5 68.8333,77.5 78.5,77.5C 78.1785,69.4393 78.6785,61.4393 80,53.5C 88.1721,35.0024 102.005,28.8358 121.5,35C 131.002,39.1699 136.836,46.3366 139,56.5C 139.5,63.4921 139.666,70.4921 139.5,77.5C 161.833,77.5 184.167,77.5 206.5,77.5C 206.5,51.5 206.5,25.5 206.5,-0.5 Z"/>
<path d="M 79.5,169.5 C 94.9946,168.339 110.661,168.172 126.5,169C 152.905,193.283 179.405,217.45 206,241.5C 206.5,217.169 206.667,192.836 206.5,168.5C 239.167,168.5 271.833,168.5 304.5,168.5C 304.333,192.836 304.5,217.169 305,241.5C 331.595,217.45 358.095,193.283 384.5,169C 400.167,168.333 415.833,168.333 431.5,169C 389.333,207.167 347.167,245.333 305,283.5C 304.5,324.832 304.333,366.165 304.5,407.5C 271.833,407.5 239.167,407.5 206.5,407.5C 206.667,366.165 206.5,324.832 206,283.5C 163.963,245.293 121.796,207.293 79.5,169.5 Z"/>
<path d="M 304.5,511.5 C 271.833,511.5 239.167,511.5 206.5,511.5C 206.5,486.833 206.5,462.167 206.5,437.5C 239.167,437.5 271.833,437.5 304.5,437.5C 304.5,462.167 304.5,486.833 304.5,511.5 Z"/>
</g>
</svg>
