<?xml version="1.0" encoding="UTF-8"?>
<!DOCTYPE svg PUBLIC "-//W3C//DTD SVG 1.1//EN" "http://www.w3.org/Graphics/SVG/1.1/DTD/svg11.dtd">
<svg xmlns="http://www.w3.org/2000/svg" version="1.1" width="512px" height="512px" style="shape-rendering:geometricPrecision; text-rendering:geometricPrecision; image-rendering:optimizeQuality; fill-rule:evenodd; clip-rule:evenodd" xmlns:xlink="http://www.w3.org/1999/xlink">
<g fill="#c55656" stroke="none">
<path d="M 511.5,171.5 C 511.5,171.833 511.5,172.167 511.5,172.5C 494.286,179.689 477.119,187.023 460,194.5C 459.333,253.167 459.333,311.833 460,370.5C 464.248,372.743 467.914,375.743 471,379.5C 478.065,395.865 484.232,412.532 489.5,429.5C 488.831,436.658 485.497,442.158 479.5,446C 461.232,447.627 442.899,447.96 424.5,447C 414.166,443.041 409.999,435.541 412,424.5C 417.197,411.244 422.197,397.911 427,384.5C 429.699,377.635 434.532,372.968 441.5,370.5C 442.5,312.17 442.833,253.837 442.5,195.5C 376.533,183.206 310.533,171.372 244.5,160C 236.776,164.586 236.776,169.253 244.5,174C 305.276,184.906 365.942,196.24 426.5,208C 370.531,232.215 314.364,256.048 258,279.5C 171.75,243.956 85.5837,208.29 -0.5,172.5C -0.5,172.167 -0.5,171.833 -0.5,171.5C 85.3954,135.311 171.395,99.3108 257.5,63.5C 342.419,98.9609 427.085,134.961 511.5,171.5 Z"/>
<path d="M 100.5,230.5 C 152.95,251.928 205.45,273.262 258,294.5C 308.356,273.991 358.523,252.991 408.5,231.5C 408.833,252.167 409.167,272.833 409.5,293.5C 409.645,315.548 409.145,337.548 408,359.5C 396.773,375.393 382.94,388.56 366.5,399C 315.028,429.812 260.028,438.145 201.5,424C 167.149,414.416 137.316,397.25 112,372.5C 108.615,368.783 105.615,364.783 103,360.5C 102.012,357.576 101.346,354.576 101,351.5C 100.5,311.168 100.333,270.835 100.5,230.5 Z"/>
</g>
</svg>
