<?xml version="1.0" standalone="no"?>
<!DOCTYPE svg PUBLIC "-//W3C//DTD SVG 20010904//EN"
 "http://www.w3.org/TR/2001/REC-SVG-20010904/DTD/svg10.dtd">
<svg version="1.0" xmlns="http://www.w3.org/2000/svg"
 width="512.000000pt" height="512.000000pt" viewBox="0 0 512.000000 512.000000"
 preserveAspectRatio="xMidYMid meet">

<g fill="#c55656" stroke="none">
<path d="M 406.5,15.5 C 407.376,15.3691 408.043,15.7025 408.5,16.5C 413.5,26.5 418.5,36.5 423.5,46.5C 434.151,47.3324 
444.818,47.8324 455.5,48C 448,55.5 440.5,63 433,70.5C 434.356,80.9345 436.523,91.2679 439.5,101.5C 439.167,102.167 438.833,102.833 438.5,103.5C 428.284,98.225 
417.95,93.225 407.5,88.5C 397.05,93.225 386.716,98.225 376.5,103.5C 376.167,102.833 375.833,102.167 375.5,101.5C 378.477,91.2679 380.644,80.9345 382,70.5C 
374.5,63 367,55.5 359.5,48C 370.182,47.8324 380.849,47.3324 391.5,46.5C 396.784,36.267 401.784,25.9336 406.5,15.5 Z"/>
<path d="M 359.5,127.5 C 391.5,127.5 423.5,127.5 455.5,127.5C 455.5,247.5 455.5,367.5 455.5,487.5C 471.5,487.5 487.5,487.5 
503.5,487.5C 503.5,492.833 503.5,498.167 503.5,503.5C 338.167,503.5 172.833,503.5 7.5,503.5C 7.5,498.167 7.5,492.833 7.5,487.5C 23.5,487.5 39.5,487.5 55.5,487.5C 
55.5,447.5 55.5,407.5 55.5,367.5C 87.5,367.5 119.5,367.5 151.5,367.5C 151.5,407.5 151.5,447.5 151.5,487.5C 170.167,487.5 188.833,487.5 207.5,487.5C 207.5,420.833 
207.5,354.167 207.5,287.5C 239.5,287.5 271.5,287.5 303.5,287.5C 303.5,354.167 303.5,420.833 303.5,487.5C 322.167,487.5 340.833,487.5 359.5,487.5C 359.5,367.5 359.5,247.5 359.5,127.5 Z"/>
<path d="M 254.5,175.5 C 255.376,175.369 256.043,175.702 256.5,176.5C 261.5,186.5 266.5,196.5 271.5,206.5C 282.151,207.332 
292.818,207.832 303.5,208C 296,215.5 288.5,223 281,230.5C 282.356,240.935 284.523,251.268 287.5,261.5C 287.167,262.167 286.833,262.833 286.5,263.5C 276.284,258.225 
265.95,253.225 255.5,248.5C 245.05,253.225 234.716,258.225 224.5,263.5C 224.167,262.833 223.833,262.167 223.5,261.5C 226.477,251.268 228.644,240.935 230,230.5C 222.5,223 
215,215.5 207.5,208C 218.182,207.832 228.849,207.332 239.5,206.5C 244.784,196.267 249.784,185.934 254.5,175.5 Z"/>
<path d="M 102.5,255.5 C 103.376,255.369 104.043,255.702 104.5,256.5C 109.5,266.5 114.5,276.5 119.5,286.5C 130.151,287.332 140.818,287.832 
151.5,288C 144,295.5 136.5,303 129,310.5C 130.356,320.935 132.523,331.268 135.5,341.5C 135.167,342.167 134.833,342.833 134.5,343.5C 124.284,338.225 113.95,333.225 103.5,328.5C 
93.0496,333.225 82.7163,338.225 72.5,343.5C 72.1667,342.833 71.8333,342.167 71.5,341.5C 74.4774,331.268 76.644,320.935 78,310.5C 70.5,303 63,295.5 55.5,288C 66.1822,287.832 
76.8489,287.332 87.5,286.5C 92.7837,276.267 97.7837,265.934 102.5,255.5 Z"/>
</g>
</svg>
