<?xml version="1.0" encoding="UTF-8"?>
<!DOCTYPE svg PUBLIC "-//W3C//DTD SVG 1.1//EN" "http://www.w3.org/Graphics/SVG/1.1/DTD/svg11.dtd">
<svg xmlns="http://www.w3.org/2000/svg" version="1.1" width="512px" height="512px" style="shape-rendering:geometricPrecision; text-rendering:geometricPrecision; image-rendering:optimizeQuality; fill-rule:evenodd; clip-rule:evenodd" xmlns:xlink="http://www.w3.org/1999/xlink">
<g fill="#c55656" stroke="none">
<path  d="M 233.5,-0.5 C 248.167,-0.5 262.833,-0.5 277.5,-0.5C 318.511,10.5561 338.845,37.5561 338.5,80.5C 347.251,84.6217 355.418,89.6217 363,95.5C 368.667,71.8333 374.333,48.1667 380,24.5C 382.872,14.6439 389.372,10.8106 399.5,13C 415.167,21.3333 430.833,29.6667 446.5,38C 454.97,43.411 457.47,50.911 454,60.5C 444.851,97.0946 436.018,133.761 427.5,170.5C 432.364,183.592 436.53,196.926 440,210.5C 442.458,222.376 443.792,234.376 444,246.5C 444.667,321.167 444.667,395.833 444,470.5C 439.987,493.679 426.487,507.345 403.5,511.5C 303.5,511.5 203.5,511.5 103.5,511.5C 81.3198,504.803 69.1532,489.803 67,466.5C 66.3333,390.167 66.3333,313.833 67,237.5C 68.6565,214.041 74.1565,191.541 83.5,170C 74.9029,133.445 66.0696,96.9449 57,60.5C 53.9814,52.5968 55.4814,45.7634 61.5,40C 78.1667,31 94.8333,22 111.5,13C 121.628,10.8106 128.128,14.6439 131,24.5C 136.391,47.9605 142.225,71.2938 148.5,94.5C 155.844,88.824 163.844,84.1573 172.5,80.5C 172.155,37.5561 192.489,10.5561 233.5,-0.5 Z M 308.5,68.5 C 273.172,59.167 237.838,59.167 202.5,68.5C 204.918,46.5039 216.918,33.0039 238.5,28C 249.833,27.3333 261.167,27.3333 272.5,28C 294.085,33.0172 306.085,46.5172 308.5,68.5 Z M 243.5,105.5 C 307.887,103.931 356.387,130.598 389,185.5C 401.454,208.979 407.12,233.979 406,260.5C 402.78,267.694 397.28,270.527 389.5,269C 384.901,267.402 382.068,264.235 381,259.5C 378.899,202.745 352.065,162.912 300.5,140C 253.486,124.168 210.819,131.834 172.5,163C 144.603,188.974 130.436,221.141 130,259.5C 127.314,267.429 121.814,270.596 113.5,269C 109.333,267.5 106.5,264.667 105,260.5C 104.666,207.104 125.832,164.604 168.5,133C 191.301,117.589 216.301,108.423 243.5,105.5 Z M 114.5,335.5 C 209.557,335.007 304.557,335.507 399.5,337C 402.728,338.563 404.895,341.063 406,344.5C 406.667,380.167 406.667,415.833 406,451.5C 404.373,456.062 401.206,458.895 396.5,460C 301.444,460.993 206.444,460.659 111.5,459C 108.527,457.235 106.36,454.735 105,451.5C 104.333,415.833 104.333,380.167 105,344.5C 106.871,340.006 110.038,337.006 114.5,335.5 Z"/>
<path  d="M 130.5,361.5 C 213.833,361.5 297.167,361.5 380.5,361.5C 380.5,385.5 380.5,409.5 380.5,433.5C 297.167,433.5 213.833,433.5 130.5,433.5C 130.5,409.5 130.5,385.5 130.5,361.5 Z"/>
</g>
</svg>