<?xml version="1.0" encoding="UTF-8"?>
<!DOCTYPE svg PUBLIC "-//W3C//DTD SVG 1.1//EN" "http://www.w3.org/Graphics/SVG/1.1/DTD/svg11.dtd">
<svg xmlns="http://www.w3.org/2000/svg" version="1.1" width="512px" height="512px" style="shape-rendering:geometricPrecision; text-rendering:geometricPrecision; image-rendering:optimizeQuality; fill-rule:evenodd; clip-rule:evenodd" xmlns:xlink="http://www.w3.org/1999/xlink">
<g fill="#c55656" stroke="none">
<path d="M 511.5,67.5 C 511.5,123.5 511.5,179.5 511.5,235.5C 500.003,310.834 458.003,360.334 385.5,384C 374.962,386.419 364.629,385.753 354.5,382C 353.572,381.612 352.905,380.945 352.5,380C 361.45,346.256 361.784,312.423 353.5,278.5C 379.215,271.738 401.548,277.572 420.5,296C 428.417,301.207 435.583,300.373 442,293.5C 446.07,285.458 444.904,278.291 438.5,272C 410.712,248.24 379.045,240.907 343.5,250C 332.773,226.546 321.773,203.212 310.5,180C 325.808,180.123 338.975,174.956 350,164.5C 356.993,151.485 353.326,143.151 339,139.5C 333.131,141.033 327.964,143.866 323.5,148C 316.493,150.904 309.493,150.571 302.5,147C 299.238,143.905 295.572,141.405 291.5,139.5C 284.273,123.379 276.773,107.379 269,91.5C 265.984,87.9083 262.151,85.7416 257.5,85C 249.841,84.5003 242.174,84.3336 234.5,84.5C 234.334,78.8236 234.501,73.1569 235,67.5C 236.686,62.6058 239.853,59.1058 244.5,57C 275.299,46.507 306.966,40.507 339.5,39C 382.526,36.2779 425.192,38.9446 467.5,47C 480.577,49.7679 493.243,53.7679 505.5,59C 507.902,61.6713 509.902,64.5046 511.5,67.5 Z M 411.5,139.5 C 418.379,139.273 424.045,141.773 428.5,147C 439.791,152.115 449.791,150.115 458.5,141C 468.635,137.984 475.468,141.484 479,151.5C 479.822,159.025 476.988,164.859 470.5,169C 449.833,183 429.167,183 408.5,169C 395.826,157.58 396.826,147.746 411.5,139.5 Z"/>
<path d="M -0.5,241.5 C -0.5,237.167 -0.5,232.833 -0.5,228.5C 3.22653,223.265 7.55987,218.432 12.5,214C 62.3617,173.395 118.362,143.728 180.5,125C 200.388,118.741 220.721,115.408 241.5,115C 246.185,116.35 249.685,119.183 252,123.5C 275.547,173.261 298.547,223.261 321,273.5C 340.465,341.801 325.965,401.635 277.5,453C 272.457,457.712 267.123,462.045 261.5,466C 189.617,482.372 129.784,462.539 82,406.5C 77.0852,399.672 72.4186,392.672 68,385.5C 45.3918,337.288 22.5584,289.288 -0.5,241.5 Z M 230.5,212.5 C 240.377,211.709 249.71,213.542 258.5,218C 264.492,224.772 264.992,231.939 260,239.5C 255.1,243.768 249.6,244.935 243.5,243C 229.992,240.503 220.825,245.67 216,258.5C 207.701,267.746 199.368,267.746 191,258.5C 187.672,253.179 187.672,247.846 191,242.5C 199.157,225.836 212.324,215.836 230.5,212.5 Z M 119.5,265.5 C 128.267,265.442 136.6,267.275 144.5,271C 152.709,279.367 152.375,287.367 143.5,295C 141.913,295.862 140.246,296.529 138.5,297C 133.442,297.263 128.442,296.763 123.5,295.5C 112.461,296.27 105.294,301.936 102,312.5C 94,320.5 86,320.5 78,312.5C 74.7348,306.528 74.7348,300.528 78,294.5C 86.9502,277.78 100.783,268.114 119.5,265.5 Z M 255.5,313.5 C 268.472,314.786 273.638,321.786 271,334.5C 250.207,380.156 214.707,400.323 164.5,395C 157.909,393.77 151.576,391.77 145.5,389C 139.13,383.081 137.963,376.247 142,368.5C 146.295,363.105 151.795,361.271 158.5,363C 199.601,373.532 228.435,359.365 245,320.5C 247.701,316.748 251.201,314.415 255.5,313.5 Z"/>
</g>
</svg>
