<?xml version="1.0" encoding="UTF-8"?>
<!DOCTYPE svg PUBLIC "-//W3C//DTD SVG 1.1//EN" "http://www.w3.org/Graphics/SVG/1.1/DTD/svg11.dtd">
<svg xmlns="http://www.w3.org/2000/svg" version="1.1" width="512px" height="512px" style="shape-rendering:geometricPrecision; text-rendering:geometricPrecision; image-rendering:optimizeQuality; fill-rule:evenodd; clip-rule:evenodd" xmlns:xlink="http://www.w3.org/1999/xlink">
<g fill="#c55656" stroke="none">
<path d="M 284.5,-0.5 C 291.167,-0.5 297.833,-0.5 304.5,-0.5C 328.704,6.72495 342.037,23.0583 344.5,48.5C 341.621,79.0469 324.954,95.3802 294.5,97.5C 268.987,96.1558 252.82,83.1558 246,58.5C 242.835,28.1188 255.668,8.45213 284.5,-0.5 Z"/>
<path d="M 324.5,511.5 C 319.5,511.5 314.5,511.5 309.5,511.5C 297.191,508.023 289.358,500.023 286,487.5C 282.961,441.503 279.961,395.503 277,349.5C 256.911,339.205 236.744,329.039 216.5,319C 205.124,315.572 195.291,318.072 187,326.5C 176.253,346.328 165.253,365.995 154,385.5C 119.874,425.961 85.3742,466.128 50.5,506C 46.9833,508.326 43.3166,510.16 39.5,511.5C 34.1667,511.5 28.8333,511.5 23.5,511.5C 3.19241,502.873 -3.64092,487.873 3,466.5C 6.42237,461.322 10.089,456.322 14,451.5C 44,416.167 74,380.833 104,345.5C 118.079,319.007 132.413,292.673 147,266.5C 158.428,237.148 170.261,207.982 182.5,179C 168.868,179.266 155.201,179.932 141.5,181C 115.5,209.667 89.5,238.333 63.5,267C 49.2815,274.737 37.7815,271.904 29,258.5C 26.0087,251.075 26.342,243.742 30,236.5C 58.4637,204.368 87.2971,172.534 116.5,141C 119.948,139.073 123.615,137.739 127.5,137C 165.092,129.082 202.592,120.915 240,112.5C 255.769,125.427 273.936,132.26 294.5,133C 311.93,144.798 329.097,156.965 346,169.5C 375.64,155.597 405.473,142.097 435.5,129C 457.294,127.794 466.461,137.96 463,159.5C 460.55,164.284 457.05,168.117 452.5,171C 418.668,186.721 384.668,202.055 350.5,217C 342.71,219.045 335.377,217.711 328.5,213C 317,204.833 305.5,196.667 294,188.5C 279.913,213.673 266.079,239.007 252.5,264.5C 275.854,277.177 299.52,289.344 323.5,301C 334.959,308.75 340.459,319.584 340,333.5C 343.293,384.151 345.96,434.818 348,485.5C 345.179,498.816 337.345,507.483 324.5,511.5 Z"/>
<path d="M 511.5,444.5 C 511.5,453.833 511.5,463.167 511.5,472.5C 504.555,493.112 490.555,506.112 469.5,511.5C 462.833,511.5 456.167,511.5 449.5,511.5C 418.164,502.295 403.997,481.295 407,448.5C 415.895,416.959 436.728,402.792 469.5,406C 490.735,411.073 504.735,423.906 511.5,444.5 Z"/>
</g>
</svg>
