<?xml version="1.0" encoding="UTF-8"?>
<!DOCTYPE svg PUBLIC "-//W3C//DTD SVG 1.1//EN" "http://www.w3.org/Graphics/SVG/1.1/DTD/svg11.dtd">
<svg xmlns="http://www.w3.org/2000/svg" version="1.1" width="512px" height="512px" style="shape-rendering:geometricPrecision; text-rendering:geometricPrecision; image-rendering:optimizeQuality; fill-rule:evenodd; clip-rule:evenodd" xmlns:xlink="http://www.w3.org/1999/xlink">
<g fill="#3FB8AF" stroke="none">
<path d="M 126.5,-0.5 C 137.833,-0.5 149.167,-0.5 160.5,-0.5C 214.951,8.11294 253.784,37.4463 277,87.5C 299.383,150.457 286.883,205.29 239.5,252C 197.761,286.462 150.761,296.128 98.5,281C 42.215,259.889 9.21498,219.722 -0.5,160.5C -0.5,149.167 -0.5,137.833 -0.5,126.5C 8.7219,68.4376 40.7219,28.6043 95.5,7C 105.775,3.68014 116.108,1.18014 126.5,-0.5 Z M 138.5,65.5 C 149.37,64.2615 156.036,68.9281 158.5,79.5C 163.921,81.6233 168.754,84.6233 173,88.5C 177.227,98.4885 174.394,105.655 164.5,110C 161.833,110.667 159.167,110.667 156.5,110C 150.367,105.462 143.701,104.129 136.5,106C 133.682,109.338 132.849,113.171 134,117.5C 143.616,123.153 153.783,127.653 164.5,131C 187.634,145.413 193.134,164.913 181,189.5C 175.282,198.4 167.448,204.4 157.5,207.5C 157.173,216.493 152.507,221.16 143.5,221.5C 135.593,221.221 130.926,217.221 129.5,209.5C 120.412,207.872 112.245,204.206 105,198.5C 100.759,192.408 100.426,186.075 104,179.5C 108.574,174.85 114.074,173.35 120.5,175C 128.582,180.936 137.582,182.936 147.5,181C 154.398,178.735 158.065,173.901 158.5,166.5C 158.195,163.724 157.195,161.224 155.5,159C 142.25,154.144 129.583,148.144 117.5,141C 104.536,129.646 101.036,115.812 107,99.5C 111.505,89.158 119.005,82.158 129.5,78.5C 129.797,72.223 132.797,67.8897 138.5,65.5 Z"/>
<path d="M 409.5,-0.5 C 413.5,-0.5 417.5,-0.5 421.5,-0.5C 425.01,1.35748 427.843,4.02414 430,7.5C 456.943,45.7431 484.11,83.7431 511.5,121.5C 511.5,125.5 511.5,129.5 511.5,133.5C 509.685,137.479 506.685,140.312 502.5,142C 491.839,142.5 481.172,142.667 470.5,142.5C 470.667,160.836 470.5,179.17 470,197.5C 468.5,201.667 465.667,204.5 461.5,206C 430.833,206.667 400.167,206.667 369.5,206C 365.333,204.5 362.5,201.667 361,197.5C 360.5,179.17 360.333,160.836 360.5,142.5C 349.397,142.954 338.397,142.454 327.5,141C 320.856,136.174 318.689,129.674 321,121.5C 347.667,83.5 374.333,45.5 401,7.5C 403.157,4.02414 405.99,1.35748 409.5,-0.5 Z"/>
<path d="M 461.5,511.5 C 430.833,511.5 400.167,511.5 369.5,511.5C 365.521,509.685 362.688,506.685 361,502.5C 360.333,418.167 360.333,333.833 361,249.5C 362.5,245.333 365.333,242.5 369.5,241C 400.167,240.333 430.833,240.333 461.5,241C 465.667,242.5 468.5,245.333 470,249.5C 470.667,333.833 470.667,418.167 470,502.5C 468.312,506.685 465.479,509.685 461.5,511.5 Z"/>
<path d="M 301.5,511.5 C 270.833,511.5 240.167,511.5 209.5,511.5C 205.521,509.685 202.688,506.685 201,502.5C 200.333,439.5 200.333,376.5 201,313.5C 202.5,309.333 205.333,306.5 209.5,305C 240.167,304.333 270.833,304.333 301.5,305C 305.667,306.5 308.5,309.333 310,313.5C 310.667,376.5 310.667,439.5 310,502.5C 308.312,506.685 305.479,509.685 301.5,511.5 Z"/>
<path d="M 141.5,511.5 C 110.833,511.5 80.1667,511.5 49.5,511.5C 45.5212,509.685 42.6878,506.685 41,502.5C 40.3333,455.5 40.3333,408.5 41,361.5C 42.5,357.333 45.3333,354.5 49.5,353C 80.1667,352.333 110.833,352.333 141.5,353C 145.667,354.5 148.5,357.333 150,361.5C 150.667,408.5 150.667,455.5 150,502.5C 148.312,506.685 145.479,509.685 141.5,511.5 Z"/>
</g>
</svg>
