<?xml version="1.0" encoding="UTF-8"?>
<!DOCTYPE svg PUBLIC "-//W3C//DTD SVG 1.1//EN" "http://www.w3.org/Graphics/SVG/1.1/DTD/svg11.dtd">
<svg xmlns="http://www.w3.org/2000/svg" version="1.1" width="512px" height="512px" style="shape-rendering:geometricPrecision; text-rendering:geometricPrecision; image-rendering:optimizeQuality; fill-rule:evenodd; clip-rule:evenodd" xmlns:xlink="http://www.w3.org/1999/xlink">
<g fill="#3FB8AF" stroke="none">
<path d="M 120.5,-0.5 C 128.5,-0.5 136.5,-0.5 144.5,-0.5C 174.453,6.47594 200.786,20.3093 223.5,41C 241.362,58.5284 258.862,76.3617 276,94.5C 294.094,116.026 305.761,140.692 311,168.5C 312.81,180.708 311.144,192.375 306,203.5C 301.28,212.627 294.113,215.461 284.5,212C 262.348,190.681 240.348,169.181 218.5,147.5C 165.319,200.514 111.986,253.347 58.5,306C 36.5009,316.458 18.3342,311.958 4,292.5C 2.17763,288.843 0.677626,285.176 -0.5,281.5C -0.5,275.5 -0.5,269.5 -0.5,263.5C 1.42666,258.313 3.92666,253.313 7,248.5C 59.1667,196.333 111.333,144.167 163.5,92C 142.667,71.1667 121.833,50.3333 101,29.5C 94.4663,18.3893 96.9663,9.88932 108.5,4C 112.571,2.36954 116.571,0.869545 120.5,-0.5 Z"/>
<path d="M 391.5,127.5 C 404.137,126.304 409.97,131.971 409,144.5C 399.667,163.167 390.333,181.833 381,200.5C 375.72,204.755 369.886,205.588 363.5,203C 357.514,197.993 356.014,191.826 359,184.5C 367.333,167.833 375.667,151.167 384,134.5C 385.742,131.254 388.242,128.921 391.5,127.5 Z"/>
<path d="M 511.5,211.5 C 511.5,251.833 511.5,292.167 511.5,332.5C 500.162,332.667 488.828,332.5 477.5,332C 469.434,323.264 460.767,315.264 451.5,308C 442.184,306.646 436.85,310.646 435.5,320C 435.7,323.233 436.867,326.067 439,328.5C 448.196,338.03 457.696,347.197 467.5,356C 482.095,357.45 496.761,357.95 511.5,357.5C 511.5,406.167 511.5,454.833 511.5,503.5C 509.833,507.167 507.167,509.833 503.5,511.5C 454.833,511.5 406.167,511.5 357.5,511.5C 357.333,500.162 357.5,488.828 358,477.5C 366.736,469.434 374.736,460.767 382,451.5C 383.365,442.372 379.532,437.039 370.5,435.5C 368.366,435.515 366.366,436.015 364.5,437C 354.667,446.833 344.833,456.667 335,466.5C 334.138,468.087 333.471,469.754 333,471.5C 332.5,484.829 332.333,498.163 332.5,511.5C 275.167,511.5 217.833,511.5 160.5,511.5C 153.231,506.953 151.064,500.62 154,492.5C 180.205,447.917 207.039,403.75 234.5,360C 259.684,350.938 285.018,342.272 310.5,334C 326.791,309.919 342.957,285.753 359,261.5C 360.167,259.667 361.667,258.167 363.5,257C 408.29,238.604 453.29,220.77 498.5,203.5C 504.329,203.907 508.662,206.573 511.5,211.5 Z"/>
<path d="M 186.5,255.5 C 189.85,255.335 193.183,255.502 196.5,256C 214.5,265 232.5,274 250.5,283C 255.717,288.296 256.884,294.463 254,301.5C 250.509,305.884 246.009,307.718 240.5,307C 221.589,298.545 202.923,289.545 184.5,280C 178.031,274.135 176.864,267.302 181,259.5C 182.812,258.023 184.645,256.69 186.5,255.5 Z"/>
<path d="M 112.5,331.5 C 131.17,331.333 149.836,331.5 168.5,332C 178.559,335.844 181.392,342.677 177,352.5C 175.039,355.135 172.539,356.969 169.5,358C 150.167,358.667 130.833,358.667 111.5,358C 105.029,356.361 101.696,352.194 101.5,345.5C 101.867,338.042 105.534,333.375 112.5,331.5 Z"/>
</g>
</svg>
