<?xml version="1.0" standalone="no"?>
<!DOCTYPE svg PUBLIC "-//W3C//DTD SVG 20010904//EN"
 "http://www.w3.org/TR/2001/REC-SVG-20010904/DTD/svg10.dtd">
<svg version="1.0" xmlns="http://www.w3.org/2000/svg"
 width="512.000000pt" height="512.000000pt" viewBox="0 0 512.000000 512.000000"
 preserveAspectRatio="xMidYMid meet">

<g transform="translate(0.000000,512.000000) scale(0.100000,-0.100000)"
fill="#c55656" stroke="none">
<path d="M1062 5100 c-109 -29 -187 -74 -272 -160 -87 -86 -131 -163 -160
-276 -63 -244 41 -509 252 -651 107 -71 197 -98 328 -98 84 0 120 5 179 24
299 98 479 423 401 725 -11 43 -34 105 -52 139 -42 81 -164 203 -245 245 -132
69 -291 88 -431 52z"/>
<path d="M3762 5100 c-109 -29 -187 -74 -272 -160 -87 -86 -131 -163 -160
-276 -63 -244 41 -509 252 -651 107 -71 197 -98 328 -98 84 0 120 5 179 24
299 98 479 423 401 725 -11 43 -34 105 -52 139 -42 81 -164 203 -245 245 -132
69 -291 88 -431 52z"/>
<path d="M1351 3879 c-255 -30 -507 -153 -691 -339 -243 -244 -372 -574 -372
-955 0 -361 119 -661 402 -1015 140 -174 663 -683 750 -730 12 -7 49 -12 81
-12 171 0 289 113 297 285 6 114 -26 174 -150 287 -163 149 -378 362 -463 460
-210 242 -297 403 -314 578 l-7 72 150 -2 151 -3 7 -50 c11 -76 78 -199 173
-317 82 -103 355 -383 461 -474 l50 -43 90 43 c103 50 214 88 334 113 119 25
401 25 520 0 119 -26 252 -70 345 -116 l80 -39 40 33 c87 72 391 384 471 484
95 117 161 240 172 316 l7 50 151 3 150 2 -7 -72 c-17 -173 -108 -341 -314
-578 -85 -97 -325 -336 -473 -470 -106 -95 -142 -162 -142 -260 0 -95 23 -155
85 -216 66 -66 128 -88 229 -82 42 3 86 13 108 24 52 27 358 316 516 486 229
249 353 418 450 614 100 200 144 390 144 624 0 232 -41 425 -128 609 -189 400
-537 648 -970 692 -207 21 -401 -14 -589 -106 -202 -99 -369 -249 -507 -455
-39 -58 -74 -105 -78 -105 -4 0 -40 50 -81 110 -270 404 -680 606 -1128 554z
m1334 -884 c114 -24 209 -77 295 -164 86 -88 132 -166 160 -277 36 -141 18
-294 -52 -427 -42 -81 -164 -203 -245 -245 -133 -70 -286 -88 -427 -52 -111
28 -189 73 -276 160 -87 86 -131 162 -160 276 -36 141 -18 294 52 427 47 90
165 205 259 251 127 63 258 80 394 51z"/>
<path d="M2463 2692 c-264 -94 -268 -464 -6 -562 143 -53 303 11 370 148 36
74 39 182 7 253 -65 140 -229 212 -371 161z"/>
<path d="M2400 1493 c-107 -18 -330 -94 -330 -112 0 -4 10 -34 21 -67 30 -83
37 -247 15 -334 -37 -149 -145 -293 -278 -372 -37 -22 -68 -41 -68 -43 0 -1
87 -76 192 -167 106 -91 233 -201 283 -243 159 -138 306 -182 470 -140 107 27
158 63 430 304 l265 235 -84 44 c-149 77 -261 219 -302 382 -22 87 -15 251 15
334 11 33 21 62 21 66 0 20 -177 83 -294 105 -72 14 -292 19 -356 8z"/>
</g>
</svg>
