<?xml version="1.0" encoding="UTF-8"?>
<!DOCTYPE svg PUBLIC "-//W3C//DTD SVG 1.1//EN" "http://www.w3.org/Graphics/SVG/1.1/DTD/svg11.dtd">
<svg xmlns="http://www.w3.org/2000/svg" version="1.1" width="512px" height="512px" style="shape-rendering:geometricPrecision; text-rendering:geometricPrecision; image-rendering:optimizeQuality; fill-rule:evenodd; clip-rule:evenodd" xmlns:xlink="http://www.w3.org/1999/xlink">
<g fill="#1e8326" stroke="none">
<path d="M 373.5,-0.5 C 382.5,-0.5 391.5,-0.5 400.5,-0.5C 440.171,6.99755 466.338,29.9975 479,68.5C 479.953,71.4318 480.453,74.4318 480.5,77.5C 490.833,77.5 501.167,77.5 511.5,77.5C 511.5,87.5 511.5,97.5 511.5,107.5C 501.5,107.5 491.5,107.5 481.5,107.5C 478.79,128.585 469.957,146.585 455,161.5C 455.923,181.499 457.256,201.499 459,221.5C 463.457,306.44 429.29,370.274 356.5,413C 333.032,424.878 308.365,433.045 282.5,437.5C 289.308,451.92 296.308,466.253 303.5,480.5C 325.823,481.5 348.157,481.833 370.5,481.5C 370.5,491.5 370.5,501.5 370.5,511.5C 322.833,511.5 275.167,511.5 227.5,511.5C 227.5,501.5 227.5,491.5 227.5,481.5C 241.183,481.833 254.85,481.499 268.5,480.5C 261.833,466.5 255.167,452.5 248.5,438.5C 165.805,430.679 83.1385,422.679 0.5,414.5C 25.2857,396.267 50.2857,378.267 75.5,360.5C 108.443,363.995 141.443,367.162 174.5,370C 241.463,374.687 298.296,353.187 345,305.5C 381.377,264.545 398.21,216.545 395.5,161.5C 385.841,162.269 376.175,162.935 366.5,163.5C 367.932,232.487 339.266,284.654 280.5,320C 247.66,337.625 212.66,344.625 175.5,341C 154.433,339.343 133.433,337.176 112.5,334.5C 123.307,326.86 133.974,319.026 144.5,311C 166.553,291.075 181.053,266.575 188,237.5C 198.707,211.93 214.874,190.43 236.5,173C 245.833,166.667 255.167,160.333 264.5,154C 276.749,143.754 284.916,130.92 289,115.5C 290.926,103.246 292.26,90.9124 293,78.5C 302.878,34.7878 329.711,8.45442 373.5,-0.5 Z"/>
</g>
</svg>
