<?xml version="1.0" encoding="UTF-8"?>
<!DOCTYPE svg PUBLIC "-//W3C//DTD SVG 1.1//EN" "http://www.w3.org/Graphics/SVG/1.1/DTD/svg11.dtd">
<svg xmlns="http://www.w3.org/2000/svg" version="1.1" width="512px" height="512px" style="shape-rendering:geometricPrecision; text-rendering:geometricPrecision; image-rendering:optimizeQuality; fill-rule:evenodd; clip-rule:evenodd" xmlns:xlink="http://www.w3.org/1999/xlink">
<g fill="#3FB8AF" stroke="none">
<path d="M 222.5,7.5 C 244.836,7.33337 267.169,7.50004 289.5,8C 308.592,12.7596 320.759,24.593 326,43.5C 326.966,50.3649 327.8,57.1982 328.5,64C 332.741,65.7045 336.907,67.5378 341,69.5C 356.071,51.5877 374.905,45.7544 397.5,52C 403.628,54.5635 409.295,57.8968 414.5,62C 427.696,74.8622 440.53,88.0289 453,101.5C 468.042,127.583 464.542,150.916 442.5,171.5C 444.644,175.621 446.644,179.788 448.5,184C 478.097,182.629 496.597,196.129 504,224.5C 504.667,245.5 504.667,266.5 504,287.5C 500.033,307.61 488.2,320.443 468.5,326C 461.563,327.288 454.563,327.788 447.5,327.5C 446.432,332.033 444.766,336.366 442.5,340.5C 460.927,356.538 466.427,376.205 459,399.5C 456.121,405.705 452.454,411.372 448,416.5C 435.804,429.03 423.304,441.196 410.5,453C 384.381,468.21 361.047,464.71 340.5,442.5C 336.366,444.766 332.033,446.432 327.5,447.5C 329.42,471.839 319.753,489.673 298.5,501C 294.943,502.408 291.276,503.408 287.5,504C 277,504.167 266.5,504.333 256,504.5C 243.788,504.614 231.621,504.114 219.5,503C 193.884,493.508 182.218,475.008 184.5,447.5C 179.967,446.432 175.634,444.766 171.5,442.5C 148.882,466.05 124.215,468.55 97.5,450C 83.9706,436.805 70.8039,423.305 58,409.5C 43.6413,383.625 47.4747,360.792 69.5,341C 67.5,336.667 65.5,332.333 63.5,328C 34.952,329.332 16.452,316.499 8,289.5C 7.33333,267.167 7.33333,244.833 8,222.5C 16.4654,195.496 34.9654,182.663 63.5,184C 65.5,179.667 67.5,175.333 69.5,171C 46.5599,149.782 43.3932,125.948 60,99.5C 74.5606,84.2707 89.7272,69.7707 105.5,56C 130.729,44.1123 152.562,48.6123 171,69.5C 175.093,67.5378 179.259,65.7045 183.5,64C 182.291,35.0862 195.291,16.2529 222.5,7.5 Z M 253.5,125.5 C 272.867,127.848 281.534,138.848 279.5,158.5C 294.61,164.438 305.776,174.772 313,189.5C 316.187,205.286 310.021,215.452 294.5,220C 288.443,221.162 282.777,220.162 277.5,217C 273.167,212 268.833,207 264.5,202C 251.026,197.069 242.693,201.569 239.5,215.5C 239.863,223.027 243.529,228.194 250.5,231C 284.007,231.866 306.174,248.033 317,279.5C 322.367,312.767 310.2,337.1 280.5,352.5C 279.821,358.865 278.988,365.198 278,371.5C 271.045,384.268 260.545,388.435 246.5,384C 239.339,381.192 234.839,376.026 233,368.5C 232.829,363.136 232.329,357.802 231.5,352.5C 213.894,345.068 202.56,332.235 197.5,314C 199.835,299.833 208.168,292 222.5,290.5C 227.236,290.912 231.57,292.412 235.5,295C 239.167,299.333 242.833,303.667 246.5,308C 255.966,312.648 263.799,310.815 270,302.5C 273.859,292.808 271.359,285.308 262.5,280C 238.352,279.675 218.852,270.175 204,251.5C 185.902,219.455 190.402,190.955 217.5,166C 222.087,162.788 226.92,159.955 232,157.5C 230.524,140.731 237.691,130.064 253.5,125.5 Z"/>
</g>
</svg>
