<?xml version="1.0" encoding="UTF-8"?>
<!DOCTYPE svg PUBLIC "-//W3C//DTD SVG 1.1//EN" "http://www.w3.org/Graphics/SVG/1.1/DTD/svg11.dtd">
<svg xmlns="http://www.w3.org/2000/svg" version="1.1" width="512px" height="512px" style="shape-rendering:geometricPrecision; text-rendering:geometricPrecision; image-rendering:optimizeQuality; fill-rule:evenodd; clip-rule:evenodd" xmlns:xlink="http://www.w3.org/1999/xlink">
<g fill="#c55656" stroke="none">
<path d="M 101.5,31.5 C 204.167,31.3333 306.834,31.5 409.5,32C 429.333,37.1667 441.833,49.6667 447,69.5C 447.667,77.8333 447.667,86.1667 447,94.5C 319.57,95.6655 192.07,95.8322 64.5,95C 58.7327,62.9989 71.066,41.8323 101.5,31.5 Z"/>
<path d="M 64.5,127.5 C 191.834,127.333 319.167,127.5 446.5,128C 447.665,232.43 447.832,336.93 447,441.5C 442.762,462.071 430.262,474.238 409.5,478C 398.087,479.937 386.587,480.771 375,480.5C 367.4,480.634 359.9,480.134 352.5,479C 351.894,448.22 351.061,417.387 350,386.5C 342.418,345.916 318.918,319.416 279.5,307C 232.813,298.43 196.979,314.263 172,354.5C 166.338,364.827 162.671,375.827 161,387.5C 159.961,418.056 159.127,448.556 158.5,479C 141.523,480.913 124.523,480.913 107.5,479C 83.7176,477.056 69.2176,464.556 64,441.5C 63.1691,336.764 63.3358,232.097 64.5,127.5 Z M 244.5,160.5 C 276.264,156.849 299.098,169.182 313,197.5C 322.906,224.968 318.073,249.468 298.5,271C 281.22,285.193 261.553,289.86 239.5,285C 209.46,275.761 193.794,255.261 192.5,223.5C 194.723,189.641 212.057,168.641 244.5,160.5 Z"/>
</g>
</svg>
