<?xml version="1.0" encoding="UTF-8"?>
<!DOCTYPE svg PUBLIC "-//W3C//DTD SVG 1.1//EN" "http://www.w3.org/Graphics/SVG/1.1/DTD/svg11.dtd">
<svg xmlns="http://www.w3.org/2000/svg" version="1.1" width="512px" height="512px" style="shape-rendering:geometricPrecision; text-rendering:geometricPrecision; image-rendering:optimizeQuality; fill-rule:evenodd; clip-rule:evenodd" xmlns:xlink="http://www.w3.org/1999/xlink">
<g fill="#c55656" stroke="none">
<path d="M 50.5,-0.5 C 84.1667,-0.5 117.833,-0.5 151.5,-0.5C 153.374,3.6655 155.041,7.99884 156.5,12.5C 155.256,21.7862 150.256,27.9529 141.5,31C 126.5,31.3333 111.5,31.6667 96.5,32C 108.768,44.4363 121.102,56.603 133.5,68.5C 148.348,54.4851 162.682,39.9851 176.5,25C 180.258,22.1312 184.258,21.7979 188.5,24C 192.32,27.9553 192.487,32.122 189,36.5C 175.015,51.3186 160.849,65.9852 146.5,80.5C 149.747,85.2532 153.58,89.5865 158,93.5C 203.316,59.3635 253.149,50.8635 307.5,68C 324.139,74.0647 339.306,82.5647 353,93.5C 373.5,73 394,52.5 414.5,32C 394.5,31.6667 374.5,31.3333 354.5,31C 345.518,26.5269 342.351,19.3603 345,9.5C 347.022,4.98004 350.189,1.6467 354.5,-0.5C 389.833,-0.5 425.167,-0.5 460.5,-0.5C 464.811,1.6467 467.978,4.98004 470,9.5C 470.667,44.5 470.667,79.5 470,114.5C 466.337,123.85 459.503,127.35 449.5,125C 444.427,123.594 440.927,120.428 439,115.5C 437.716,95.8846 437.049,76.218 437,56.5C 416.833,76.6667 396.667,96.8333 376.5,117C 411.886,164.159 419.719,215.659 400,271.5C 375.423,327.899 332.589,360.232 271.5,368.5C 271.5,381.5 271.5,394.5 271.5,407.5C 290.836,407.333 310.17,407.5 329.5,408C 342.92,412.824 346.42,421.657 340,434.5C 338.062,437.106 335.562,438.939 332.5,440C 312.169,440.5 291.836,440.667 271.5,440.5C 271.667,460.836 271.5,481.169 271,501.5C 268.978,506.02 265.811,509.353 261.5,511.5C 257.5,511.5 253.5,511.5 249.5,511.5C 245.189,509.353 242.022,506.02 240,501.5C 239.5,481.169 239.333,460.836 239.5,440.5C 219.164,440.667 198.831,440.5 178.5,440C 166.866,433.095 164.7,423.928 172,412.5C 174.707,410.064 177.873,408.564 181.5,408C 200.83,407.5 220.164,407.333 239.5,407.5C 239.5,394.5 239.5,381.5 239.5,368.5C 178.411,360.232 135.577,327.899 111,271.5C 91.2802,215.663 99.1135,164.163 134.5,117C 130.27,113.107 126.437,108.941 123,104.5C 108.137,119.029 93.6374,133.862 79.5,149C 72.2187,153.359 67.2187,151.525 64.5,143.5C 65.1936,140.912 66.3602,138.579 68,136.5C 81.498,122.002 95.3314,107.835 109.5,94C 98.4257,80.9217 86.5924,68.4217 74,56.5C 73.6667,67.8333 73.3333,79.1667 73,90.5C 72.5477,93.1494 71.7143,95.6494 70.5,98C 70.5,101.667 70.5,105.333 70.5,109C 68.9963,110.491 68.1629,112.324 68,114.5C 56.4227,122.789 47.4227,120.789 41,108.5C 40.3333,75.8333 40.3333,43.1667 41,10.5C 42.5992,5.40601 45.7658,1.73934 50.5,-0.5 Z"/>
</g>
</svg>
