<?xml version="1.0" encoding="UTF-8"?>
<!DOCTYPE svg PUBLIC "-//W3C//DTD SVG 1.1//EN" "http://www.w3.org/Graphics/SVG/1.1/DTD/svg11.dtd">
<svg xmlns="http://www.w3.org/2000/svg" version="1.1" width="512px" height="512px" style="shape-rendering:geometricPrecision; text-rendering:geometricPrecision; image-rendering:optimizeQuality; fill-rule:evenodd; clip-rule:evenodd" xmlns:xlink="http://www.w3.org/1999/xlink">
<g fill="#4189db" stroke="none">
<path d="M 303.5,-0.5 C 307.5,-0.5 311.5,-0.5 315.5,-0.5C 358.443,36.4382 401.11,73.7716 443.5,111.5C 403.687,121.786 363.687,131.453 323.5,140.5C 263.845,118.949 204.512,96.6161 145.5,73.5C 198.227,48.8014 250.893,24.1347 303.5,-0.5 Z"/>
<path d="M 110.5,93.5 C 173.117,116.04 235.451,139.373 297.5,163.5C 215.853,271.808 133.853,379.808 51.5,487.5C 41.7547,411.204 32.2547,334.871 23,258.5C 21.4211,248.877 20.7544,239.21 21,229.5C 51.0818,184.267 80.9152,138.933 110.5,93.5 Z"/>
<path d="M 459.5,138.5 C 460.833,138.5 462.167,138.5 463.5,138.5C 472.223,223.838 481.056,309.171 490,394.5C 491.331,401.285 490.331,407.618 487,413.5C 459.653,441.014 432.153,468.347 404.5,495.5C 403.914,495.291 403.414,494.957 403,494.5C 381.638,385.523 360.471,276.523 339.5,167.5C 379.733,158.325 419.733,148.658 459.5,138.5 Z"/>
<path d="M 375.5,511.5 C 274.167,511.5 172.833,511.5 71.5,511.5C 151.991,405.197 232.491,298.863 313,192.5C 334.654,298.607 355.488,404.94 375.5,511.5 Z"/>
</g>
</svg>
