<?xml version="1.0" encoding="UTF-8"?>
<!DOCTYPE svg PUBLIC "-//W3C//DTD SVG 1.1//EN" "http://www.w3.org/Graphics/SVG/1.1/DTD/svg11.dtd">
<svg xmlns="http://www.w3.org/2000/svg" version="1.1" width="512px" height="512px" style="shape-rendering:geometricPrecision; text-rendering:geometricPrecision; image-rendering:optimizeQuality; fill-rule:evenodd; clip-rule:evenodd" xmlns:xlink="http://www.w3.org/1999/xlink">
<g fill="#c55656" stroke="none">
<path d="M -0.5,204.5 C -0.5,188.5 -0.5,172.5 -0.5,156.5C 3.32764,114.329 18.661,76.9958 45.5,44.5C 79.1979,6.98313 120.031,-3.35021 168,13.5C 201.11,31.6195 224.776,58.2862 239,93.5C 252.496,129.615 257.829,166.948 255,205.5C 265.33,237.156 275.663,268.822 286,300.5C 288.374,310.904 286.207,320.07 279.5,328C 271.277,329.438 262.943,329.938 254.5,329.5C 254.667,357.835 254.5,386.169 254,414.5C 252.718,420.113 249.551,424.28 244.5,427C 229.17,427.5 213.837,427.667 198.5,427.5C 198.5,452.833 198.5,478.167 198.5,503.5C 149.166,503.667 99.8322,503.5 50.5,503C 45.4488,500.28 42.2822,496.113 41,490.5C 40.9275,439.485 40.2608,388.485 39,337.5C 37.469,329.709 35.469,322.042 33,314.5C 20.9428,291.013 11.6095,266.346 5,240.5C 2.66174,228.428 0.828408,216.428 -0.5,204.5 Z"/>
<path d="M 224.5,5.5 C 251.652,2.723 276.318,9.05634 298.5,24.5C 322.52,42.3772 340.02,65.3772 351,93.5C 364.612,129.599 369.945,166.932 367,205.5C 377.33,237.156 387.663,268.822 398,300.5C 400.374,310.904 398.207,320.07 391.5,328C 383.277,329.438 374.943,329.938 366.5,329.5C 366.667,357.835 366.5,386.169 366,414.5C 364.718,420.113 361.551,424.28 356.5,427C 341.17,427.5 325.837,427.667 310.5,427.5C 310.5,452.833 310.5,478.167 310.5,503.5C 282.926,503.828 255.426,503.495 228,502.5C 227.333,490.833 227.333,479.167 228,467.5C 259.877,466.018 278.21,449.352 283,417.5C 283.333,400.5 283.667,383.5 284,366.5C 298.841,358.314 308.508,345.981 313,329.5C 316.305,315.506 316.305,301.506 313,287.5C 303.179,257.881 293.512,228.214 284,198.5C 287.047,144.712 275.714,94.3785 250,47.5C 241.115,33.7055 231.282,20.7055 220.5,8.5C 222.184,7.85027 223.517,6.85027 224.5,5.5 Z"/>
<path d="M 511.5,300.5 C 511.5,306.167 511.5,311.833 511.5,317.5C 509.594,322.122 506.594,325.955 502.5,329C 494.507,329.5 486.507,329.666 478.5,329.5C 478.667,357.835 478.5,386.169 478,414.5C 476.718,420.113 473.551,424.28 468.5,427C 453.17,427.5 437.837,427.667 422.5,427.5C 422.667,448.503 422.5,469.503 422,490.5C 420.718,496.113 417.551,500.28 412.5,503C 388.5,503.667 364.5,503.667 340.5,503C 339.512,490.914 339.178,478.747 339.5,466.5C 362.463,468.33 378.963,458.997 389,438.5C 392.014,431.791 394.014,424.791 395,417.5C 395.333,400.5 395.667,383.5 396,366.5C 410.841,358.314 420.508,345.981 425,329.5C 428.305,315.506 428.305,301.506 425,287.5C 415.179,257.881 405.512,228.214 396,198.5C 399.047,144.712 387.714,94.3785 362,47.5C 353.115,33.7055 343.282,20.7055 332.5,8.5C 333.908,7.75675 335.241,6.92342 336.5,6C 355.672,3.92681 374.172,6.42681 392,13.5C 425.08,31.5931 448.747,58.2597 463,93.5C 470.987,113.783 475.987,134.783 478,156.5C 478.055,174.219 478.722,191.886 480,209.5C 490.634,239.905 501.134,270.238 511.5,300.5 Z"/>
</g>
</svg>
