<?xml version="1.0" encoding="UTF-8"?>
<!DOCTYPE svg PUBLIC "-//W3C//DTD SVG 1.1//EN" "http://www.w3.org/Graphics/SVG/1.1/DTD/svg11.dtd">
<svg xmlns="http://www.w3.org/2000/svg" version="1.1" width="512px" height="512px" style="shape-rendering:geometricPrecision; text-rendering:geometricPrecision; image-rendering:optimizeQuality; fill-rule:evenodd; clip-rule:evenodd" xmlns:xlink="http://www.w3.org/1999/xlink">
<g fill="#c55656" stroke="none">
<path d="M 243.5,-0.5 C 251.5,-0.5 259.5,-0.5 267.5,-0.5C 276.705,1.93201 285.372,5.76535 293.5,11C 337.333,45.5 381.167,80 425,114.5C 425.5,90.1689 425.667,65.8356 425.5,41.5C 440.167,41.5 454.833,41.5 469.5,41.5C 469.333,77.5015 469.5,113.502 470,149.5C 481.232,156.731 491.232,165.398 500,175.5C 505.516,183.911 509.349,192.911 511.5,202.5C 511.5,305.5 511.5,408.5 511.5,511.5C 454.5,511.5 397.5,511.5 340.5,511.5C 340.667,445.832 340.5,380.166 340,314.5C 336.603,296.775 326.436,284.941 309.5,279C 291.55,277.86 273.55,277.36 255.5,277.5C 237.45,277.36 219.45,277.86 201.5,279C 184.595,284.914 174.428,296.747 171,314.5C 170.5,380.166 170.333,445.832 170.5,511.5C 113.5,511.5 56.5,511.5 -0.5,511.5C -0.5,408.5 -0.5,305.5 -0.5,202.5C 2.9486,185.444 11.6153,171.611 25.5,161C 89.5,111 153.5,61 217.5,11C 225.659,5.74818 234.325,1.91484 243.5,-0.5 Z"/>
</g>
</svg>
