<?xml version="1.0" encoding="UTF-8"?>
<!DOCTYPE svg PUBLIC "-//W3C//DTD SVG 1.1//EN" "http://www.w3.org/Graphics/SVG/1.1/DTD/svg11.dtd">
<svg xmlns="http://www.w3.org/2000/svg" version="1.1" width="512px" height="512px" style="shape-rendering:geometricPrecision; text-rendering:geometricPrecision; image-rendering:optimizeQuality; fill-rule:evenodd; clip-rule:evenodd" xmlns:xlink="http://www.w3.org/1999/xlink">
<g fill="#4189db" stroke="none">
<path d="M 511.5,93.5 C 511.5,97.5 511.5,101.5 511.5,105.5C 508.932,110.564 504.932,114.064 499.5,116C 450.167,116.333 400.833,116.667 351.5,117C 332.157,124.104 313.824,133.104 296.5,144C 290.305,147.857 285.972,153.191 283.5,160C 285.461,162.963 287.794,165.629 290.5,168C 307.335,178.252 324.335,188.252 341.5,198C 396.049,232.283 418.215,281.45 408,345.5C 403.761,371.882 396.094,397.216 385,421.5C 383.127,423.709 380.96,425.542 378.5,427C 334.878,428.156 291.211,428.656 247.5,428.5C 205.167,428.333 162.833,428.167 120.5,428C 110.301,424.444 106.134,417.278 108,406.5C 110.079,400.753 113.912,396.586 119.5,394C 153.991,374.988 184.491,350.821 211,321.5C 216.305,314.558 220.305,306.891 223,298.5C 225.873,286.993 223.54,276.66 216,267.5C 210.469,261.634 204.635,256.134 198.5,251C 182.554,240.054 166.887,228.721 151.5,217C 125.395,193.275 122.561,167.108 143,138.5C 150.964,130.197 159.797,123.03 169.5,117C 116.833,116.667 64.1667,116.333 11.5,116C 6.0678,114.064 2.0678,110.564 -0.5,105.5C -0.5,101.5 -0.5,97.5 -0.5,93.5C 2.17521,87.9955 6.50854,84.4955 12.5,83C 174.5,82.3333 336.5,82.3333 498.5,83C 504.491,84.4955 508.825,87.9955 511.5,93.5 Z M 288.5,234.5 C 294.026,233.711 299.026,234.878 303.5,238C 314.115,248.721 319.615,261.554 320,276.5C 317.541,283.569 312.541,287.235 305,287.5C 298.866,287.359 294.199,284.693 291,279.5C 288.221,270.605 283.888,262.605 278,255.5C 275.737,245.385 279.237,238.385 288.5,234.5 Z M 333.5,304.5 C 348.972,303.808 355.472,311.141 353,326.5C 349.672,343.817 344.339,360.484 337,376.5C 328.674,387.036 319.674,387.703 310,378.5C 308.239,375.551 307.072,372.384 306.5,369C 309.799,359.437 313.299,349.937 317,340.5C 319.51,331.952 321.51,323.285 323,314.5C 325.106,309.557 328.606,306.224 333.5,304.5 Z"/>
<path d="M 388.5,143.5 C 414.502,143.333 440.502,143.5 466.5,144C 476.788,148.073 480.621,155.573 478,166.5C 475.744,171.757 471.91,175.257 466.5,177C 440.5,177.667 414.5,177.667 388.5,177C 376.476,172.107 372.976,163.607 378,151.5C 380.855,147.789 384.355,145.123 388.5,143.5 Z"/>
<path d="M 27.5,213.5 C 48.2337,213.035 68.9004,213.535 89.5,215C 98.8449,219.86 102.012,227.36 99,237.5C 96.8942,242.147 93.3942,245.314 88.5,247C 66.4361,247.967 44.4361,247.634 22.5,246C 12.1348,238.069 10.8015,228.736 18.5,218C 21.324,215.921 24.324,214.421 27.5,213.5 Z"/>
<path d="M 511.5,240.5 C 511.5,244.5 511.5,248.5 511.5,252.5C 508.739,258.415 504.072,261.915 497.5,263C 484.167,263.667 470.833,263.667 457.5,263C 448.278,261.109 443.278,255.442 442.5,246C 443.376,238.219 447.376,232.885 454.5,230C 469.833,229.333 485.167,229.333 500.5,230C 505.71,232.046 509.377,235.546 511.5,240.5 Z"/>
<path d="M 61.5,284.5 C 89.8353,284.333 118.169,284.5 146.5,285C 156.267,286.435 161.601,292.102 162.5,302C 161.625,309.779 157.625,315.112 150.5,318C 119.167,318.667 87.8333,318.667 56.5,318C 45.6914,312.241 42.8581,303.741 48,292.5C 51.6172,288.116 56.1172,285.45 61.5,284.5 Z"/>
<path d="M 449.5,315.5 C 456.563,315.212 463.563,315.712 470.5,317C 480.53,322.704 483.363,330.871 479,341.5C 476.876,345.313 473.709,347.813 469.5,349C 461.5,349.667 453.5,349.667 445.5,349C 435.883,343.823 432.717,335.99 436,325.5C 439.061,320.069 443.561,316.735 449.5,315.5 Z"/>
</g>
</svg>
