<?xml version="1.0" encoding="UTF-8"?>
<!DOCTYPE svg PUBLIC "-//W3C//DTD SVG 1.1//EN" "http://www.w3.org/Graphics/SVG/1.1/DTD/svg11.dtd">
<svg xmlns="http://www.w3.org/2000/svg" version="1.1" width="512px" height="512px" style="shape-rendering:geometricPrecision; text-rendering:geometricPrecision; image-rendering:optimizeQuality; fill-rule:evenodd; clip-rule:evenodd" xmlns:xlink="http://www.w3.org/1999/xlink">
<g fill="#e77a21" stroke="none">
<path d="M 132.5,31.5 C 169.829,29.8369 190.496,47.5036 194.5,84.5C 192.868,111.272 179.201,128.439 153.5,136C 129.168,140.453 110.001,132.619 96,112.5C 85.4864,92.1107 86.153,72.1107 98,52.5C 106.799,41.019 118.299,34.019 132.5,31.5 Z"/>
<path d="M 367.5,39.5 C 372.461,38.6866 376.794,39.8533 380.5,43C 411.72,70.5213 443.22,97.688 475,124.5C 480.032,132.678 479.532,140.511 473.5,148C 471.725,149.439 469.725,150.439 467.5,151C 459.841,151.5 452.174,151.666 444.5,151.5C 444.667,224.501 444.5,297.501 444,370.5C 443.215,372.286 442.049,373.786 440.5,375C 394.833,375.667 349.167,375.667 303.5,375C 301.951,373.786 300.785,372.286 300,370.5C 299.5,297.501 299.333,224.501 299.5,151.5C 291.493,151.666 283.493,151.5 275.5,151C 265.968,145.748 263.135,137.915 267,127.5C 268.458,125.04 270.291,122.873 272.5,121C 304.359,93.9685 336.025,66.8018 367.5,39.5 Z"/>
<path d="M 72.5,152.5 C 118.168,152.333 163.835,152.5 209.5,153C 234.384,158.553 247.884,174.053 250,199.5C 250.667,233.833 250.667,268.167 250,302.5C 247.581,319.753 237.747,329.42 220.5,331.5C 220.667,296.498 220.5,261.498 220,226.5C 217.91,220.708 214.076,219.208 208.5,222C 207.299,222.903 206.465,224.069 206,225.5C 205.667,302.833 205.333,380.167 205,457.5C 199.657,474.427 188.157,481.593 170.5,479C 160.522,476.357 153.689,470.191 150,460.5C 148.696,421.205 148.03,381.872 148,342.5C 142.833,336.908 138.167,337.241 134,343.5C 133.667,381.5 133.333,419.5 133,457.5C 127.669,474.421 116.169,481.588 98.5,479C 86.0221,475.521 78.8554,467.354 77,454.5C 76.6667,377.833 76.3333,301.167 76,224.5C 70.3588,218.696 65.6922,219.363 62,226.5C 61.5,261.498 61.3333,296.498 61.5,331.5C 46.9278,329.471 37.4278,321.471 33,307.5C 32.3333,268.833 32.3333,230.167 33,191.5C 38.126,170.206 51.2926,157.206 72.5,152.5 Z"/>
<path d="M 303.5,407.5 C 349.168,407.333 394.835,407.5 440.5,408C 445.833,413 445.833,418 440.5,423C 394.833,423.667 349.167,423.667 303.5,423C 298.221,417.836 298.221,412.669 303.5,407.5 Z"/>
<path d="M 303.5,455.5 C 349.168,455.333 394.835,455.5 440.5,456C 445.833,461 445.833,466 440.5,471C 394.833,471.667 349.167,471.667 303.5,471C 298.221,465.836 298.221,460.669 303.5,455.5 Z"/>
</g>
</svg>
