<?xml version="1.0" encoding="UTF-8"?>
<!DOCTYPE svg PUBLIC "-//W3C//DTD SVG 1.1//EN" "http://www.w3.org/Graphics/SVG/1.1/DTD/svg11.dtd">
<svg xmlns="http://www.w3.org/2000/svg" version="1.1" width="512px" height="512px" style="shape-rendering:geometricPrecision; text-rendering:geometricPrecision; image-rendering:optimizeQuality; fill-rule:evenodd; clip-rule:evenodd" xmlns:xlink="http://www.w3.org/1999/xlink">
<g fill="#4189db" stroke="none">
<path d="M 43.5,53.5 C 170.5,53.3333 297.5,53.5 424.5,54C 292.351,171.314 160.351,288.814 28.5,406.5C 27.3333,293.501 27.1667,180.501 28,67.5C 30.8774,60.1145 36.044,55.4478 43.5,53.5 Z"/>
<path d="M 459.5,53.5 C 474.014,52.6358 481.847,59.3025 483,73.5C 417.035,131.796 351.369,190.463 286,249.5C 284,253.5 284,257.5 286,261.5C 351.369,320.537 417.035,379.204 483,437.5C 482.491,449.844 475.991,456.51 463.5,457.5C 460.771,457.705 458.438,456.872 456.5,455C 392.131,396.962 327.464,339.296 262.5,282C 257.833,278.667 253.167,278.667 248.5,282C 182.833,340.333 117.167,398.667 51.5,457C 36.9484,458.336 29.1151,451.836 28,437.5C 172.028,309.635 315.861,181.635 459.5,53.5 Z"/>
<path d="M 481.5,104.5 C 482.833,154.496 483.5,204.829 483.5,255.5C 483.167,305.833 482.833,356.167 482.5,406.5C 425.843,356.509 369.51,306.175 313.5,255.5C 369.52,205.144 425.52,154.811 481.5,104.5 Z"/>
<path d="M 254.5,306.5 C 311.573,356.065 368.239,406.231 424.5,457C 311.833,457.667 199.167,457.667 86.5,457C 142.695,406.968 198.695,356.801 254.5,306.5 Z"/>
</g>
</svg>
