<?xml version="1.0" encoding="UTF-8"?>
<!DOCTYPE svg PUBLIC "-//W3C//DTD SVG 1.1//EN" "http://www.w3.org/Graphics/SVG/1.1/DTD/svg11.dtd">
<svg xmlns="http://www.w3.org/2000/svg" version="1.1" width="512px" height="512px" style="shape-rendering:geometricPrecision; text-rendering:geometricPrecision; image-rendering:optimizeQuality; fill-rule:evenodd; clip-rule:evenodd" xmlns:xlink="http://www.w3.org/1999/xlink">
<g fill="#3FB8AF" stroke="none">
<path d="M 244.5,-0.5 C 251.833,-0.5 259.167,-0.5 266.5,-0.5C 265.971,3.35059 266.638,6.85059 268.5,10C 345.833,41.3333 423.167,72.6667 500.5,104C 501.156,109.755 501.49,115.588 501.5,121.5C 501.607,128.243 501.107,134.91 500,141.5C 497.688,145.58 494.188,148.08 489.5,149C 466.167,149.667 442.833,149.667 419.5,149C 413.841,148.004 410.007,144.838 408,139.5C 405.249,144.59 401.083,147.757 395.5,149C 352.501,149.5 309.501,149.667 266.5,149.5C 266.545,213.503 266.211,277.503 265.5,341.5C 277.833,341.5 290.167,341.5 302.5,341.5C 302.5,387.5 302.5,433.5 302.5,479.5C 299.167,479.5 295.833,479.5 292.5,479.5C 292.201,481.604 292.534,483.604 293.5,485.5C 302.376,491.043 304.21,498.376 299,507.5C 297.188,508.977 295.355,510.31 293.5,511.5C 290.167,511.5 286.833,511.5 283.5,511.5C 274.822,506.629 272.655,499.629 277,490.5C 278.739,488.259 280.906,486.592 283.5,485.5C 284.466,483.604 284.799,481.604 284.5,479.5C 251.833,479.5 219.167,479.5 186.5,479.5C 186.891,486.921 186.391,494.254 185,501.5C 182.262,505.74 178.762,509.074 174.5,511.5C 170.167,511.5 165.833,511.5 161.5,511.5C 157.238,509.074 153.738,505.74 151,501.5C 149.652,494.239 149.152,486.906 149.5,479.5C 147.5,479.5 145.5,479.5 143.5,479.5C 143.891,486.921 143.391,494.254 142,501.5C 139.591,506.078 136.091,509.412 131.5,511.5C 127.167,511.5 122.833,511.5 118.5,511.5C 113.857,509.021 110.357,505.355 108,500.5C 106.616,493.589 106.116,486.589 106.5,479.5C 90.1667,479.5 73.8333,479.5 57.5,479.5C 57.2011,481.604 57.5344,483.604 58.5,485.5C 66.7047,490.73 68.5381,497.73 64,506.5C 62.2703,508.402 60.437,510.069 58.5,511.5C 54.8333,511.5 51.1667,511.5 47.5,511.5C 39.2181,505.908 37.3848,498.574 42,489.5C 43.7448,488.044 45.5781,486.711 47.5,485.5C 48.4656,483.604 48.7989,481.604 48.5,479.5C 45.5,479.5 42.5,479.5 39.5,479.5C 39.5,433.5 39.5,387.5 39.5,341.5C 61.8333,341.5 84.1667,341.5 106.5,341.5C 106.667,320.831 106.5,300.164 106,279.5C 96.3898,296.169 90.8898,314.169 89.5,333.5C 81.1667,333.5 72.8333,333.5 64.5,333.5C 66.5802,301.702 77.7469,273.702 98,249.5C 102.274,245.226 107.107,241.726 112.5,239C 115.5,238.667 118.5,238.333 121.5,238C 127.169,232.884 133.835,229.884 141.5,229C 120.299,223.783 111.132,210.283 114,188.5C 121.771,166.53 136.937,158.697 159.5,165C 178.131,175.225 183.965,190.392 177,210.5C 171.619,220.87 163.119,227.036 151.5,229C 159.349,230.093 166.349,233.093 172.5,238C 176.287,238.16 179.954,238.826 183.5,240C 194.79,248.738 204.124,259.238 211.5,271.5C 214.153,263.223 216.653,254.89 219,246.5C 223.218,241.37 228.384,240.204 234.5,243C 238.685,246.735 240.352,251.235 239.5,256.5C 237.166,269.188 232.999,281.188 227,292.5C 220.878,298.615 213.712,300.115 205.5,297C 197.69,292.855 191.523,287.022 187,279.5C 186.5,300.164 186.333,320.831 186.5,341.5C 206.167,341.5 225.833,341.5 245.5,341.5C 244.789,277.503 244.455,213.503 244.5,149.5C 201.499,149.667 158.499,149.5 115.5,149C 109.917,147.757 105.751,144.59 103,139.5C 100.993,144.838 97.1594,148.004 91.5,149C 68.1667,149.667 44.8333,149.667 21.5,149C 16.8125,148.08 13.3125,145.58 11,141.5C 9.893,134.91 9.393,128.243 9.5,121.5C 9.51045,115.588 9.84378,109.755 10.5,104C 87.8333,72.6667 165.167,41.3333 242.5,10C 244.362,6.85059 245.029,3.35059 244.5,-0.5 Z"/>
<path d="M 329.5,294.5 C 362.5,294.5 395.5,294.5 428.5,294.5C 428.667,360.501 428.5,426.501 428,492.5C 424.2,493.199 420.367,493.865 416.5,494.5C 391.458,493.292 366.291,493.292 341,494.5C 337.333,493.833 333.667,493.167 330,492.5C 329.5,426.501 329.333,360.501 329.5,294.5 Z"/>
</g>
</svg>
