<?xml version="1.0" encoding="UTF-8"?>
<!DOCTYPE svg PUBLIC "-//W3C//DTD SVG 1.1//EN" "http://www.w3.org/Graphics/SVG/1.1/DTD/svg11.dtd">
<svg xmlns="http://www.w3.org/2000/svg" version="1.1" width="512px" height="512px" style="shape-rendering:geometricPrecision; text-rendering:geometricPrecision; image-rendering:optimizeQuality; fill-rule:evenodd; clip-rule:evenodd" xmlns:xlink="http://www.w3.org/1999/xlink">
<g fill="#a74e9f" stroke="none">
<path d="M 24.5,-0.5 C 36.1667,-0.5 47.8333,-0.5 59.5,-0.5C 62.0458,1.92484 63.5458,4.92484 64,8.5C 64.3333,36.1667 64.6667,63.8333 65,91.5C 67.9734,95.9736 71.1401,100.307 74.5,104.5C 83.1667,105.833 91.8333,105.833 100.5,104.5C 104,100.167 107.5,95.8333 111,91.5C 111.333,62.5 111.667,33.5 112,4.5C 112.997,2.67694 114.164,1.01027 115.5,-0.5C 127.167,-0.5 138.833,-0.5 150.5,-0.5C 165.897,6.36448 174.397,18.3645 176,35.5C 176.667,75.5 176.667,115.5 176,155.5C 170.432,186.573 151.932,198.573 120.5,191.5C 120.5,234.167 120.5,276.833 120.5,319.5C 151.932,312.427 170.432,324.427 176,355.5C 176.667,395.5 176.667,435.5 176,475.5C 174.397,492.636 165.897,504.636 150.5,511.5C 138.833,511.5 127.167,511.5 115.5,511.5C 114.164,509.99 112.997,508.323 112,506.5C 111.667,477.5 111.333,448.5 111,419.5C 107.5,415.167 104,410.833 100.5,406.5C 91.8333,405.167 83.1667,405.167 74.5,406.5C 71.1401,410.693 67.9734,415.026 65,419.5C 64.6667,447.167 64.3333,474.833 64,502.5C 63.5458,506.075 62.0458,509.075 59.5,511.5C 47.8333,511.5 36.1667,511.5 24.5,511.5C 11.4675,505.446 3.1342,495.446 -0.5,481.5C -0.5,437.5 -0.5,393.5 -0.5,349.5C 8.07732,322.695 26.4107,312.695 54.5,319.5C 54.3708,276.828 54.7041,234.162 55.5,191.5C 27.0324,198.614 8.36578,188.614 -0.5,161.5C -0.5,117.5 -0.5,73.5 -0.5,29.5C 3.1342,15.5544 11.4675,5.55445 24.5,-0.5 Z"/>
<path d="M 249.5,-0.5 C 283.167,-0.5 316.833,-0.5 350.5,-0.5C 364.455,3.63004 372.622,12.9634 375,27.5C 375.667,179.5 375.667,331.5 375,483.5C 372.622,498.037 364.455,507.37 350.5,511.5C 316.833,511.5 283.167,511.5 249.5,511.5C 240.796,508.637 233.963,503.304 229,495.5C 227.803,492.911 226.803,490.244 226,487.5C 224.588,332.838 224.588,178.171 226,23.5C 227.392,17.7863 230.059,12.7863 234,8.5C 238.6,4.37379 243.766,1.37379 249.5,-0.5 Z M 244.5,57.5 C 268.5,57.5 292.5,57.5 316.5,57.5C 316.5,67.8333 316.5,78.1667 316.5,88.5C 292.5,88.5 268.5,88.5 244.5,88.5C 244.5,78.1667 244.5,67.8333 244.5,57.5 Z M 244.5,133.5 C 254.833,133.5 265.167,133.5 275.5,133.5C 275.5,144.833 275.5,156.167 275.5,167.5C 265.167,167.5 254.833,167.5 244.5,167.5C 244.5,156.167 244.5,144.833 244.5,133.5 Z M 244.5,208.5 C 270.833,208.5 297.167,208.5 323.5,208.5C 323.5,219.167 323.5,229.833 323.5,240.5C 297.167,240.5 270.833,240.5 244.5,240.5C 244.5,229.833 244.5,219.167 244.5,208.5 Z M 244.5,287.5 C 256.833,287.5 269.167,287.5 281.5,287.5C 281.5,297.5 281.5,307.5 281.5,317.5C 269.167,317.5 256.833,317.5 244.5,317.5C 244.5,307.5 244.5,297.5 244.5,287.5 Z M 244.5,367.5 C 272.5,367.5 300.5,367.5 328.5,367.5C 328.5,378.5 328.5,389.5 328.5,400.5C 300.5,400.5 272.5,400.5 244.5,400.5C 244.5,389.5 244.5,378.5 244.5,367.5 Z M 244.5,439.5 C 257.5,439.5 270.5,439.5 283.5,439.5C 283.5,450.5 283.5,461.5 283.5,472.5C 270.5,472.5 257.5,472.5 244.5,472.5C 244.5,461.5 244.5,450.5 244.5,439.5 Z"/>
<path d="M 463.5,-0.5 C 466.833,-0.5 470.167,-0.5 473.5,-0.5C 485.405,28.2327 498.072,56.566 511.5,84.5C 511.5,197.5 511.5,310.5 511.5,423.5C 482.833,423.5 454.167,423.5 425.5,423.5C 425.333,313.499 425.5,203.499 426,93.5C 438.774,62.2836 451.274,30.9503 463.5,-0.5 Z M 480.5,44.5 C 487.725,59.289 494.725,74.289 501.5,89.5C 480.833,90.8333 460.167,90.8333 439.5,89.5C 444.965,74.5756 450.965,59.909 457.5,45.5C 462.011,52.2579 468.011,54.0912 475.5,51C 477.539,49.0737 479.206,46.907 480.5,44.5 Z"/>
<path d="M 511.5,452.5 C 511.5,464.167 511.5,475.833 511.5,487.5C 509.735,493.022 506.902,498.022 503,502.5C 498.4,506.626 493.234,509.626 487.5,511.5C 475.167,511.5 462.833,511.5 450.5,511.5C 436.545,507.37 428.378,498.037 426,483.5C 425.5,473.172 425.334,462.839 425.5,452.5C 454.167,452.5 482.833,452.5 511.5,452.5 Z"/>
</g>
</svg>
