<?xml version="1.0" encoding="UTF-8"?>
<!DOCTYPE svg PUBLIC "-//W3C//DTD SVG 1.1//EN" "http://www.w3.org/Graphics/SVG/1.1/DTD/svg11.dtd">
<svg xmlns="http://www.w3.org/2000/svg" version="1.1" width="512px" height="512px" style="shape-rendering:geometricPrecision; text-rendering:geometricPrecision; image-rendering:optimizeQuality; fill-rule:evenodd; clip-rule:evenodd" xmlns:xlink="http://www.w3.org/1999/xlink">
<g fill="#c55656" stroke="none">
<path d="M 230.5,-0.5 C 234.5,-0.5 238.5,-0.5 242.5,-0.5C 252.105,8.60382 261.605,17.9371 271,27.5C 274.333,33.1667 274.333,38.8333 271,44.5C 226.833,88.6667 182.667,132.833 138.5,177C 132.833,180.333 127.167,180.333 121.5,177C 112.667,168.167 103.833,159.333 95,150.5C 92.7441,144.325 93.0775,138.325 96,132.5C 140.423,87.5762 185.256,43.2428 230.5,-0.5 Z"/>
<path d="M 278.5,77.5 C 314.672,112.839 350.339,148.672 385.5,185C 350.667,221.167 315.167,256.667 279,291.5C 242.873,256.374 207.04,220.874 171.5,185C 207.368,149.299 243.035,113.465 278.5,77.5 Z"/>
<path d="M 424.5,190.5 C 428.747,190.178 432.747,191.011 436.5,193C 445,201.5 453.5,210 462,218.5C 465.333,224.5 465.333,230.5 462,236.5C 419.528,279.972 376.694,323.139 333.5,366C 326.921,371.091 319.921,371.758 312.5,368C 304,359.5 295.5,351 287,342.5C 283.667,336.833 283.667,331.167 287,325.5C 329.806,281.694 372.972,238.194 416.5,195C 419.099,193.205 421.766,191.705 424.5,190.5 Z"/>
<path d="M -0.5,428.5 C -0.5,422.167 -0.5,415.833 -0.5,409.5C 1.47678,403.208 4.31011,397.208 8,391.5C 63,336.5 118,281.5 173,226.5C 194.541,247.707 215.708,269.207 236.5,291C 182.54,345.96 128.207,400.627 73.5,455C 57.7942,465.653 41.1275,467.319 23.5,460C 11.0961,452.774 3.09606,442.274 -0.5,428.5 Z"/>
<path d="M 511.5,430.5 C 511.5,454.5 511.5,478.5 511.5,502.5C 510.196,503.987 509.03,505.654 508,507.5C 505.985,508.697 504.151,510.03 502.5,511.5C 418.167,511.5 333.833,511.5 249.5,511.5C 243.765,508.239 240.598,503.239 240,496.5C 239.333,476.167 239.333,455.833 240,435.5C 240.587,427.58 244.753,422.747 252.5,421C 334.833,420.333 417.167,420.333 499.5,421C 505.181,422.194 509.181,425.36 511.5,430.5 Z"/>
</g>
</svg>
