<?xml version="1.0" encoding="UTF-8"?>
<!DOCTYPE svg PUBLIC "-//W3C//DTD SVG 1.1//EN" "http://www.w3.org/Graphics/SVG/1.1/DTD/svg11.dtd">
<svg xmlns="http://www.w3.org/2000/svg" version="1.1" width="512px" height="512px" style="shape-rendering:geometricPrecision; text-rendering:geometricPrecision; image-rendering:optimizeQuality; fill-rule:evenodd; clip-rule:evenodd" xmlns:xlink="http://www.w3.org/1999/xlink">
<g fill="#c55656" stroke="none">
<path d="M 233.5,-0.5 C 248.167,-0.5 262.833,-0.5 277.5,-0.5C 277.167,14.8478 277.501,30.1811 278.5,45.5C 328.3,32.0672 378.133,18.7339 428,5.5C 428.5,5.83333 429,6.16667 429.5,6.5C 456.863,80.2653 484.196,153.932 511.5,227.5C 511.5,237.833 511.5,248.167 511.5,258.5C 504.896,294.839 484.563,320.339 450.5,335C 401.694,349.954 362.527,336.787 333,295.5C 320.92,274.36 316.587,251.693 320,227.5C 339.778,172.829 359.945,118.329 380.5,64C 346.212,72.7014 311.879,81.5348 277.5,90.5C 277.5,216.5 277.5,342.5 277.5,468.5C 327.167,468.5 376.833,468.5 426.5,468.5C 426.5,482.833 426.5,497.167 426.5,511.5C 312.5,511.5 198.5,511.5 84.5,511.5C 84.5,497.167 84.5,482.833 84.5,468.5C 134.167,468.5 183.833,468.5 233.5,468.5C 233.667,346.5 233.5,224.5 233,102.5C 196.813,112.422 160.646,122.422 124.5,132.5C 146.568,192.539 168.735,252.539 191,312.5C 196.238,355.526 181.071,389.026 145.5,413C 107.92,432.671 71.5862,430.671 36.5,407C 16.5619,390.617 4.22857,369.784 -0.5,344.5C -0.5,333.833 -0.5,323.167 -0.5,312.5C 26.0551,241.697 52.3884,170.697 78.5,99.5C 129.725,85.1933 181.058,71.1933 232.5,57.5C 233.5,38.1782 233.833,18.8448 233.5,-0.5 Z M 414.5,96.5 C 416.284,97.5738 417.451,99.2404 418,101.5C 431.222,138.275 444.722,174.942 458.5,211.5C 429.833,212.833 401.167,212.833 372.5,211.5C 386.904,173.285 400.904,134.951 414.5,96.5 Z M 94.5,181.5 C 95.4972,181.47 96.1639,181.97 96.5,183C 110.402,220.872 124.402,258.705 138.5,296.5C 109.833,297.833 81.1667,297.833 52.5,296.5C 66.9043,258.285 80.9043,219.951 94.5,181.5 Z"/>
</g>
</svg>
