<?xml version="1.0" encoding="UTF-8"?>
<!DOCTYPE svg PUBLIC "-//W3C//DTD SVG 1.1//EN" "http://www.w3.org/Graphics/SVG/1.1/DTD/svg11.dtd">
<svg xmlns="http://www.w3.org/2000/svg" version="1.1" width="512px" height="512px" style="shape-rendering:geometricPrecision; text-rendering:geometricPrecision; image-rendering:optimizeQuality; fill-rule:evenodd; clip-rule:evenodd" xmlns:xlink="http://www.w3.org/1999/xlink">
<g fill="#a74e9f" stroke="none">
<path d="M 13.5,-0.5 C 17.5,-0.5 21.5,-0.5 25.5,-0.5C 37.045,4.24937 41.545,12.916 39,25.5C 34.493,37.1738 25.993,41.6738 13.5,39C 6.31845,36.9834 1.65179,32.4834 -0.5,25.5C -0.5,21.5 -0.5,17.5 -0.5,13.5C 1.83333,6.5 6.5,1.83333 13.5,-0.5 Z"/>
<path d="M 91.5,-0.5 C 95.5,-0.5 99.5,-0.5 103.5,-0.5C 115.045,4.24937 119.545,12.916 117,25.5C 112.493,37.1738 103.993,41.6738 91.5,39C 79.8262,34.493 75.3262,25.993 78,13.5C 80.0166,6.31845 84.5166,1.65179 91.5,-0.5 Z"/>
<path d="M 171.5,-0.5 C 175.5,-0.5 179.5,-0.5 183.5,-0.5C 195.045,4.24937 199.545,12.916 197,25.5C 192.493,37.1738 183.993,41.6738 171.5,39C 159.826,34.493 155.326,25.993 158,13.5C 160.017,6.31845 164.517,1.65179 171.5,-0.5 Z"/>
<path d="M 249.5,-0.5 C 253.5,-0.5 257.5,-0.5 261.5,-0.5C 268.483,1.65179 272.983,6.31845 275,13.5C 275.5,87.4992 275.667,161.499 275.5,235.5C 349.501,235.333 423.501,235.5 497.5,236C 504.682,238.017 509.348,242.517 511.5,249.5C 511.5,253.5 511.5,257.5 511.5,261.5C 509.348,268.483 504.682,272.983 497.5,275C 423.501,275.5 349.501,275.667 275.5,275.5C 275.667,349.501 275.5,423.501 275,497.5C 272.983,504.682 268.483,509.348 261.5,511.5C 257.5,511.5 253.5,511.5 249.5,511.5C 242.517,509.348 238.017,504.682 236,497.5C 235.5,423.501 235.333,349.501 235.5,275.5C 161.499,275.667 87.4992,275.5 13.5,275C 6.31845,272.983 1.65179,268.483 -0.5,261.5C -0.5,257.5 -0.5,253.5 -0.5,249.5C 1.65179,242.517 6.31845,238.017 13.5,236C 87.4992,235.5 161.499,235.333 235.5,235.5C 235.333,161.499 235.5,87.4992 236,13.5C 238.017,6.31845 242.517,1.65179 249.5,-0.5 Z"/>
<path d="M 327.5,-0.5 C 331.5,-0.5 335.5,-0.5 339.5,-0.5C 351.045,4.24937 355.545,12.916 353,25.5C 348.493,37.1738 339.993,41.6738 327.5,39C 315.826,34.493 311.326,25.993 314,13.5C 316.017,6.31845 320.517,1.65179 327.5,-0.5 Z"/>
<path d="M 406.5,-0.5 C 410.5,-0.5 414.5,-0.5 418.5,-0.5C 430.045,4.24937 434.545,12.916 432,25.5C 427.493,37.1738 418.993,41.6738 406.5,39C 394.826,34.493 390.326,25.993 393,13.5C 395.017,6.31845 399.517,1.65179 406.5,-0.5 Z"/>
<path d="M 485.5,-0.5 C 489.5,-0.5 493.5,-0.5 497.5,-0.5C 504.5,1.83333 509.167,6.5 511.5,13.5C 511.5,17.5 511.5,21.5 511.5,25.5C 506.751,37.045 498.084,41.545 485.5,39C 473.826,34.493 469.326,25.993 472,13.5C 474.017,6.31845 478.517,1.65179 485.5,-0.5 Z"/>
<path d="M -0.5,105.5 C -0.5,101.5 -0.5,97.5 -0.5,93.5C 4.24937,81.955 12.916,77.455 25.5,80C 37.1738,84.507 41.6738,93.007 39,105.5C 34.493,117.174 25.993,121.674 13.5,119C 6.31845,116.983 1.65179,112.483 -0.5,105.5 Z"/>
<path d="M 511.5,93.5 C 511.5,97.5 511.5,101.5 511.5,105.5C 506.751,117.045 498.084,121.545 485.5,119C 473.826,114.493 469.326,105.993 472,93.5C 476.507,81.8262 485.007,77.3262 497.5,80C 504.682,82.0166 509.348,86.5166 511.5,93.5 Z"/>
<path d="M -0.5,183.5 C -0.5,179.5 -0.5,175.5 -0.5,171.5C 4.24937,159.955 12.916,155.455 25.5,158C 37.1738,162.507 41.6738,171.007 39,183.5C 34.493,195.174 25.993,199.674 13.5,197C 6.31845,194.983 1.65179,190.483 -0.5,183.5 Z"/>
<path d="M 511.5,171.5 C 511.5,175.5 511.5,179.5 511.5,183.5C 506.751,195.045 498.084,199.545 485.5,197C 473.826,192.493 469.326,183.993 472,171.5C 476.507,159.826 485.007,155.326 497.5,158C 504.682,160.017 509.348,164.517 511.5,171.5 Z"/>
<path d="M -0.5,339.5 C -0.5,335.5 -0.5,331.5 -0.5,327.5C 4.24937,315.955 12.916,311.455 25.5,314C 37.1738,318.507 41.6738,327.007 39,339.5C 34.493,351.174 25.993,355.674 13.5,353C 6.31845,350.983 1.65179,346.483 -0.5,339.5 Z"/>
<path d="M 511.5,327.5 C 511.5,331.5 511.5,335.5 511.5,339.5C 506.751,351.045 498.084,355.545 485.5,353C 473.826,348.493 469.326,339.993 472,327.5C 476.507,315.826 485.007,311.326 497.5,314C 504.682,316.017 509.348,320.517 511.5,327.5 Z"/>
<path d="M -0.5,417.5 C -0.5,413.5 -0.5,409.5 -0.5,405.5C 4.24937,393.955 12.916,389.455 25.5,392C 37.1738,396.507 41.6738,405.007 39,417.5C 34.493,429.174 25.993,433.674 13.5,431C 6.31845,428.983 1.65179,424.483 -0.5,417.5 Z"/>
<path d="M 511.5,405.5 C 511.5,409.5 511.5,413.5 511.5,417.5C 506.751,429.045 498.084,433.545 485.5,431C 473.826,426.493 469.326,417.993 472,405.5C 476.507,393.826 485.007,389.326 497.5,392C 504.682,394.017 509.348,398.517 511.5,405.5 Z"/>
<path d="M 25.5,511.5 C 21.5,511.5 17.5,511.5 13.5,511.5C 6.5,509.167 1.83333,504.5 -0.5,497.5C -0.5,493.5 -0.5,489.5 -0.5,485.5C 4.24937,473.955 12.916,469.455 25.5,472C 37.1738,476.507 41.6738,485.007 39,497.5C 36.9834,504.682 32.4834,509.348 25.5,511.5 Z"/>
<path d="M 103.5,511.5 C 99.5,511.5 95.5,511.5 91.5,511.5C 79.955,506.751 75.455,498.084 78,485.5C 82.507,473.826 91.007,469.326 103.5,472C 115.174,476.507 119.674,485.007 117,497.5C 114.983,504.682 110.483,509.348 103.5,511.5 Z"/>
<path d="M 183.5,511.5 C 179.5,511.5 175.5,511.5 171.5,511.5C 159.955,506.751 155.455,498.084 158,485.5C 162.507,473.826 171.007,469.326 183.5,472C 195.174,476.507 199.674,485.007 197,497.5C 194.983,504.682 190.483,509.348 183.5,511.5 Z"/>
<path d="M 339.5,511.5 C 335.5,511.5 331.5,511.5 327.5,511.5C 315.955,506.751 311.455,498.084 314,485.5C 318.507,473.826 327.007,469.326 339.5,472C 351.174,476.507 355.674,485.007 353,497.5C 350.983,504.682 346.483,509.348 339.5,511.5 Z"/>
<path d="M 418.5,511.5 C 414.5,511.5 410.5,511.5 406.5,511.5C 394.955,506.751 390.455,498.084 393,485.5C 397.507,473.826 406.007,469.326 418.5,472C 430.174,476.507 434.674,485.007 432,497.5C 429.983,504.682 425.483,509.348 418.5,511.5 Z"/>
<path d="M 511.5,485.5 C 511.5,489.5 511.5,493.5 511.5,497.5C 509.167,504.5 504.5,509.167 497.5,511.5C 493.5,511.5 489.5,511.5 485.5,511.5C 473.955,506.751 469.455,498.084 472,485.5C 476.507,473.826 485.007,469.326 497.5,472C 504.682,474.017 509.348,478.517 511.5,485.5 Z"/>
</g>
</svg>
