<?xml version="1.0" encoding="UTF-8"?>
<!DOCTYPE svg PUBLIC "-//W3C//DTD SVG 1.1//EN" "http://www.w3.org/Graphics/SVG/1.1/DTD/svg11.dtd">
<svg xmlns="http://www.w3.org/2000/svg" version="1.1" width="512px" height="512px" style="shape-rendering:geometricPrecision; text-rendering:geometricPrecision; image-rendering:optimizeQuality; fill-rule:evenodd; clip-rule:evenodd" xmlns:xlink="http://www.w3.org/1999/xlink">
<g fill="#3FB8AF" stroke="none">
<path d="M -0.5,-0.5 C 20.8333,-0.5 42.1667,-0.5 63.5,-0.5C 63.3333,145.167 63.5,290.834 64,436.5C 64.8333,442.667 68.3333,446.167 74.5,447C 220.166,447.5 365.833,447.667 511.5,447.5C 511.5,468.833 511.5,490.167 511.5,511.5C 361.5,511.5 211.5,511.5 61.5,511.5C 27.8333,503.833 7.16667,483.167 -0.5,449.5C -0.5,299.5 -0.5,149.5 -0.5,-0.5 Z"/>
<path d="M 511.5,84.5 C 511.5,141.5 511.5,198.5 511.5,255.5C 489.833,255.5 468.167,255.5 446.5,255.5C 446.667,235.831 446.5,216.164 446,196.5C 400.333,242.167 354.667,287.833 309,333.5C 280.653,304.986 252.153,276.653 223.5,248.5C 198.847,272.653 174.347,296.986 150,321.5C 134.653,306.319 119.486,290.986 104.5,275.5C 143.653,235.847 182.986,196.347 222.5,157C 223.167,156.333 223.833,156.333 224.5,157C 252.667,185.167 280.833,213.333 309,241.5C 339.5,211 370,180.5 400.5,150C 380.503,149.5 360.503,149.333 340.5,149.5C 340.5,127.833 340.5,106.167 340.5,84.5C 397.5,84.5 454.5,84.5 511.5,84.5 Z"/>
</g>
</svg>
