<?xml version="1.0" encoding="UTF-8"?>
<!DOCTYPE svg PUBLIC "-//W3C//DTD SVG 1.1//EN" "http://www.w3.org/Graphics/SVG/1.1/DTD/svg11.dtd">
<svg xmlns="http://www.w3.org/2000/svg" version="1.1" width="512px" height="512px" style="shape-rendering:geometricPrecision; text-rendering:geometricPrecision; image-rendering:optimizeQuality; fill-rule:evenodd; clip-rule:evenodd" xmlns:xlink="http://www.w3.org/1999/xlink">
<g fill="#1e8326" stroke="none">
<path d="M 79.5,31.5 C 92.0617,29.5225 102.895,32.8558 112,41.5C 114.71,45.7533 117.543,49.9199 120.5,54C 140.119,53.9273 146.952,63.094 141,81.5C 135.681,87.1673 129.181,89.0007 121.5,87C 119.086,85.1151 116.419,84.4484 113.5,85C 101.836,95.7353 88.503,98.4019 73.5,93C 68.9618,89.9002 64.2951,87.0668 59.5,84.5C 52.2239,88.2187 44.8906,88.3854 37.5,85C 30.9307,78.0554 29.7641,70.2221 34,61.5C 35.9384,58.8941 38.4384,57.0608 41.5,56C 45.9508,55.8702 50.2841,55.2036 54.5,54C 57.6781,48.6448 61.3447,43.6448 65.5,39C 69.815,35.6782 74.4816,33.1782 79.5,31.5 Z"/>
<path d="M 235.5,31.5 C 242.677,30.6458 249.343,31.9792 255.5,35.5C 261.662,31.8145 268.329,30.6478 275.5,32C 277.333,32.5 278.5,33.6667 279,35.5C 279.929,39.2441 279.429,42.7441 277.5,46C 273.46,47.1275 269.627,48.6275 266,50.5C 264.573,54.3887 263.073,58.2221 261.5,62C 251.435,65.8781 246.268,62.3781 246,51.5C 245.167,50.6667 244.333,49.8333 243.5,49C 239.791,48.3667 236.291,47.2001 233,45.5C 230.425,40.034 231.258,35.3673 235.5,31.5 Z"/>
<path d="M 406.5,71.5 C 422.414,68.7603 435.581,73.427 446,85.5C 447.424,89.7925 449.591,93.6259 452.5,97C 476.431,105.626 481.764,120.792 468.5,142.5C 469.388,146.595 471.554,149.929 475,152.5C 484.556,172.5 479.389,187.334 459.5,197C 447.429,200.733 435.596,200.233 424,195.5C 423.17,189.804 423.337,184.137 424.5,178.5C 430.833,174.333 437.167,170.167 443.5,166C 446.769,162.547 447.269,158.714 445,154.5C 440.78,151.836 436.613,152.003 432.5,155C 430.007,157.08 427.341,158.914 424.5,160.5C 423.881,153.782 423.048,147.115 422,140.5C 419.019,136.304 415.186,135.471 410.5,138C 409.874,138.75 409.374,139.584 409,140.5C 407.952,147.115 407.119,153.782 406.5,160.5C 401.949,156.938 396.949,154.272 391.5,152.5C 386.833,152.5 384.5,154.833 384.5,159.5C 384.556,162.111 385.556,164.278 387.5,166C 393.833,170.167 400.167,174.333 406.5,178.5C 407.807,184.388 407.807,190.221 406.5,196C 396.063,199.813 385.396,200.479 374.5,198C 352.404,189.309 346.238,174.142 356,152.5C 359.446,149.929 361.612,146.595 362.5,142.5C 349.236,120.792 354.569,105.626 378.5,97C 381.409,93.6259 383.576,89.7925 385,85.5C 390.795,78.5051 397.961,73.8384 406.5,71.5 Z"/>
<path d="M 179.5,95.5 C 186.677,94.6458 193.343,95.9792 199.5,99.5C 205.662,95.8145 212.329,94.6478 219.5,96C 221.333,96.5 222.5,97.6667 223,99.5C 223.929,103.244 223.429,106.744 221.5,110C 217.46,111.128 213.627,112.628 210,114.5C 208.573,118.389 207.073,122.222 205.5,126C 195.435,129.878 190.268,126.378 190,115.5C 189.167,114.667 188.333,113.833 187.5,113C 183.791,112.367 180.291,111.2 177,109.5C 174.425,104.034 175.258,99.3673 179.5,95.5 Z"/>
<path d="M 303.5,103.5 C 312.358,102.402 320.692,103.902 328.5,108C 333.133,112.625 336.966,117.791 340,123.5C 340.596,129.886 342.429,135.886 345.5,141.5C 333.223,160.139 333.556,178.472 346.5,196.5C 342.201,198.903 337.534,199.903 332.5,199.5C 328.34,199.659 324.34,198.992 320.5,197.5C 319.667,184.846 319.167,172.18 319,159.5C 317.134,152.653 312.968,150.82 306.5,154C 305.874,154.75 305.374,155.584 305,156.5C 303.839,161.416 303.173,166.416 303,171.5C 297.841,167.17 293.174,167.503 289,172.5C 288.245,175.303 288.578,177.97 290,180.5C 294.333,182.833 298.667,185.167 303,187.5C 303.824,190.882 303.657,194.216 302.5,197.5C 287.11,203.197 274.61,199.531 265,186.5C 263.508,181.589 263.174,176.589 264,171.5C 266.196,166.272 269.029,161.439 272.5,157C 271.057,153.279 269.223,149.779 267,146.5C 265.412,139.838 266.912,134.005 271.5,129C 276.482,126.347 281.315,123.514 286,120.5C 289.084,111.915 294.917,106.248 303.5,103.5 Z"/>
<path d="M 121.5,151.5 C 126.297,151.121 130.964,151.621 135.5,153C 146.331,164.824 155.998,177.491 164.5,191C 151.418,209.826 138.084,228.492 124.5,247C 98.8268,247.833 73.1602,247.666 47.5,246.5C 69.8588,217.308 92.0254,187.975 114,158.5C 116.396,155.933 118.896,153.6 121.5,151.5 Z"/>
<path d="M 190.5,183.5 C 197.331,182.051 202.831,184.051 207,189.5C 220.833,208.667 234.667,227.833 248.5,247C 213.167,247.667 177.833,247.667 142.5,247C 156.333,227.833 170.167,208.667 184,189.5C 186.063,187.266 188.229,185.266 190.5,183.5 Z"/>
<path d="M 413.5,208.5 C 416.89,208.777 420.057,209.777 423,211.5C 423.5,223.495 423.667,235.495 423.5,247.5C 418.167,247.5 412.833,247.5 407.5,247.5C 407.333,235.495 407.5,223.495 408,211.5C 410.058,210.771 411.891,209.771 413.5,208.5 Z"/>
<path d="M 310.5,209.5 C 313.406,210.787 316.406,211.787 319.5,212.5C 319.5,224.167 319.5,235.833 319.5,247.5C 314.167,247.5 308.833,247.5 303.5,247.5C 303.5,235.833 303.5,224.167 303.5,212.5C 306.241,212.293 308.574,211.293 310.5,209.5 Z"/>
<path d="M 31.5,263.5 C 94.1702,263.167 156.837,263.5 219.5,264.5C 230.742,283.575 246.075,298.409 265.5,309C 276.021,314.093 286.355,319.427 296.5,325C 315.018,342.195 324.018,363.529 323.5,389C 321.643,421.53 310.477,450.363 290,475.5C 204.005,487.944 133.339,460.611 78,393.5C 48.7083,355.221 33.2083,311.888 31.5,263.5 Z"/>
<path d="M 235.5,264.5 C 282.665,263.335 329.998,263.168 377.5,264C 399.962,274.42 409.128,291.92 405,316.5C 401.204,330.221 397.204,343.888 393,357.5C 390.156,371.444 389.823,385.444 392,399.5C 394.243,408.895 397.243,417.895 401,426.5C 374.573,448.716 344.573,464.383 311,473.5C 317.106,462.622 322.772,451.289 328,439.5C 340.248,409.477 341.248,379.144 331,348.5C 325.505,335.67 317.672,324.504 307.5,315C 291.036,305.933 274.703,296.6 258.5,287C 249.639,280.638 241.972,273.138 235.5,264.5 Z"/>
<path d="M 403.5,264.5 C 428.661,263.502 453.995,263.169 479.5,263.5C 477.349,322.777 455.349,373.11 413.5,414.5C 410.862,410.889 409.029,406.889 408,402.5C 404.076,389.233 403.743,375.9 407,362.5C 411.736,347.624 416.07,332.624 420,317.5C 423.393,296.855 417.893,279.189 403.5,264.5 Z"/>
</g>
</svg>
