<?xml version="1.0" encoding="UTF-8"?>
<!DOCTYPE svg PUBLIC "-//W3C//DTD SVG 1.1//EN" "http://www.w3.org/Graphics/SVG/1.1/DTD/svg11.dtd">
<svg xmlns="http://www.w3.org/2000/svg" version="1.1" width="512px" height="512px" style="shape-rendering:geometricPrecision; text-rendering:geometricPrecision; image-rendering:optimizeQuality; fill-rule:evenodd; clip-rule:evenodd" xmlns:xlink="http://www.w3.org/1999/xlink">
<g fill="#4189db" stroke="none">
<path d="M 201.5,31.5 C 207.105,30.9081 212.439,31.7415 217.5,34C 239.014,55.3471 260.347,76.8471 281.5,98.5C 267.014,113.486 252.347,128.319 237.5,143C 225.167,143.333 212.833,143.667 200.5,144C 195.995,144.263 191.661,145.263 187.5,147C 183.553,149.28 179.887,151.947 176.5,155C 165.637,166.197 154.471,177.03 143,187.5C 134.395,164.353 125.395,141.353 116,118.5C 115.333,117.5 115.333,116.5 116,115.5C 144.09,86.9084 172.59,58.9084 201.5,31.5 Z"/>
<path d="M 338.5,63.5 C 343.599,63.1746 348.599,63.6746 353.5,65C 363.167,74.6667 372.833,84.3333 382.5,94C 367.894,118.229 364.394,144.062 372,171.5C 376.67,187.822 385.67,201.156 399,211.5C 399.5,220.827 399.666,230.161 399.5,239.5C 303.499,239.667 207.499,239.5 111.5,239C 138.196,212.636 165.196,186.636 192.5,161C 208.742,159.696 225.075,159.029 241.5,159C 273.423,126.575 305.757,94.7421 338.5,63.5 Z"/>
<path d="M 422.5,79.5 C 441.089,77.2153 455.923,83.5486 467,98.5C 478.159,116.292 482.159,135.625 479,156.5C 476.277,177.531 465.943,193.531 448,204.5C 447.5,216.162 447.333,227.829 447.5,239.5C 436.833,239.5 426.167,239.5 415.5,239.5C 415.667,227.829 415.5,216.162 415,204.5C 397.057,193.531 386.723,177.531 384,156.5C 380.841,135.625 384.841,116.292 396,98.5C 402.789,89.1964 411.622,82.8631 422.5,79.5 Z"/>
<path d="M 73.5,95.5 C 81.1869,93.996 87.6869,95.996 93,101.5C 104.724,129.34 116.058,157.34 127,185.5C 129.649,195.36 126.482,202.527 117.5,207C 110.174,207.5 102.841,207.666 95.5,207.5C 95.5,218.167 95.5,228.833 95.5,239.5C 84.8333,239.5 74.1667,239.5 63.5,239.5C 63.5,228.833 63.5,218.167 63.5,207.5C 56.1591,207.666 48.8258,207.5 41.5,207C 32.5178,202.527 29.3511,195.36 32,185.5C 43.3333,157.5 54.6667,129.5 66,101.5C 68.1141,98.8792 70.6141,96.8792 73.5,95.5 Z"/>
<path d="M 31.5,255.5 C 69.1667,255.5 106.833,255.5 144.5,255.5C 144.078,282.843 146.078,310.01 150.5,337C 150.167,338.167 149.833,339.333 149.5,340.5C 117.417,333.451 87.7504,320.951 60.5,303C 47.9437,294.12 38.777,282.62 33,268.5C 31.8054,264.249 31.3054,259.915 31.5,255.5 Z"/>
<path d="M 159.5,255.5 C 223.5,255.5 287.5,255.5 351.5,255.5C 351.975,285.086 349.475,314.419 344,343.5C 314.843,349.432 285.343,352.099 255.5,351.5C 225.914,351.975 196.58,349.475 167.5,344C 161.453,314.853 158.786,285.353 159.5,255.5 Z"/>
<path d="M 366.5,255.5 C 404.167,255.5 441.833,255.5 479.5,255.5C 479.681,266.789 476.181,276.789 469,285.5C 452.993,302.425 434.16,315.258 412.5,324C 395.857,330.603 378.857,336.103 361.5,340.5C 361.167,339.333 360.833,338.167 360.5,337C 364.922,310.01 366.922,282.843 366.5,255.5 Z"/>
<path d="M 35.5,302.5 C 35.8966,301.475 36.5632,301.308 37.5,302C 61.3943,323.788 89.061,339.122 120.5,348C 131.688,351.464 143.022,354.297 154.5,356.5C 161.066,393.049 174.566,426.716 195,457.5C 199.833,463.167 204.667,468.833 209.5,474.5C 136.644,458.189 83.8108,416.189 51,348.5C 44.3407,333.55 39.1741,318.216 35.5,302.5 Z"/>
<path d="M 473.5,301.5 C 474.239,301.369 474.906,301.536 475.5,302C 454.941,384.123 404.941,439.789 325.5,469C 317.415,471.861 309.415,473.695 301.5,474.5C 322.845,451.162 338.011,424.162 347,393.5C 350.952,381.356 354.119,369.023 356.5,356.5C 393.048,349.934 426.714,336.434 457.5,316C 463.095,311.384 468.429,306.55 473.5,301.5 Z"/>
<path d="M 170.5,360.5 C 226.017,369.45 281.517,369.45 337,360.5C 338.167,360.833 339.333,361.167 340.5,361.5C 333.451,393.583 320.951,423.25 303,450.5C 294.12,463.056 282.62,472.223 268.5,478C 252.64,482.117 238.306,479.117 225.5,469C 208.575,452.993 195.742,434.16 187,412.5C 180.19,395.57 174.69,378.236 170.5,360.5 Z"/>
</g>
</svg>
