<?xml version="1.0" encoding="UTF-8"?>
<!DOCTYPE svg PUBLIC "-//W3C//DTD SVG 1.1//EN" "http://www.w3.org/Graphics/SVG/1.1/DTD/svg11.dtd">
<svg xmlns="http://www.w3.org/2000/svg" version="1.1" width="512px" height="512px" style="shape-rendering:geometricPrecision; text-rendering:geometricPrecision; image-rendering:optimizeQuality; fill-rule:evenodd; clip-rule:evenodd" xmlns:xlink="http://www.w3.org/1999/xlink">
<g fill="#c55656" stroke="none">
<path d="M 377.5,16.5 C 390.982,16.4817 396.815,23.1484 395,36.5C 393.939,39.5616 392.106,42.0616 389.5,44C 381.965,46.7338 374.298,49.0671 366.5,51C 444.118,96.6863 484.451,164.853 487.5,255.5C 484.664,343.718 445.998,410.885 371.5,457C 351.542,468.319 330.375,476.486 308,481.5C 295.668,479.515 291.002,472.515 294,460.5C 295.167,458.667 296.333,456.833 297.5,455C 355.382,440.094 399.882,407.26 431,356.5C 462.586,297.394 465.92,236.727 441,174.5C 420.995,131.162 389.995,98.1623 348,75.5C 350.231,83.5262 352.898,91.5262 356,99.5C 358.56,111.391 353.894,118.391 342,120.5C 335.339,119.846 330.672,116.513 328,110.5C 320.334,89.6698 313.168,68.6698 306.5,47.5C 307.378,40.4661 311.045,35.6327 317.5,33C 337.705,27.785 357.705,22.285 377.5,16.5 Z"/>
<path d="M 201.5,29.5 C 211.026,29.8618 216.692,34.6952 218.5,44C 218.152,50.0324 215.486,54.699 210.5,58C 145.508,74.997 98.6744,113.83 70,174.5C 44.1875,238.962 48.5209,301.295 83,361.5C 103.291,393.127 129.958,417.794 163,435.5C 160.769,427.474 158.102,419.474 155,411.5C 152.424,399.305 157.258,392.305 169.5,390.5C 175.946,391.297 180.446,394.631 183,400.5C 190.666,421.33 197.832,442.33 204.5,463.5C 203.688,470.481 200.021,475.315 193.5,478C 173.5,483.333 153.5,488.667 133.5,494C 119.999,494.495 114.166,487.995 116,474.5C 117.442,470.725 119.942,467.892 123.5,466C 130.455,463.845 137.455,461.845 144.5,460C 66.8819,414.314 26.5486,346.147 23.5,255.5C 26.3358,167.282 65.0025,100.115 139.5,54C 159.167,42.9517 179.834,34.785 201.5,29.5 Z"/>
<path d="M 239.5,114.5 C 299.617,110.974 345.784,134.307 378,184.5C 398.053,221.129 402.053,259.462 390,299.5C 369.588,354.974 330.088,387.14 271.5,396C 211.359,400.014 165.193,376.847 133,326.5C 113.401,290.971 109.068,253.638 120,214.5C 139.966,157.363 179.8,124.029 239.5,114.5 Z M 250.5,182.5 C 260.002,180.665 266.169,184.331 269,193.5C 269.333,212.167 269.667,230.833 270,249.5C 283.145,258.563 295.479,268.563 307,279.5C 310.066,288.537 307.233,295.037 298.5,299C 294.218,299.965 290.218,299.298 286.5,297C 273.785,286.617 260.785,276.617 247.5,267C 245.622,265.457 244.122,263.624 243,261.5C 241.365,238.897 241.032,216.23 242,193.5C 243.553,188.788 246.386,185.121 250.5,182.5 Z"/>
</g>
</svg>
