<?xml version="1.0" encoding="UTF-8"?>
<!DOCTYPE svg PUBLIC "-//W3C//DTD SVG 1.1//EN" "http://www.w3.org/Graphics/SVG/1.1/DTD/svg11.dtd">
<svg xmlns="http://www.w3.org/2000/svg" version="1.1" width="512px" height="512px" style="shape-rendering:geometricPrecision; text-rendering:geometricPrecision; image-rendering:optimizeQuality; fill-rule:evenodd; clip-rule:evenodd" xmlns:xlink="http://www.w3.org/1999/xlink">
<g fill="#c55656" stroke="none">
<path d="M 347.5,-0.5 C 394.5,-0.5 441.5,-0.5 488.5,-0.5C 483.958,9.4154 479.292,19.2487 474.5,29C 478.735,38.9718 483.401,48.8052 488.5,58.5C 446.505,59.4999 404.505,59.8332 362.5,59.5C 362.667,127.834 362.5,196.167 362,264.5C 359.277,261.443 356.944,258.11 355,254.5C 352.667,257.833 350.333,261.167 348,264.5C 347.5,176.167 347.333,87.834 347.5,-0.5 Z"/>
<path d="M 124.5,16.5 C 154.583,13.7493 168.083,27.416 165,57.5C 163.384,69.2338 158.217,79.0672 149.5,87C 133.488,95.5159 120.321,92.3492 110,77.5C 100.933,61.1138 100.266,44.4471 108,27.5C 112.632,22.3397 118.132,18.673 124.5,16.5 Z"/>
<path d="M -0.5,217.5 C -0.5,213.833 -0.5,210.167 -0.5,206.5C 16.0536,182.426 32.887,158.426 50,134.5C 59.7789,121.38 71.9455,111.214 86.5,104C 89.4245,103.012 92.4245,102.346 95.5,102C 142.546,101.564 189.546,100.564 236.5,99C 241.239,97.881 245.072,95.381 248,91.5C 260.833,73.3333 273.667,55.1667 286.5,37C 300.665,29.4109 309.998,33.4109 314.5,49C 314.079,51.1846 313.579,53.3513 313,55.5C 295.221,80.946 277.054,106.113 258.5,131C 254.353,134.049 249.687,135.716 244.5,136C 231.5,136.333 218.5,136.667 205.5,137C 189.754,139.413 179.587,148.246 175,163.5C 173.934,174.967 173.434,186.467 173.5,198C 173.371,207.903 173.871,217.737 175,227.5C 197.418,240.626 219.918,253.626 242.5,266.5C 243.5,292.491 243.833,318.491 243.5,344.5C 231.167,344.5 218.833,344.5 206.5,344.5C 206.667,324.831 206.5,305.164 206,285.5C 182.752,272.46 159.585,259.293 136.5,246C 134.833,245.333 133.167,245.333 131.5,246C 130.67,284.095 130.17,322.262 130,360.5C 117.682,373.985 104.849,386.985 91.5,399.5C 90.8333,317.167 90.1667,234.833 89.5,152.5C 88.2322,151.572 86.8989,151.405 85.5,152C 78.7066,157.125 72.2066,162.625 66,168.5C 53.2784,185.555 40.9451,202.889 29,220.5C 21.313,228.819 12.813,229.652 3.5,223C 2.30342,220.985 0.970083,219.151 -0.5,217.5 Z"/>
<path d="M 511.5,509.5 C 511.5,510.167 511.5,510.833 511.5,511.5C 349.167,511.5 186.833,511.5 24.5,511.5C 71.4442,457.72 118.944,404.386 167,351.5C 195.246,369.374 223.08,387.874 250.5,407C 252.167,407.667 253.833,407.667 255.5,407C 288.544,359.746 321.71,312.579 355,265.5C 407.03,347.008 459.196,428.341 511.5,509.5 Z"/>
</g>
</svg>
