<?xml version="1.0" encoding="UTF-8"?>
<!DOCTYPE svg PUBLIC "-//W3C//DTD SVG 1.1//EN" "http://www.w3.org/Graphics/SVG/1.1/DTD/svg11.dtd">
<svg xmlns="http://www.w3.org/2000/svg" version="1.1" width="512px" height="512px" style="shape-rendering:geometricPrecision; text-rendering:geometricPrecision; image-rendering:optimizeQuality; fill-rule:evenodd; clip-rule:evenodd" xmlns:xlink="http://www.w3.org/1999/xlink">
<g fill="#c55656" stroke="none">
<path d="M 511.5,189.5 C 511.5,197.5 511.5,205.5 511.5,213.5C 509.723,220.317 507.223,226.983 504,233.5C 497.167,243.833 490.333,254.167 483.5,264.5C 331.5,265.833 179.5,265.833 27.5,264.5C 20.6667,254.167 13.8333,243.833 7,233.5C 3.77661,226.983 1.27661,220.317 -0.5,213.5C -0.5,205.5 -0.5,197.5 -0.5,189.5C 4.86585,166.627 18.1992,150.127 39.5,140C 103.575,117.864 167.575,95.5306 231.5,73C 247.494,67.0014 263.494,67.0014 279.5,73C 343.425,95.5306 407.425,117.864 471.5,140C 492.801,150.127 506.134,166.627 511.5,189.5 Z M 254.5,127.5 C 255.376,127.369 256.043,127.702 256.5,128.5C 261.118,138.237 266.118,147.737 271.5,157C 282.5,158.667 293.5,160.333 304.5,162C 296.667,169.833 288.833,177.667 281,185.5C 282.333,196.833 283.667,208.167 285,219.5C 275.208,214.354 265.375,209.354 255.5,204.5C 245.625,209.354 235.792,214.354 226,219.5C 227.333,208.167 228.667,196.833 230,185.5C 222.167,177.667 214.333,169.833 206.5,162C 217.879,160.398 229.213,158.565 240.5,156.5C 245.45,146.934 250.117,137.267 254.5,127.5 Z"/>
<path d="M 41.5,294.5 C 184.167,294.5 326.833,294.5 469.5,294.5C 469.5,304.833 469.5,315.167 469.5,325.5C 326.833,325.5 184.167,325.5 41.5,325.5C 41.5,315.167 41.5,304.833 41.5,294.5 Z"/>
<path d="M 41.5,354.5 C 184.167,354.5 326.833,354.5 469.5,354.5C 470.14,369.244 469.473,383.744 467.5,398C 424.921,409.978 382.255,421.645 339.5,433C 283.5,445.667 227.5,445.667 171.5,433C 128.745,421.645 86.0788,409.978 43.5,398C 41.5269,383.744 40.8602,369.244 41.5,354.5 Z"/>
</g>
</svg>