<?xml version="1.0" encoding="UTF-8"?>
<!DOCTYPE svg PUBLIC "-//W3C//DTD SVG 1.1//EN" "http://www.w3.org/Graphics/SVG/1.1/DTD/svg11.dtd">
<svg xmlns="http://www.w3.org/2000/svg" version="1.1" width="512px" height="512px" style="shape-rendering:geometricPrecision; text-rendering:geometricPrecision; image-rendering:optimizeQuality; fill-rule:evenodd; clip-rule:evenodd" xmlns:xlink="http://www.w3.org/1999/xlink">
<g fill="#a74e9f" stroke="none">
<path d="M 363.5,-0.5 C 367.167,-0.5 370.833,-0.5 374.5,-0.5C 417.932,31.7519 461.266,64.2519 504.5,97C 507.454,99.4412 509.787,102.275 511.5,105.5C 511.5,181.167 511.5,256.833 511.5,332.5C 509.588,336.905 506.255,339.739 501.5,341C 492.506,341.5 483.506,341.666 474.5,341.5C 474.667,310.498 474.5,279.498 474,248.5C 472.452,235.619 466.619,225.119 456.5,217C 408.216,181.051 360.216,144.717 312.5,108C 294.452,95.3478 276.452,95.3478 258.5,108C 248.243,115.712 238.076,123.546 228,131.5C 227.586,131.043 227.086,130.709 226.5,130.5C 224.895,121.029 225.395,111.696 228,102.5C 272.786,67.5395 317.953,33.2062 363.5,-0.5 Z"/>
<path d="M -0.5,439.5 C -0.5,363.833 -0.5,288.167 -0.5,212.5C 4.15172,206.992 9.48506,202.159 15.5,198C 55.5,168 95.5,138 135.5,108C 140.643,105.96 145.643,106.293 150.5,109C 168.167,122.5 185.833,136 203.5,149.5C 172.5,173 141.5,196.5 110.5,220C 103.229,227.375 98.7287,236.209 97,246.5C 96.5,314.166 96.3333,381.833 96.5,449.5C 67.4981,449.667 38.4981,449.5 9.5,449C 4.9552,446.952 1.62186,443.785 -0.5,439.5 Z"/>
<path d="M 435.5,511.5 C 403.167,511.5 370.833,511.5 338.5,511.5C 338.983,442.796 338.483,374.13 337,305.5C 334.685,301.183 331.185,298.35 326.5,297C 298.833,296.333 271.167,296.333 243.5,297C 237.902,298.931 234.402,302.764 233,308.5C 232.5,376.166 232.333,443.833 232.5,511.5C 200.167,511.5 167.833,511.5 135.5,511.5C 130.766,509.261 127.599,505.594 126,500.5C 125.008,415.443 125.341,330.443 127,245.5C 128.458,243.04 130.291,240.873 132.5,239C 180.45,203.384 228.117,167.384 275.5,131C 284.162,126.159 292.162,127.159 299.5,134C 346.167,169.333 392.833,204.667 439.5,240C 441.617,241.731 443.117,243.898 444,246.5C 445.658,330.777 445.992,415.11 445,499.5C 443.806,505.181 440.64,509.181 435.5,511.5 Z"/>
<path d="M 309.5,511.5 C 293.5,511.5 277.5,511.5 261.5,511.5C 261.5,449.5 261.5,387.5 261.5,325.5C 277.5,325.5 293.5,325.5 309.5,325.5C 309.5,387.5 309.5,449.5 309.5,511.5 Z"/>
</g>
</svg>
