<?xml version="1.0" standalone="no"?>
<!DOCTYPE svg PUBLIC "-//W3C//DTD SVG 20010904//EN"
 "http://www.w3.org/TR/2001/REC-SVG-20010904/DTD/svg10.dtd">
<svg version="1.0" xmlns="http://www.w3.org/2000/svg"
 width="512.000000pt" height="512.000000pt" viewBox="0 0 512.000000 512.000000"
 preserveAspectRatio="xMidYMid meet">

<g transform="translate(0.000000,512.000000) scale(0.100000,-0.100000)"
fill="#c55656" stroke="none">
<path d="M2068 5105 c-166 -42 -300 -164 -364 -331 -33 -84 -44 -243 -24 -333
28 -126 101 -248 232 -387 85 -89 630 -564 648 -564 18 0 552 464 640 556 135
140 212 267 240 395 19 84 8 249 -20 324 -86 228 -292 367 -520 352 -119 -8
-221 -53 -308 -135 l-34 -32 -31 32 c-44 43 -123 92 -182 113 -68 23 -205 28
-277 10z"/>
<path d="M1467 3289 c-258 -29 -519 -125 -732 -268 -597 -398 -868 -1139 -670
-1826 176 -608 678 -1059 1302 -1170 190 -33 445 -29 623 11 86 19 270 76 270
83 -1 3 -21 22 -46 41 -77 59 -255 251 -326 350 l-66 94 -169 1 c-137 2 -182
6 -246 23 -399 109 -670 381 -780 782 -29 109 -29 371 0 480 94 341 317 604
618 726 159 65 222 77 405 77 180 0 235 -10 395 -72 243 -94 482 -333 576
-576 60 -155 72 -216 74 -390 2 -180 -9 -144 112 -354 62 -109 174 -228 269
-287 41 -26 76 -45 78 -43 24 28 98 271 123 402 23 128 23 426 0 554 -96 516
-400 936 -855 1180 -280 151 -638 219 -955 182z"/>
<path d="M3284 3289 c-103 -12 -205 -34 -320 -70 l-101 -31 151 -152 c92 -92
177 -188 218 -245 l66 -95 169 -1 c183 -2 239 -13 398 -74 243 -94 482 -333
576 -576 62 -160 72 -215 72 -395 0 -180 -10 -235 -72 -395 -94 -243 -333
-482 -576 -576 -160 -62 -215 -72 -395 -72 -137 0 -178 3 -243 21 -399 109
-671 381 -779 782 -17 59 -21 109 -23 235 -2 180 9 144 -112 354 -62 109 -174
228 -269 287 -41 26 -76 45 -78 43 -24 -28 -100 -276 -123 -404 -23 -124 -23
-426 0 -550 131 -712 658 -1231 1377 -1357 109 -19 412 -16 525 5 352 64 650
219 895 467 493 496 618 1245 315 1875 -247 514 -740 863 -1307 924 -111 12
-260 12 -364 0z"/>
</g>
</svg>
