<?xml version="1.0" encoding="UTF-8"?>
<!DOCTYPE svg PUBLIC "-//W3C//DTD SVG 1.1//EN" "http://www.w3.org/Graphics/SVG/1.1/DTD/svg11.dtd">
<svg xmlns="http://www.w3.org/2000/svg" version="1.1" width="512px" height="512px" style="shape-rendering:geometricPrecision; text-rendering:geometricPrecision; image-rendering:optimizeQuality; fill-rule:evenodd; clip-rule:evenodd" xmlns:xlink="http://www.w3.org/1999/xlink">
<g fill="#a74e9f" stroke="none">
<path d="M 135.5,-0.5 C 170.167,-0.5 204.833,-0.5 239.5,-0.5C 239.5,170.167 239.5,340.833 239.5,511.5C 204.833,511.5 170.167,511.5 135.5,511.5C 135.5,340.833 135.5,170.167 135.5,-0.5 Z"/>
<path d="M 375.5,511.5 C 340.833,511.5 306.167,511.5 271.5,511.5C 271.5,379.167 271.5,246.833 271.5,114.5C 283.167,114.5 294.833,114.5 306.5,114.5C 306.5,93.5 306.5,72.5 306.5,51.5C 318.167,51.5 329.833,51.5 341.5,51.5C 341.5,72.5 341.5,93.5 341.5,114.5C 352.833,114.5 364.167,114.5 375.5,114.5C 375.5,246.833 375.5,379.167 375.5,511.5 Z"/>
<path d="M 102.5,511.5 C 68.1667,511.5 33.8333,511.5 -0.5,511.5C -0.5,403.833 -0.5,296.167 -0.5,188.5C 33.721,171.223 68.0543,154.223 102.5,137.5C 102.5,262.167 102.5,386.833 102.5,511.5 Z"/>
<path d="M 511.5,258.5 C 511.5,342.833 511.5,427.167 511.5,511.5C 477.167,511.5 442.833,511.5 408.5,511.5C 408.5,427.167 408.5,342.833 408.5,258.5C 442.833,258.5 477.167,258.5 511.5,258.5 Z"/>
</g>
</svg>
