<?xml version="1.0" encoding="UTF-8"?>
<!DOCTYPE svg PUBLIC "-//W3C//DTD SVG 1.1//EN" "http://www.w3.org/Graphics/SVG/1.1/DTD/svg11.dtd">
<svg xmlns="http://www.w3.org/2000/svg" version="1.1" width="512px" height="512px" style="shape-rendering:geometricPrecision; text-rendering:geometricPrecision; image-rendering:optimizeQuality; fill-rule:evenodd; clip-rule:evenodd" xmlns:xlink="http://www.w3.org/1999/xlink">
<g fill="#c55656" stroke="none">
<path d="M 399.5,-0.5 C 403.167,-0.5 406.833,-0.5 410.5,-0.5C 445.506,32.1724 479.172,66.1724 511.5,101.5C 511.5,104.833 511.5,108.167 511.5,111.5C 503.659,123.816 494.825,135.483 485,146.5C 469.5,163.333 453.333,179.5 436.5,195C 419.205,209.321 400.539,221.654 380.5,232C 369.656,236.837 358.323,239.837 346.5,241C 307.461,241.97 268.461,241.637 229.5,240C 206.176,233.176 191.509,218.01 185.5,194.5C 186.166,187.002 190.166,182.502 197.5,181C 243.167,180.667 288.833,180.333 334.5,180C 344.58,175.092 347.08,167.592 342,157.5C 340.269,155.383 338.102,153.883 335.5,153C 283.225,151.347 230.892,151.013 178.5,152C 174.278,153.026 170.778,155.193 168,158.5C 129.697,210.384 80.5303,247.884 20.5,271C 10.9267,273.209 3.92667,270.043 -0.5,261.5C -0.5,258.167 -0.5,254.833 -0.5,251.5C 0.97576,249.231 2.47576,246.898 4,244.5C 49.8262,193.674 95.9929,143.174 142.5,93C 144.392,92.0266 146.392,91.3599 148.5,91C 186.338,88.1292 224.004,83.7958 261.5,78C 288.126,74.0116 313.46,66.0116 337.5,54C 359.917,40.2578 379.25,22.9245 395.5,2C 397.066,1.3918 398.4,0.558465 399.5,-0.5 Z"/>
<path d="M 511.5,249.5 C 511.5,252.833 511.5,256.167 511.5,259.5C 510.024,261.769 508.524,264.102 507,266.5C 461.174,317.326 415.007,367.826 368.5,418C 366.608,418.973 364.608,419.64 362.5,420C 317.821,423.038 273.488,428.705 229.5,437C 183.912,445.96 147.079,468.794 119,505.5C 116.886,508.121 114.386,510.121 111.5,511.5C 107.833,511.5 104.167,511.5 100.5,511.5C 65.4943,478.828 31.8276,444.828 -0.5,409.5C -0.5,406.167 -0.5,402.833 -0.5,399.5C 7.24936,387.698 15.7494,376.365 25,365.5C 40.8333,348.333 57.3333,331.833 74.5,316C 91.7947,301.679 110.461,289.346 130.5,279C 141.344,274.163 152.677,271.163 164.5,270C 203.539,269.03 242.539,269.363 281.5,271C 304.824,277.824 319.491,292.99 325.5,316.5C 324.834,323.998 320.834,328.498 313.5,330C 267.833,330.333 222.167,330.667 176.5,331C 166.42,335.908 163.92,343.408 169,353.5C 170.731,355.617 172.898,357.117 175.5,358C 227.775,359.653 280.108,359.987 332.5,359C 336.722,357.974 340.222,355.807 343,352.5C 381.303,300.616 430.47,263.116 490.5,240C 500.073,237.791 507.073,240.957 511.5,249.5 Z"/>
</g>
</svg>
