<?xml version="1.0" encoding="UTF-8"?>
<!DOCTYPE svg PUBLIC "-//W3C//DTD SVG 1.1//EN" "http://www.w3.org/Graphics/SVG/1.1/DTD/svg11.dtd">
<svg xmlns="http://www.w3.org/2000/svg" version="1.1" width="512px" height="512px" style="shape-rendering:geometricPrecision; text-rendering:geometricPrecision; image-rendering:optimizeQuality; fill-rule:evenodd; clip-rule:evenodd" xmlns:xlink="http://www.w3.org/1999/xlink">
<g fill="#c55656" stroke="none">
<path d="M 232.5,-0.5 C 236.5,-0.5 240.5,-0.5 244.5,-0.5C 248.479,1.31481 251.312,4.31481 253,8.5C 253.184,16.0795 253.684,23.5795 254.5,31C 283.804,43.7398 313.471,44.7398 343.5,34C 359.688,25.2384 376.355,17.5717 393.5,11C 431.803,-0.893001 467.47,4.44033 500.5,27C 503.462,29.2866 505.629,32.1199 507,35.5C 507.667,88.1667 507.667,140.833 507,193.5C 504.04,199.114 499.373,202.447 493,203.5C 480.603,198.811 468.103,194.311 455.5,190C 431.603,184.106 408.27,185.772 385.5,195C 374.167,200.667 362.833,206.333 351.5,212C 319.114,226.171 286.447,227.004 253.5,214.5C 253.667,310.501 253.5,406.501 253,502.5C 251.312,506.685 248.479,509.685 244.5,511.5C 240.5,511.5 236.5,511.5 232.5,511.5C 228.521,509.685 225.688,506.685 224,502.5C 223.333,337.833 223.333,173.167 224,8.5C 225.688,4.31481 228.521,1.31481 232.5,-0.5 Z"/>
<path d="M 74.5,56.5 C 115.044,53.669 140.877,71.669 152,110.5C 156.352,147.311 141.518,172.811 107.5,187C 73.8856,195.911 47.3856,186.077 28,157.5C 11.1264,121.858 17.9597,91.6909 48.5,67C 56.7516,62.2004 65.4183,58.7004 74.5,56.5 Z"/>
<path d="M 136.5,511.5 C 102.833,511.5 69.1667,511.5 35.5,511.5C 30.7658,509.261 27.5992,505.594 26,500.5C 25.6667,463.5 25.3333,426.5 25,389.5C 13.0843,382.91 5.75093,372.91 3,359.5C 2.33333,323.5 2.33333,287.5 3,251.5C 7.5,233.667 18.6667,222.5 36.5,218C 88.8168,216.213 141.15,216.046 193.5,217.5C 193.5,247.5 193.5,277.5 193.5,307.5C 177.5,307.5 161.5,307.5 145.5,307.5C 145.667,372.501 145.5,437.501 145,502.5C 142.975,506.356 140.142,509.356 136.5,511.5 Z"/>
</g>
</svg>
