<?xml version="1.0" encoding="UTF-8"?>
<!DOCTYPE svg PUBLIC "-//W3C//DTD SVG 1.1//EN" "http://www.w3.org/Graphics/SVG/1.1/DTD/svg11.dtd">
<svg xmlns="http://www.w3.org/2000/svg" version="1.1" width="512px" height="512px" style="shape-rendering:geometricPrecision; text-rendering:geometricPrecision; image-rendering:optimizeQuality; fill-rule:evenodd; clip-rule:evenodd" xmlns:xlink="http://www.w3.org/1999/xlink">
<g fill="#c55656" stroke="none">
<path d="M 249.5,-0.5 C 253.5,-0.5 257.5,-0.5 261.5,-0.5C 342.661,49.8035 423.995,99.9702 505.5,150C 508.153,152.134 510.153,154.634 511.5,157.5C 511.5,161.167 511.5,164.833 511.5,168.5C 509.181,173.64 505.181,176.806 499.5,178C 336.833,178.667 174.167,178.667 11.5,178C 5.81949,176.806 1.81949,173.64 -0.5,168.5C -0.5,164.833 -0.5,161.167 -0.5,157.5C 1.56573,153.597 4.56573,150.43 8.5,148C 89.2319,98.9762 169.565,49.4762 249.5,-0.5 Z M 241.5,88.5 C 251.912,88.0738 262.246,88.5738 272.5,90C 282.724,97.9087 283.057,106.242 273.5,115C 271.608,115.973 269.608,116.64 267.5,117C 259.5,117.667 251.5,117.667 243.5,117C 231.179,112.892 228.013,105.058 234,93.5C 236.426,91.5476 238.926,89.881 241.5,88.5 Z"/>
<path d="M 34.5,207.5 C 181.833,207.5 329.167,207.5 476.5,207.5C 476.891,214.921 476.391,222.254 475,229.5C 472.685,233.817 469.185,236.65 464.5,238C 325.167,238.667 185.833,238.667 46.5,238C 41.8151,236.65 38.3151,233.817 36,229.5C 34.6095,222.254 34.1095,214.921 34.5,207.5 Z"/>
<path d="M 54.5,267.5 C 74.8333,267.5 95.1667,267.5 115.5,267.5C 115.5,315.5 115.5,363.5 115.5,411.5C 95.1667,411.5 74.8333,411.5 54.5,411.5C 54.5,363.5 54.5,315.5 54.5,267.5 Z"/>
<path d="M 168.5,267.5 C 188.833,267.5 209.167,267.5 229.5,267.5C 229.5,315.5 229.5,363.5 229.5,411.5C 209.167,411.5 188.833,411.5 168.5,411.5C 168.5,363.5 168.5,315.5 168.5,267.5 Z"/>
<path d="M 281.5,267.5 C 301.833,267.5 322.167,267.5 342.5,267.5C 342.5,315.5 342.5,363.5 342.5,411.5C 322.167,411.5 301.833,411.5 281.5,411.5C 281.5,363.5 281.5,315.5 281.5,267.5 Z"/>
<path d="M 395.5,267.5 C 415.833,267.5 436.167,267.5 456.5,267.5C 456.5,315.5 456.5,363.5 456.5,411.5C 436.167,411.5 415.833,411.5 395.5,411.5C 395.5,363.5 395.5,315.5 395.5,267.5 Z"/>
<path d="M 511.5,450.5 C 511.5,467.833 511.5,485.167 511.5,502.5C 510.196,503.987 509.03,505.654 508,507.5C 505.985,508.697 504.151,510.03 502.5,511.5C 337.833,511.5 173.167,511.5 8.5,511.5C 7.01307,510.196 5.3464,509.03 3.5,508C 2.30342,505.985 0.970083,504.151 -0.5,502.5C -0.5,485.167 -0.5,467.833 -0.5,450.5C 1.31481,446.521 4.31481,443.688 8.5,442C 173.167,441.333 337.833,441.333 502.5,442C 506.685,443.688 509.685,446.521 511.5,450.5 Z"/>
</g>
</svg>