<?xml version="1.0" encoding="UTF-8"?>
<!DOCTYPE svg PUBLIC "-//W3C//DTD SVG 1.1//EN" "http://www.w3.org/Graphics/SVG/1.1/DTD/svg11.dtd">
<svg xmlns="http://www.w3.org/2000/svg" version="1.1" width="512px" height="512px" style="shape-rendering:geometricPrecision; text-rendering:geometricPrecision; image-rendering:optimizeQuality; fill-rule:evenodd; clip-rule:evenodd" xmlns:xlink="http://www.w3.org/1999/xlink">
<g fill="#a74e9f" stroke="none">
<path d="M 43.5,-0.5 C 44.5,-0.5 45.5,-0.5 46.5,-0.5C 61.4788,14.8126 76.4788,30.1459 91.5,45.5C 85.0147,52.4856 78.348,59.3189 71.5,66C 70.5,66.6667 69.5,66.6667 68.5,66C 66,63.5 63.5,61 61,58.5C 60.3333,189.833 60.3333,321.167 61,452.5C 63.5,450 66,447.5 68.5,445C 69.5,444.333 70.5,444.333 71.5,445C 78.348,451.681 85.0147,458.514 91.5,465.5C 76.4788,480.854 61.4788,496.187 46.5,511.5C 45.5,511.5 44.5,511.5 43.5,511.5C 29.1667,496.5 14.5,481.833 -0.5,467.5C -0.5,466.5 -0.5,465.5 -0.5,464.5C 6.4795,457.855 13.4795,451.188 20.5,444.5C 23.4843,446.984 26.3176,449.65 29,452.5C 29.6667,321.167 29.6667,189.833 29,58.5C 26.3176,61.3497 23.4843,64.0164 20.5,66.5C 13.4795,59.8118 6.4795,53.1451 -0.5,46.5C -0.5,45.5 -0.5,44.5 -0.5,43.5C 14.5,29.1667 29.1667,14.5 43.5,-0.5 Z"/>
<path d="M 249.5,1.5 C 299.998,0.334981 350.665,0.168314 401.5,1C 435.5,34.3333 469.5,67.6667 503.5,101C 450.5,101.667 397.5,101.667 344.5,101C 312.602,67.9379 280.935,34.7712 249.5,1.5 Z"/>
<path d="M 219.5,12.5 C 248.369,41.3287 276.702,70.8287 304.5,101C 246.167,101.667 187.833,101.667 129.5,101C 159.7,71.6326 189.7,42.1326 219.5,12.5 Z"/>
<path d="M 120.5,130.5 C 188.833,130.5 257.167,130.5 325.5,130.5C 325.667,212.834 325.5,295.167 325,377.5C 291.071,378.165 257.071,378.498 223,378.5C 188.929,378.498 154.929,378.165 121,377.5C 120.5,295.167 120.333,212.834 120.5,130.5 Z"/>
<path d="M 511.5,130.5 C 511.5,212.833 511.5,295.167 511.5,377.5C 459.167,377.5 406.833,377.5 354.5,377.5C 354.5,295.167 354.5,212.833 354.5,130.5C 406.833,130.5 459.167,130.5 511.5,130.5 Z"/>
<path d="M 511.5,460.5 C 511.5,461.5 511.5,462.5 511.5,463.5C 496.201,478.298 481.035,493.298 466,508.5C 458.652,501.319 451.485,493.986 444.5,486.5C 446.984,483.516 449.65,480.682 452.5,478C 356.167,477.333 259.833,477.333 163.5,478C 166.35,480.682 169.016,483.516 171.5,486.5C 164.515,493.986 157.348,501.319 150,508.5C 134.319,492.986 118.819,477.319 103.5,461.5C 118.5,445.833 133.833,430.5 149.5,415.5C 156.986,422.485 164.319,429.652 171.5,437C 168.5,440 165.5,443 162.5,446C 259.167,446.667 355.833,446.667 452.5,446C 450,443.5 447.5,441 445,438.5C 444.333,437.5 444.333,436.5 445,435.5C 451.681,428.652 458.514,421.985 465.5,415.5C 480.854,430.521 496.187,445.521 511.5,460.5 Z"/>
</g>
</svg>
