<?xml version="1.0" encoding="UTF-8"?>
<!DOCTYPE svg PUBLIC "-//W3C//DTD SVG 1.1//EN" "http://www.w3.org/Graphics/SVG/1.1/DTD/svg11.dtd">
<svg xmlns="http://www.w3.org/2000/svg" version="1.1" width="512px" height="512px" style="shape-rendering:geometricPrecision; text-rendering:geometricPrecision; image-rendering:optimizeQuality; fill-rule:evenodd; clip-rule:evenodd" xmlns:xlink="http://www.w3.org/1999/xlink">
<g fill="#a74e9f" stroke="none">
<path d="M -0.5,85.5 C -0.5,84.5 -0.5,83.5 -0.5,82.5C 8.87189,73.3914 18.3719,64.3914 28,55.5C 37,64.5 46,73.5 55,82.5C 76.3333,61.1667 97.6667,39.8333 119,18.5C 128.681,28.0141 138.181,37.6808 147.5,47.5C 116.847,78.653 86.0138,109.653 55,140.5C 36.6319,121.965 18.1319,103.632 -0.5,85.5 Z"/>
<path d="M 511.5,35.5 C 511.5,46.5 511.5,57.5 511.5,68.5C 398.903,69.6644 286.236,69.831 173.5,69C 172.513,57.9146 172.179,46.748 172.5,35.5C 285.5,35.5 398.5,35.5 511.5,35.5 Z"/>
<path d="M 173.5,89.5 C 229.834,89.3333 286.168,89.5 342.5,90C 343.833,101 343.833,112 342.5,123C 285.834,123.5 229.168,123.667 172.5,123.5C 172.189,112.086 172.523,100.752 173.5,89.5 Z"/>
<path d="M -0.5,261.5 C -0.5,260.5 -0.5,259.5 -0.5,258.5C 9.43308,250.07 18.9331,241.07 28,231.5C 37,240.5 46,249.5 55,258.5C 76.3333,237.167 97.6667,215.833 119,194.5C 128.681,204.014 138.181,213.681 147.5,223.5C 116.833,254.833 85.8333,285.833 54.5,316.5C 36.5061,297.839 18.1727,279.506 -0.5,261.5 Z"/>
<path d="M 511.5,211.5 C 511.5,222.5 511.5,233.5 511.5,244.5C 398.903,245.664 286.236,245.831 173.5,245C 172.513,233.915 172.179,222.748 172.5,211.5C 285.5,211.5 398.5,211.5 511.5,211.5 Z"/>
<path d="M 173.5,265.5 C 229.834,265.333 286.168,265.5 342.5,266C 343.833,277 343.833,288 342.5,299C 285.834,299.5 229.168,299.667 172.5,299.5C 172.189,288.086 172.523,276.752 173.5,265.5 Z"/>
<path d="M -0.5,437.5 C -0.5,436.833 -0.5,436.167 -0.5,435.5C 9.13171,426.369 18.6317,417.036 28,407.5C 37,416.5 46,425.5 55,434.5C 76.3333,413.167 97.6667,391.833 119,370.5C 128.681,380.014 138.181,389.681 147.5,399.5C 116.833,430.833 85.8333,461.833 54.5,492.5C 36.5061,473.839 18.1727,455.506 -0.5,437.5 Z"/>
<path d="M 511.5,387.5 C 511.5,398.833 511.5,410.167 511.5,421.5C 398.833,421.667 286.166,421.5 173.5,421C 172.513,409.915 172.179,398.748 172.5,387.5C 285.5,387.5 398.5,387.5 511.5,387.5 Z"/>
<path d="M 172.5,442.5 C 229.168,442.333 285.834,442.5 342.5,443C 343.833,453.667 343.833,464.333 342.5,475C 285.834,475.5 229.168,475.667 172.5,475.5C 172.5,464.5 172.5,453.5 172.5,442.5 Z"/>
</g>
</svg>
