<?xml version="1.0" standalone="no"?>
<!DOCTYPE svg PUBLIC "-//W3C//DTD SVG 20010904//EN"
 "http://www.w3.org/TR/2001/REC-SVG-20010904/DTD/svg10.dtd">
<svg version="1.0" xmlns="http://www.w3.org/2000/svg"
 width="512.000000pt" height="512.000000pt" viewBox="0 0 512.000000 512.000000"
 preserveAspectRatio="xMidYMid meet">

<g transform="translate(0.000000,512.000000) scale(0.100000,-0.100000)"
fill="#a74e9f" stroke="none">
<path d="M340 2976 c-84 -18 -149 -54 -213 -117 -168 -167 -168 -430 0 -598
166 -165 420 -169 588 -10 92 87 135 185 135 309 0 123 -43 222 -133 308 -65
61 -119 89 -206 108 -78 16 -98 16 -171 0z"/>
<path d="M2487 2980 c-222 -39 -383 -262 -348 -481 38 -233 257 -396 482 -360
282 46 442 341 324 598 -79 174 -271 276 -458 243z"/>
<path d="M4604 2975 c-82 -18 -137 -47 -201 -107 -90 -86 -133 -185 -133 -308
0 -124 43 -222 135 -309 168 -159 422 -155 588 10 168 168 168 430 0 598 -65
64 -139 104 -227 120 -72 13 -84 13 -162 -4z"/>
</g>
</svg>
