<?xml version="1.0" standalone="no"?>
<!DOCTYPE svg PUBLIC "-//W3C//DTD SVG 20010904//EN"
 "http://www.w3.org/TR/2001/REC-SVG-20010904/DTD/svg10.dtd">
<svg version="1.0" xmlns="http://www.w3.org/2000/svg"
 width="512.000000pt" height="512.000000pt" viewBox="0 0 512.000000 512.000000"
 preserveAspectRatio="xMidYMid meet">

<g transform="translate(0.000000,512.000000) scale(0.100000,-0.100000)"
fill="#c55656" stroke="none">
<path d="M1147 5110 c-273 -49 -499 -213 -621 -449 -73 -142 -91 -219 -91
-396 0 -166 11 -221 70 -352 43 -93 84 -152 164 -237 163 -170 367 -257 606
-258 233 -2 422 72 587 230 191 183 277 395 265 656 -6 141 -29 230 -87 345
-140 280 -416 456 -730 466 -63 2 -137 0 -163 -5z"/>
<path d="M3707 5110 c-273 -49 -499 -213 -621 -449 -73 -142 -91 -219 -91
-396 0 -166 11 -221 70 -352 43 -93 84 -152 164 -237 163 -170 367 -257 606
-258 233 -2 422 72 587 230 191 183 277 395 265 656 -6 141 -29 230 -87 345
-140 280 -416 456 -730 466 -63 2 -137 0 -163 -5z"/>
<path d="M500 3184 c-177 -38 -348 -171 -429 -334 -66 -134 -71 -174 -71 -577
l0 -353 675 0 c371 0 675 3 675 8 0 4 -9 35 -20 69 -26 83 -50 253 -50 351 0
272 96 556 260 767 25 33 49 66 54 73 11 19 -1004 16 -1094 -4z"/>
<path d="M2427 3190 c-274 -50 -499 -212 -622 -450 -72 -141 -90 -218 -90
-395 0 -166 11 -221 70 -352 43 -93 84 -152 164 -237 163 -170 367 -257 606
-258 233 -2 422 72 587 230 191 183 277 395 265 656 -6 145 -30 235 -93 356
-143 275 -413 445 -724 455 -63 2 -137 0 -163 -5z"/>
<path d="M3531 3181 c137 -186 196 -291 243 -431 86 -260 86 -511 0 -807 l-6
-23 676 0 676 0 0 353 c0 404 -5 444 -72 577 -59 119 -162 221 -278 279 -141
69 -158 71 -739 71 -500 0 -513 -1 -500 -19z"/>
<path d="M1780 1264 c-177 -38 -348 -171 -429 -334 -66 -134 -71 -174 -71
-577 l0 -353 1280 0 1280 0 0 353 c0 404 -5 444 -72 577 -84 167 -252 297
-433 335 -100 21 -1457 21 -1555 -1z"/>
</g>
</svg>
