<?xml version="1.0" encoding="UTF-8"?>
<!DOCTYPE svg PUBLIC "-//W3C//DTD SVG 1.1//EN" "http://www.w3.org/Graphics/SVG/1.1/DTD/svg11.dtd">
<svg xmlns="http://www.w3.org/2000/svg" version="1.1" width="512px" height="512px" style="shape-rendering:geometricPrecision; text-rendering:geometricPrecision; image-rendering:optimizeQuality; fill-rule:evenodd; clip-rule:evenodd" xmlns:xlink="http://www.w3.org/1999/xlink">
<g fill="#3FB8AF" stroke="none">
<path d="M 169.5,-0.5 C 226.833,-0.5 284.167,-0.5 341.5,-0.5C 343.66,20.8663 339.494,40.8663 329,59.5C 316.5,78.6667 300.667,94.5 281.5,107C 324.231,117.1 361.231,137.433 392.5,168C 447.803,223.111 480.303,289.611 490,367.5C 494.201,422.931 473.034,465.431 426.5,495C 411.375,503.429 395.375,508.929 378.5,511.5C 296.5,511.5 214.5,511.5 132.5,511.5C 89.8915,504.718 57.7249,482.718 36,445.5C 23.1739,421.035 18.1739,395.035 21,367.5C 32.0498,278.541 71.8831,205.708 140.5,149C 166.932,128.285 196.599,114.285 229.5,107C 210.333,94.5 194.5,78.6667 182,59.5C 171.506,40.8663 167.34,20.8663 169.5,-0.5 Z M 234.5,191.5 C 248.5,191.5 262.5,191.5 276.5,191.5C 276.5,198.833 276.5,206.167 276.5,213.5C 309.632,215.477 330.465,232.477 339,264.5C 339.828,268.466 340.328,272.466 340.5,276.5C 326.5,276.5 312.5,276.5 298.5,276.5C 297.898,266.404 292.898,259.571 283.5,256C 264.833,255.333 246.167,255.333 227.5,256C 214.834,261.503 210.334,271.003 214,284.5C 215.458,286.96 217.291,289.127 219.5,291C 224.317,292.964 229.317,294.298 234.5,295C 254.538,298.117 274.538,301.451 294.5,305C 318.444,311.277 333.277,326.444 339,350.5C 343.024,378.28 333.524,400.113 310.5,416C 300.027,422.285 288.694,425.451 276.5,425.5C 276.5,432.833 276.5,440.167 276.5,447.5C 262.5,447.5 248.5,447.5 234.5,447.5C 234.5,440.167 234.5,432.833 234.5,425.5C 201.368,423.523 180.535,406.523 172,374.5C 171.172,370.534 170.672,366.534 170.5,362.5C 184.5,362.5 198.5,362.5 212.5,362.5C 213.136,372.622 218.136,379.456 227.5,383C 246.167,383.667 264.833,383.667 283.5,383C 296.166,377.497 300.666,367.997 297,354.5C 293.926,348.709 289.093,345.543 282.5,345C 260.497,341.333 238.497,337.666 216.5,334C 185.284,324.42 170.117,303.253 171,270.5C 177.51,235.156 198.677,216.156 234.5,213.5C 234.5,206.167 234.5,198.833 234.5,191.5 Z"/>
</g>
</svg>
