<?xml version="1.0" encoding="UTF-8"?>
<!DOCTYPE svg PUBLIC "-//W3C//DTD SVG 1.1//EN" "http://www.w3.org/Graphics/SVG/1.1/DTD/svg11.dtd">
<svg xmlns="http://www.w3.org/2000/svg" version="1.1" width="512px" height="512px" style="shape-rendering:geometricPrecision; text-rendering:geometricPrecision; image-rendering:optimizeQuality; fill-rule:evenodd; clip-rule:evenodd" xmlns:xlink="http://www.w3.org/1999/xlink">
<g fill="#c55656" stroke="none">
<path d="M 172.5,-0.5 C 177.833,-0.5 183.167,-0.5 188.5,-0.5C 213.255,5.75647 228.421,21.4231 234,46.5C 239.61,21.3929 254.776,5.72626 279.5,-0.5C 284.833,-0.5 290.167,-0.5 295.5,-0.5C 327.865,8.83748 343.032,30.5042 341,64.5C 338.465,79.5689 333.132,93.5689 325,106.5C 304.41,137.096 279.577,163.93 250.5,187C 238.929,193.272 227.596,192.938 216.5,186C 188.55,163.217 164.383,137.05 144,107.5C 136.466,95.765 131.133,83.0983 128,69.5C 123.485,33.4735 138.318,10.1402 172.5,-0.5 Z"/>
<path d="M 511.5,215.5 C 511.5,222.167 511.5,228.833 511.5,235.5C 509.454,245.927 504.954,255.261 498,263.5C 438.535,328.634 378.701,393.467 318.5,458C 283.448,488.521 242.782,506.355 196.5,511.5C 154.833,511.5 113.167,511.5 71.5,511.5C 32.5,502.5 8.5,478.5 -0.5,439.5C -0.5,395.167 -0.5,350.833 -0.5,306.5C 8.56321,264.275 34.5632,240.108 77.5,234C 139.198,233.023 200.864,233.356 262.5,235C 292.139,245.771 303.305,266.604 296,297.5C 289.377,313.794 277.544,323.96 260.5,328C 227.428,332.629 194.428,337.629 161.5,343C 150.538,349.209 147.038,358.375 151,370.5C 155.072,378.398 161.572,382.398 170.5,382.5C 202.889,378.421 235.223,373.921 267.5,369C 301.12,360.955 323.953,340.789 336,308.5C 340.517,295.148 341.35,281.648 338.5,268C 358.667,246.5 378.833,225 399,203.5C 407.898,193.932 417.398,185.099 427.5,177C 454.386,164.267 478.219,168.434 499,189.5C 505.085,197.334 509.252,206 511.5,215.5 Z"/>
</g>
</svg>
