<?xml version="1.0" encoding="UTF-8"?>
<!DOCTYPE svg PUBLIC "-//W3C//DTD SVG 1.1//EN" "http://www.w3.org/Graphics/SVG/1.1/DTD/svg11.dtd">
<svg xmlns="http://www.w3.org/2000/svg" version="1.1" width="512px" height="512px" style="shape-rendering:geometricPrecision; text-rendering:geometricPrecision; image-rendering:optimizeQuality; fill-rule:evenodd; clip-rule:evenodd" xmlns:xlink="http://www.w3.org/1999/xlink">
<g fill="#c55656" stroke="none">
<path d="M 192.5,-0.5 C 206.167,-0.5 219.833,-0.5 233.5,-0.5C 305.282,8.79227 360.115,44.1256 398,105.5C 430.17,164.208 435.17,225.208 413,288.5C 404.499,309.796 393.333,329.463 379.5,347.5C 423.188,391.854 467.188,435.854 511.5,479.5C 511.5,479.833 511.5,480.167 511.5,480.5C 500.833,490.5 490.5,500.833 480.5,511.5C 480.167,511.5 479.833,511.5 479.5,511.5C 435.854,467.188 391.854,423.188 347.5,379.5C 282.434,428.201 211.434,439.035 134.5,412C 65.9055,382.732 22.4055,331.899 4,259.5C 2.36933,250.711 0.869333,242.044 -0.5,233.5C -0.5,219.833 -0.5,206.167 -0.5,192.5C 10.3908,111.209 52.7241,52.7086 126.5,17C 147.788,8.01307 169.788,2.17974 192.5,-0.5 Z M 191.5,84.5 C 205.5,84.5 219.5,84.5 233.5,84.5C 233.5,91.8333 233.5,99.1667 233.5,106.5C 266.592,108.464 287.426,125.464 296,157.5C 296.642,161.491 297.142,165.491 297.5,169.5C 283.5,169.5 269.5,169.5 255.5,169.5C 254.823,157.302 248.49,150.135 236.5,148C 218.789,147.07 201.122,147.404 183.5,149C 170.213,155.52 166.38,165.687 172,179.5C 175.649,184.242 180.482,186.742 186.5,187C 208.186,190.559 229.852,194.225 251.5,198C 271.229,202.947 285.062,214.78 293,233.5C 302.462,265.787 293.295,291.287 265.5,310C 255.58,315.647 244.914,318.48 233.5,318.5C 233.5,325.5 233.5,332.5 233.5,339.5C 219.5,339.5 205.5,339.5 191.5,339.5C 191.5,332.5 191.5,325.5 191.5,318.5C 158.929,316.469 138.096,299.802 129,268.5C 128.077,264.21 127.577,259.877 127.5,255.5C 141.5,255.5 155.5,255.5 169.5,255.5C 170.117,265.607 175.117,272.44 184.5,276C 202.833,276.667 221.167,276.667 239.5,276C 252.96,270.913 257.794,261.413 254,247.5C 251.778,243.612 248.612,240.779 244.5,239C 222.852,235.225 201.186,231.559 179.5,228C 147.136,221.806 129.803,202.306 127.5,169.5C 129.906,137.835 146.239,117.335 176.5,108C 181.434,106.84 186.434,106.34 191.5,106.5C 191.5,99.1667 191.5,91.8333 191.5,84.5 Z"/>
</g>
</svg>
