<?xml version="1.0" encoding="UTF-8"?>
<!DOCTYPE svg PUBLIC "-//W3C//DTD SVG 1.1//EN" "http://www.w3.org/Graphics/SVG/1.1/DTD/svg11.dtd">
<svg xmlns="http://www.w3.org/2000/svg" version="1.1" width="512px" height="512px" style="shape-rendering:geometricPrecision; text-rendering:geometricPrecision; image-rendering:optimizeQuality; fill-rule:evenodd; clip-rule:evenodd" xmlns:xlink="http://www.w3.org/1999/xlink">
<g fill="#1e8326" stroke="none">
<path d="M 167.5,-0.5 C 231.5,-0.5 295.5,-0.5 359.5,-0.5C 359.5,30.5 359.5,61.5 359.5,92.5C 342.5,92.5 325.5,92.5 308.5,92.5C 308.167,107.848 308.501,123.181 309.5,138.5C 318.498,143.327 326.498,149.494 333.5,157C 357.167,157.333 380.833,157.667 404.5,158C 453.342,166.176 483.509,194.342 495,242.5C 496.441,271.134 496.941,299.801 496.5,328.5C 459.833,328.5 423.167,328.5 386.5,328.5C 386.667,313.163 386.5,297.83 386,282.5C 384.891,280.185 383.057,278.685 380.5,278C 368.486,277.167 356.486,277.334 344.5,278.5C 317.917,314.644 282.583,327.811 238.5,318C 215.656,311.416 197.656,298.249 184.5,278.5C 157.175,277.5 129.841,277.167 102.5,277.5C 102.5,237.5 102.5,197.5 102.5,157.5C 133.502,157.667 164.502,157.5 195.5,157C 201.922,149.964 209.256,144.13 217.5,139.5C 218.499,123.848 218.833,108.181 218.5,92.5C 201.5,92.5 184.5,92.5 167.5,92.5C 167.5,61.5 167.5,30.5 167.5,-0.5 Z"/>
<path d="M 7.5,106.5 C 29.8333,106.5 52.1667,106.5 74.5,106.5C 74.5,180.833 74.5,255.167 74.5,329.5C 52.1667,329.5 29.8333,329.5 7.5,329.5C 7.5,255.167 7.5,180.833 7.5,106.5 Z"/>
<path d="M 454.5,511.5 C 447.167,511.5 439.833,511.5 432.5,511.5C 402.471,503.674 386.138,484.174 383.5,453C 385.143,438.073 389.976,424.239 398,411.5C 411.465,389.872 426.632,369.539 443.5,350.5C 466.544,375.563 485.377,403.563 500,434.5C 507.779,463.097 499.612,485.93 475.5,503C 468.818,506.942 461.818,509.775 454.5,511.5 Z"/>
</g>
</svg>
