<?xml version="1.0" encoding="UTF-8"?>
<!DOCTYPE svg PUBLIC "-//W3C//DTD SVG 1.1//EN" "http://www.w3.org/Graphics/SVG/1.1/DTD/svg11.dtd">
<svg xmlns="http://www.w3.org/2000/svg" version="1.1" width="512px" height="512px" style="shape-rendering:geometricPrecision; text-rendering:geometricPrecision; image-rendering:optimizeQuality; fill-rule:evenodd; clip-rule:evenodd" xmlns:xlink="http://www.w3.org/1999/xlink">
<g fill="#c55656" stroke="none">
<path d="M 169.5,-0.5 C 226.833,-0.5 284.167,-0.5 341.5,-0.5C 341.5,56.1667 341.5,112.833 341.5,169.5C 398.167,169.5 454.833,169.5 511.5,169.5C 511.5,226.833 511.5,284.167 511.5,341.5C 454.833,341.5 398.167,341.5 341.5,341.5C 341.5,398.167 341.5,454.833 341.5,511.5C 284.167,511.5 226.833,511.5 169.5,511.5C 169.5,454.833 169.5,398.167 169.5,341.5C 112.833,341.5 56.1667,341.5 -0.5,341.5C -0.5,284.167 -0.5,226.833 -0.5,169.5C 56.1667,169.5 112.833,169.5 169.5,169.5C 169.5,112.833 169.5,56.1667 169.5,-0.5 Z"/>
</g>
</svg>
