<?xml version="1.0" encoding="UTF-8"?>
<!DOCTYPE svg PUBLIC "-//W3C//DTD SVG 1.1//EN" "http://www.w3.org/Graphics/SVG/1.1/DTD/svg11.dtd">
<svg xmlns="http://www.w3.org/2000/svg" version="1.1" width="512px" height="512px" style="shape-rendering:geometricPrecision; text-rendering:geometricPrecision; image-rendering:optimizeQuality; fill-rule:evenodd; clip-rule:evenodd" xmlns:xlink="http://www.w3.org/1999/xlink">
<g fill="#c55656" stroke="none">
<path d="M 80.5,-0.5 C 83.5,-0.5 86.5,-0.5 89.5,-0.5C 143.186,27.4981 196.853,27.4981 250.5,-0.5C 253.833,-0.5 257.167,-0.5 260.5,-0.5C 314.16,27.4993 367.826,27.4993 421.5,-0.5C 424.833,-0.5 428.167,-0.5 431.5,-0.5C 443.105,10.604 454.605,21.9374 466,33.5C 468.046,36.1345 469.213,39.1345 469.5,42.5C 466.3,49.903 462.8,57.2363 459,64.5C 449.349,91.3748 446.016,119.041 449,147.5C 454.172,175.191 459.506,202.858 465,230.5C 469.687,262.771 470.354,295.105 467,327.5C 462.59,352.979 452.257,375.646 436,395.5C 425.133,408.035 413.299,419.535 400.5,430C 384.713,441.783 368.379,452.783 351.5,463C 321.422,479.705 291.089,495.871 260.5,511.5C 257.167,511.5 253.833,511.5 250.5,511.5C 210.101,491.47 170.768,469.637 132.5,446C 109.286,430.621 88.7863,412.121 71,390.5C 53.4185,366.428 43.7518,339.428 42,309.5C 40.8378,276.915 43.1711,244.582 49,212.5C 53.3843,193.578 57.3843,174.578 61,155.5C 65.4,124.399 62.4,94.0654 52,64.5C 48.0669,57.1373 44.5669,49.6373 41.5,42C 41.796,40.1118 42.296,38.2784 43,36.5C 55.3951,23.9375 67.8951,11.6041 80.5,-0.5 Z M 254.5,117.5 C 258.491,117.621 261.657,119.287 264,122.5C 274.124,146.219 284.624,169.719 295.5,193C 318.514,196.24 341.514,199.573 364.5,203C 372.213,206.584 374.046,212.084 370,219.5C 353.667,235.833 337.333,252.167 321,268.5C 326.621,296.153 333.121,323.653 340.5,351C 338.677,360.245 333.344,363.245 324.5,360C 301.5,346.833 278.5,333.667 255.5,320.5C 231.833,334 208.167,347.5 184.5,361C 177.729,362.532 173.229,360.032 171,353.5C 176.684,326.758 183.018,300.092 190,273.5C 190.667,271.833 190.667,270.167 190,268.5C 173.667,252.167 157.333,235.833 141,219.5C 136.954,212.084 138.787,206.584 146.5,203C 169.486,199.573 192.486,196.24 215.5,193C 226.446,169.344 237.113,145.51 247.5,121.5C 249.525,119.436 251.858,118.102 254.5,117.5 Z"/>
</g>
</svg>
