<?xml version="1.0" encoding="UTF-8"?>
<!DOCTYPE svg PUBLIC "-//W3C//DTD SVG 1.1//EN" "http://www.w3.org/Graphics/SVG/1.1/DTD/svg11.dtd">
<svg xmlns="http://www.w3.org/2000/svg" version="1.1" width="512px" height="512px" style="shape-rendering:geometricPrecision; text-rendering:geometricPrecision; image-rendering:optimizeQuality; fill-rule:evenodd; clip-rule:evenodd" xmlns:xlink="http://www.w3.org/1999/xlink">
<g fill="#3FB8AF" stroke="none">
<path d="M 89.5,-0.5 C 99.5,-0.5 109.5,-0.5 119.5,-0.5C 169.607,9.77415 199.44,40.1075 209,90.5C 209.667,99.5 209.667,108.5 209,117.5C 207.608,127.056 205.608,136.389 203,145.5C 257.167,199.667 311.333,253.833 365.5,308C 374.611,305.392 383.944,303.392 393.5,302C 444.815,298.377 481.649,319.543 504,365.5C 507.149,374.117 509.649,382.783 511.5,391.5C 511.5,401.5 511.5,411.5 511.5,421.5C 510.366,426.038 509.199,430.705 508,435.5C 503.226,444.205 496.059,447.039 486.5,444C 466.695,425.195 447.195,406.029 428,386.5C 414.167,400.333 400.333,414.167 386.5,428C 406.029,447.195 425.195,466.695 444,486.5C 447.293,496.201 444.46,503.368 435.5,508C 430.705,509.199 426.038,510.366 421.5,511.5C 411.833,511.5 402.167,511.5 392.5,511.5C 344.385,502.555 314.552,474.221 303,426.5C 301.478,415.21 301.144,403.877 302,392.5C 303.551,383.307 305.551,374.307 308,365.5C 253.833,311.333 199.667,257.167 145.5,203C 136.331,205.38 126.998,207.38 117.5,209C 66.1846,212.623 29.3513,191.457 7,145.5C 3.85065,136.883 1.35065,128.217 -0.5,119.5C -0.5,109.5 -0.5,99.5 -0.5,89.5C 0.634482,84.9621 1.80115,80.2954 3,75.5C 7.63186,66.5399 14.7985,63.7065 24.5,67C 44.3051,85.8046 63.8051,104.971 83,124.5C 96.8333,110.667 110.667,96.8333 124.5,83C 104.971,63.8051 85.8046,44.3051 67,24.5C 63.7065,14.7985 66.5399,7.63186 75.5,3C 80.2954,1.80115 84.9621,0.634482 89.5,-0.5 Z"/>
<path d="M 462.5,-0.5 C 466.167,-0.5 469.833,-0.5 473.5,-0.5C 487.191,11.1913 499.858,23.858 511.5,37.5C 511.5,41.1667 511.5,44.8333 511.5,48.5C 496.128,70.0468 480.128,91.2134 463.5,112C 462.167,112.667 460.833,113.333 459.5,114C 445.833,114.333 432.167,114.667 418.5,115C 384.333,149.167 350.167,183.333 316,217.5C 308.5,210 301,202.5 293.5,195C 327.667,160.833 361.833,126.667 396,92.5C 396.333,78.8333 396.667,65.1667 397,51.5C 397.667,50.1667 398.333,48.8333 399,47.5C 419.787,30.8721 440.953,14.8721 462.5,-0.5 Z"/>
<path d="M 150.5,291.5 C 163.621,290.564 174.621,294.897 183.5,304.5C 187.485,301.016 191.318,297.349 195,293.5C 202.5,301 210,308.5 217.5,316C 213.651,319.682 209.984,323.515 206.5,327.5C 221.456,342.73 223.29,359.396 212,377.5C 184.627,405.207 156.96,432.541 129,459.5C 102.5,434.333 76.6667,408.5 51.5,382C 78.4594,354.04 105.793,326.373 133.5,299C 138.782,295.353 144.448,292.853 150.5,291.5 Z"/>
<path d="M 71.5,511.5 C 65.8333,511.5 60.1667,511.5 54.5,511.5C 48.8266,509.494 43.4933,506.661 38.5,503C 28.3333,492.833 18.1667,482.667 8,472.5C 4.33905,467.507 1.50572,462.173 -0.5,456.5C -0.5,450.833 -0.5,445.167 -0.5,439.5C 1.09328,434.98 3.25995,430.647 6,426.5C 13.8333,418.667 21.6667,410.833 29.5,403C 30.1667,402.333 30.8333,402.333 31.5,403C 57.3472,428.68 83.0138,454.514 108.5,480.5C 100.681,488.819 92.6812,496.986 84.5,505C 80.3533,507.74 76.02,509.907 71.5,511.5 Z"/>
</g>
</svg>
