<?xml version="1.0" encoding="UTF-8"?>
<!DOCTYPE svg PUBLIC "-//W3C//DTD SVG 1.1//EN" "http://www.w3.org/Graphics/SVG/1.1/DTD/svg11.dtd">
<svg xmlns="http://www.w3.org/2000/svg" version="1.1" width="512px" height="512px" style="shape-rendering:geometricPrecision; text-rendering:geometricPrecision; image-rendering:optimizeQuality; fill-rule:evenodd; clip-rule:evenodd" xmlns:xlink="http://www.w3.org/1999/xlink">
<g fill="#3FB8AF" stroke="none">
<path d="M 267.5,23.5 C 353.881,24.7589 419.381,62.0923 464,135.5C 500.586,201.115 504.919,268.782 477,338.5C 473.215,346.571 469.049,354.405 464.5,362C 461.634,363.457 458.634,363.79 455.5,363C 391.918,326.626 328.418,290.126 265,253.5C 263.34,178.248 263.006,102.915 264,27.5C 264.69,25.6498 265.856,24.3164 267.5,23.5 Z"/>
<path d="M 218.5,47.5 C 226.84,47.3336 235.173,47.5003 243.5,48C 245.333,48.5 246.5,49.6667 247,51.5C 247.667,120.833 247.667,190.167 247,259.5C 181.581,296.793 116.081,333.96 50.5,371C 47.2808,372.955 43.9475,374.288 40.5,375C 9.17063,313.381 6.67063,250.548 33,186.5C 69.6892,106.576 131.523,60.2424 218.5,47.5 Z"/>
<path d="M 255.5,271.5 C 306.941,300.39 358.274,329.556 409.5,359C 417.934,363.772 426.1,368.938 434,374.5C 436.084,379.185 435.418,383.518 432,387.5C 392.274,450.472 335.107,485.638 260.5,493C 170.457,498.224 99.9574,464.057 49,390.5C 48.3828,389.551 48.5494,388.718 49.5,388C 118.391,349.392 187.058,310.559 255.5,271.5 Z"/>
</g>
</svg>
