<?xml version="1.0" encoding="UTF-8"?>
<!DOCTYPE svg PUBLIC "-//W3C//DTD SVG 1.1//EN" "http://www.w3.org/Graphics/SVG/1.1/DTD/svg11.dtd">
<svg xmlns="http://www.w3.org/2000/svg" version="1.1" width="512px" height="512px" style="shape-rendering:geometricPrecision; text-rendering:geometricPrecision; image-rendering:optimizeQuality; fill-rule:evenodd; clip-rule:evenodd" xmlns:xlink="http://www.w3.org/1999/xlink">
<g fill="#3FB8AF" stroke="none">
<path d="M 233.5,-0.5 C 248.167,-0.5 262.833,-0.5 277.5,-0.5C 377.805,11.9821 449.305,63.9821 492,155.5C 502.297,180.687 508.797,206.687 511.5,233.5C 511.5,248.167 511.5,262.833 511.5,277.5C 507.459,318.288 494.793,356.288 473.5,391.5C 484.151,428.778 493.818,466.112 502.5,503.5C 465.5,493.5 428.5,483.5 391.5,473.5C 356.296,494.79 318.296,507.457 277.5,511.5C 262.833,511.5 248.167,511.5 233.5,511.5C 133.195,499.018 61.6947,447.018 19,355.5C 8.70332,330.313 2.20332,304.313 -0.5,277.5C -0.5,262.833 -0.5,248.167 -0.5,233.5C 11.9821,133.195 63.9821,61.6947 155.5,19C 180.687,8.70332 206.687,2.20332 233.5,-0.5 Z M 249.5,119.5 C 271.388,118.888 284.054,129.388 287.5,151C 284.11,172.725 271.443,183.058 249.5,182C 227.497,174.495 219.997,159.661 227,137.5C 232.04,128.28 239.54,122.28 249.5,119.5 Z M 199.5,199.5 C 228.833,199.5 258.167,199.5 287.5,199.5C 287.5,247.833 287.5,296.167 287.5,344.5C 295.5,344.5 303.5,344.5 311.5,344.5C 311.5,360.167 311.5,375.833 311.5,391.5C 274.167,391.5 236.833,391.5 199.5,391.5C 199.5,375.833 199.5,360.167 199.5,344.5C 207.5,344.5 215.5,344.5 223.5,344.5C 223.5,311.833 223.5,279.167 223.5,246.5C 215.5,246.5 207.5,246.5 199.5,246.5C 199.5,230.833 199.5,215.167 199.5,199.5 Z"/>
</g>
</svg>

