<?xml version="1.0" encoding="UTF-8"?>
<!DOCTYPE svg PUBLIC "-//W3C//DTD SVG 1.1//EN" "http://www.w3.org/Graphics/SVG/1.1/DTD/svg11.dtd">
<svg xmlns="http://www.w3.org/2000/svg" version="1.1" width="512px" height="512px" style="shape-rendering:geometricPrecision; text-rendering:geometricPrecision; image-rendering:optimizeQuality; fill-rule:evenodd; clip-rule:evenodd" xmlns:xlink="http://www.w3.org/1999/xlink">
<g fill="#c55656" stroke="none">
<path d="M 307.5,20.5 C 326.001,19.5 334.501,28.1666 333,46.5C 326.668,72.4915 319.334,98.1581 311,123.5C 302.328,131.348 292.828,132.515 282.5,127C 275.221,121.164 272.721,113.664 275,104.5C 281.333,80.8333 287.667,57.1667 294,33.5C 296.73,27.2376 301.23,22.9043 307.5,20.5 Z"/>
<path d="M 363.5,27.5 C 383.145,25.9784 391.645,34.9784 389,54.5C 387.183,60.4346 385.683,66.4346 384.5,72.5C 361.256,69.4103 347.59,79.4103 343.5,102.5C 344.473,116.942 349.973,129.275 360,139.5C 360.749,140.635 360.583,141.635 359.5,142.5C 346.999,148.054 337.165,145.054 330,133.5C 328.524,128.924 328.19,124.257 329,119.5C 336,93.1667 343,66.8333 350,40.5C 352.442,33.8884 356.942,29.555 363.5,27.5 Z"/>
<path d="M 423.5,33.5 C 436.984,33.8178 444.651,40.6512 446.5,54C 444.077,65.2705 441.243,76.4372 438,87.5C 425.261,83.7728 412.427,80.2728 399.5,77C 399.043,76.586 398.709,76.086 398.5,75.5C 401.357,64.7364 404.524,54.0697 408,43.5C 411.841,38.0027 417.008,34.6694 423.5,33.5 Z"/>
<path d="M 471.5,56.5 C 486.892,54.6843 495.892,61.3509 498.5,76.5C 496.469,86.2891 493.969,95.9558 491,105.5C 486.742,102.62 482.242,100.12 477.5,98C 469.094,95.6498 460.761,93.1498 452.5,90.5C 454.536,82.0234 457.036,73.6901 460,65.5C 463.183,61.4622 467.016,58.4622 471.5,56.5 Z"/>
<path d="M 371.5,86.5 C 374.187,86.3359 376.854,86.5026 379.5,87C 409.5,95 439.5,103 469.5,111C 483.333,115.5 492.5,124.667 497,138.5C 501.608,153.528 503.608,168.861 503,184.5C 496.978,207.921 490.645,231.254 484,254.5C 479.046,266.121 471.213,275.287 460.5,282C 445.154,288.591 429.654,294.758 414,300.5C 398,360.5 382,420.5 366,480.5C 365.31,483.196 363.81,485.363 361.5,487C 308.833,487.667 256.167,487.667 203.5,487C 200.335,484.173 199.169,480.673 200,476.5C 207.012,450.117 214.179,423.784 221.5,397.5C 232.092,392.911 242.759,388.411 253.5,384C 267.107,376.393 277.274,365.56 284,351.5C 293.558,322.832 301.058,293.666 306.5,264C 305.111,251.051 302.944,238.218 300,225.5C 297.832,218.338 294.999,211.505 291.5,205C 294.332,193.836 297.166,182.669 300,171.5C 301.664,162.392 300.164,153.892 295.5,146C 303.033,145.312 309.867,142.812 316,138.5C 328.173,159.669 345.34,165.169 367.5,155C 369.96,153.542 372.127,151.709 374,149.5C 376.527,151.097 379.194,152.43 382,153.5C 391.811,156.411 401.644,159.244 411.5,162C 416.796,164.129 420.129,167.962 421.5,173.5C 392.745,173.606 373.245,186.939 363,213.5C 361.74,223.536 365.74,226.536 375,222.5C 384.338,195.571 403.172,184.737 431.5,190C 433.333,189.5 434.5,188.333 435,186.5C 439.152,168.638 432.985,155.805 416.5,148C 406.877,145.178 397.211,142.511 387.5,140C 370.041,133.605 360.375,121.105 358.5,102.5C 359.556,94.3342 363.889,89.0008 371.5,86.5 Z"/>
<path d="M 95.5,108.5 C 113.49,107.324 121.99,115.657 121,133.5C 114.605,159.017 107.605,184.35 100,209.5C 94.0762,217.476 86.2429,220.309 76.5,218C 67.5585,214.651 62.5585,208.151 61.5,198.5C 68.0204,172.419 74.8537,146.419 82,120.5C 84.85,114.514 89.35,110.514 95.5,108.5 Z"/>
<path d="M 150.5,115.5 C 169.437,113.937 178.27,122.604 177,141.5C 175.394,147.764 173.56,153.93 171.5,160C 145.661,157.843 132.494,169.676 132,195.5C 133.311,206.286 137.478,215.786 144.5,224C 134.004,227.164 125.838,223.997 120,214.5C 118.494,209.254 118.161,203.921 119,198.5C 125.511,174.123 132.178,149.789 139,125.5C 141.794,120.866 145.627,117.533 150.5,115.5 Z"/>
<path d="M 210.5,121.5 C 227.879,122.254 235.379,131.254 233,148.5C 230.787,157.694 228.121,166.694 225,175.5C 212.639,171.617 200.139,168.117 187.5,165C 186.978,164.439 186.645,163.772 186.5,163C 189.256,152.811 192.089,142.644 195,132.5C 198.782,126.708 203.948,123.042 210.5,121.5 Z"/>
<path d="M 258.5,144.5 C 277.821,142.655 286.654,151.322 285,170.5C 283.297,178.312 281.131,185.979 278.5,193.5C 266.832,186.276 254.166,181.609 240.5,179.5C 242.096,169.783 244.929,160.45 249,151.5C 252.068,148.917 255.235,146.584 258.5,144.5 Z"/>
<path d="M 158.5,174.5 C 161.518,174.335 164.518,174.502 167.5,175C 198.5,183.333 229.5,191.667 260.5,200C 271.667,204.5 279.5,212.333 284,223.5C 288.547,239.224 290.881,255.224 291,271.5C 284.8,295.965 278.134,320.299 271,344.5C 265.988,355.18 258.488,363.68 248.5,370C 233.063,376.367 217.563,382.534 202,388.5C 193.511,419.456 185.178,450.456 177,481.5C 176.293,483.081 175.46,484.581 174.5,486C 121.583,487.658 68.5829,487.991 15.5,487C 13.6667,486.5 12.5,485.333 12,483.5C 11.3333,480.5 11.3333,477.5 12,474.5C 23.3984,431.472 34.8984,388.472 46.5,345.5C 41.6779,330.55 38.0113,315.383 35.5,300C 40.8244,273.537 47.491,247.37 55.5,221.5C 66.0359,232.469 78.7025,235.969 93.5,232C 98.6662,229.92 103.333,227.087 107.5,223.5C 121.434,241.233 138.434,244.899 158.5,234.5C 161.322,237.413 164.655,239.58 168.5,241C 178.788,244.155 189.121,247.155 199.5,250C 204.468,252.582 207.801,256.582 209.5,262C 179.161,262.017 159.161,276.351 149.5,305C 150.72,311.113 154.386,313.446 160.5,312C 161.667,310.833 162.833,309.667 164,308.5C 168.751,291.871 179.584,281.704 196.5,278C 204.181,277.691 211.848,277.691 219.5,278C 222.984,274.424 224.65,270.091 224.5,265C 223.246,250.08 215.579,240.08 201.5,235C 191.789,232.489 182.123,229.822 172.5,227C 155.082,219.584 146.582,206.417 147,187.5C 148.58,181.091 152.414,176.758 158.5,174.5 Z"/>
</g>
</svg>
