<?xml version="1.0" standalone="no"?>
<!DOCTYPE svg PUBLIC "-//W3C//DTD SVG 20010904//EN"
 "http://www.w3.org/TR/2001/REC-SVG-20010904/DTD/svg10.dtd">
<svg version="1.0" xmlns="http://www.w3.org/2000/svg"
 width="512.000000pt" height="512.000000pt" viewBox="0 0 512.000000 512.000000"
 preserveAspectRatio="xMidYMid meet">

<g transform="translate(0.000000,512.000000) scale(0.100000,-0.100000)"
fill="#c55656" stroke="none">
<path d="M1001 4784 c-169 -45 -301 -180 -346 -351 -64 -247 93 -509 348 -578
51 -13 49 -14 -103 -14 -226 -1 -319 -31 -431 -138 -105 -100 -149 -217 -149
-395 l0 -108 683 0 682 0 52 68 c28 37 79 87 112 112 60 44 61 46 56 84 -16
109 -126 257 -233 314 -93 50 -157 62 -332 63 -154 0 -155 0 -101 15 253 68
410 331 346 577 -67 259 -333 419 -584 351z"/>
<path d="M3881 4784 c-169 -45 -301 -180 -346 -351 -64 -247 93 -509 348 -578
51 -13 49 -14 -103 -14 -175 -1 -239 -13 -332 -63 -107 -57 -216 -204 -233
-314 -6 -34 -3 -41 17 -53 49 -30 109 -87 155 -148 l47 -63 683 0 683 0 0 108
c0 178 -44 295 -149 395 -112 107 -205 137 -431 138 -154 0 -155 0 -101 15
253 68 410 331 346 577 -67 259 -333 419 -584 351z"/>
<path d="M2441 4304 c-169 -45 -301 -180 -346 -351 -64 -247 93 -509 348 -578
51 -13 49 -14 -103 -14 -226 -1 -319 -31 -431 -138 -105 -100 -149 -217 -149
-395 l0 -108 800 0 800 0 0 108 c0 178 -44 295 -149 395 -112 107 -205 137
-431 138 -154 0 -155 0 -101 15 253 68 410 331 346 577 -67 259 -333 419 -584
351z"/>
<path d="M324 2509 c16 -117 75 -217 197 -333 44 -43 118 -102 165 -132 109
-72 318 -171 468 -223 119 -42 345 -105 351 -99 2 2 -5 59 -15 128 -24 169
-39 339 -47 542 l-6 168 -560 0 -560 0 7 -51z"/>
<path d="M1604 2388 c9 -243 59 -684 79 -705 9 -8 227 -41 397 -59 231 -26
729 -26 960 0 170 18 388 51 397 59 20 21 70 462 79 705 l7 172 -963 0 -963 0
7 -172z"/>
<path d="M3677 2387 c-7 -188 -29 -430 -52 -572 -8 -49 -12 -91 -10 -94 3 -2
50 8 105 23 275 74 551 191 730 310 109 73 240 203 287 287 32 55 63 152 63
196 l0 23 -558 0 -559 0 -6 -173z"/>
<path d="M373 2074 c3 -10 17 -63 32 -118 196 -733 810 -1348 1550 -1550 55
-15 109 -30 119 -33 12 -3 -3 20 -41 64 -93 109 -148 191 -223 334 -105 203
-186 428 -245 679 -10 41 -23 80 -29 86 -6 6 -69 26 -141 44 -244 61 -426 128
-624 231 -143 74 -225 128 -334 222 -44 38 -67 53 -64 41z"/>
<path d="M4670 2023 c-217 -187 -558 -348 -940 -443 -173 -43 -154 -32 -169
-101 -7 -34 -30 -123 -51 -198 -100 -347 -241 -631 -415 -834 -76 -89 -86 -86
105 -32 723 206 1322 820 1520 1558 16 61 29 112 27 113 -1 0 -36 -28 -77 -63z"/>
<path d="M1720 1503 c0 -21 71 -265 105 -363 53 -148 154 -357 230 -470 80
-121 214 -252 306 -298 131 -66 266 -66 398 0 87 43 238 192 316 311 73 112
172 320 224 471 42 119 105 345 99 351 -2 2 -59 -5 -128 -15 -425 -62 -908
-65 -1349 -9 -85 11 -165 22 -177 25 -13 4 -24 2 -24 -3z"/>
</g>
</svg>
