<?xml version="1.0" encoding="UTF-8"?>
<!DOCTYPE svg PUBLIC "-//W3C//DTD SVG 1.1//EN" "http://www.w3.org/Graphics/SVG/1.1/DTD/svg11.dtd">
<svg xmlns="http://www.w3.org/2000/svg" version="1.1" width="512px" height="512px" style="shape-rendering:geometricPrecision; text-rendering:geometricPrecision; image-rendering:optimizeQuality; fill-rule:evenodd; clip-rule:evenodd" xmlns:xlink="http://www.w3.org/1999/xlink">
<g fill="#c55656" stroke="none">
<path d="M 141.5,127.5 C 146.511,127.334 151.511,127.501 156.5,128C 157.833,128.667 159.167,129.333 160.5,130C 197.667,167.167 234.833,204.333 272,241.5C 276.667,250.833 276.667,260.167 272,269.5C 234.833,306.667 197.667,343.833 160.5,381C 152.833,384.333 145.167,384.333 137.5,381C 128.422,374.443 125.256,365.61 128,354.5C 128.667,353.167 129.333,351.833 130,350.5C 161.68,318.986 193.18,287.32 224.5,255.5C 193.18,223.68 161.68,192.014 130,160.5C 123.71,145.781 127.544,134.781 141.5,127.5 Z"/>
<path d="M 269.5,127.5 C 274.511,127.334 279.511,127.501 284.5,128C 285.833,128.667 287.167,129.333 288.5,130C 325.667,167.167 362.833,204.333 400,241.5C 404.667,250.833 404.667,260.167 400,269.5C 362.833,306.667 325.667,343.833 288.5,381C 280.833,384.333 273.167,384.333 265.5,381C 256.422,374.443 253.256,365.61 256,354.5C 256.667,353.167 257.333,351.833 258,350.5C 289.68,318.986 321.18,287.32 352.5,255.5C 321.18,223.68 289.68,192.014 258,160.5C 251.71,145.781 255.544,134.781 269.5,127.5 Z"/>
</g>
</svg>
