<?xml version="1.0" encoding="UTF-8"?>
<!DOCTYPE svg PUBLIC "-//W3C//DTD SVG 1.1//EN" "http://www.w3.org/Graphics/SVG/1.1/DTD/svg11.dtd">
<svg xmlns="http://www.w3.org/2000/svg" version="1.1" width="512px" height="512px" style="shape-rendering:geometricPrecision; text-rendering:geometricPrecision; image-rendering:optimizeQuality; fill-rule:evenodd; clip-rule:evenodd" xmlns:xlink="http://www.w3.org/1999/xlink">
<g fill="#4189db" stroke="none">
<path d="M 8.5,-0.5 C 71.1667,-0.5 133.833,-0.5 196.5,-0.5C 152.127,20.7021 116.627,52.0355 90,93.5C 56.8266,151.041 52.4933,210.708 77,272.5C 103.732,328.565 145.565,369.065 202.5,394C 208.167,396.333 213.833,398.667 219.5,401C 250.638,409.868 281.638,419.201 312.5,429C 365.374,447.582 412.708,475.082 454.5,511.5C 399.5,511.5 344.5,511.5 289.5,511.5C 273.041,494.934 254.708,480.767 234.5,469C 222.292,462.396 209.959,456.063 197.5,450C 173.848,441.45 150.515,432.116 127.5,422C 69.657,391.811 29.8236,345.978 8,284.5C 4.31164,271.546 1.4783,258.546 -0.5,245.5C -0.5,166.5 -0.5,87.5 -0.5,8.5C 0.803551,7.01307 1.97022,5.3464 3,3.5C 5.01533,2.30342 6.84866,0.970083 8.5,-0.5 Z"/>
<path d="M 354.5,-0.5 C 403.833,-0.5 453.167,-0.5 502.5,-0.5C 503.987,0.803551 505.654,1.97022 507.5,3C 508.697,5.01533 510.03,6.84866 511.5,8.5C 511.5,120.167 511.5,231.833 511.5,343.5C 483.206,334.618 454.206,329.951 424.5,329.5C 398.168,331.675 371.834,331.842 345.5,330C 288.847,322.272 243.014,296.105 208,251.5C 178.987,209.411 172.654,164.077 189,115.5C 205.268,75.5626 232.435,45.3959 270.5,25C 297.018,11.2097 325.018,2.7097 354.5,-0.5 Z M 344.5,60.5 C 385.151,61.2464 418.651,76.9131 445,107.5C 465.94,136.145 470.273,167.145 458,200.5C 439.734,238.072 409.901,260.572 368.5,268C 319.412,275.529 278.579,260.696 246,223.5C 223.815,192.098 220.482,158.764 236,123.5C 255.393,90.1467 284.226,69.98 322.5,63C 329.981,62.1416 337.314,61.3083 344.5,60.5 Z M 321.5,121.5 C 348.542,119.067 366.042,130.733 374,156.5C 376.92,183.564 365.42,201.064 339.5,209C 312.436,211.92 294.936,200.42 287,174.5C 284.287,147.411 295.787,129.744 321.5,121.5 Z"/>
<path d="M 511.5,374.5 C 511.5,417.167 511.5,459.833 511.5,502.5C 508.789,506.212 505.456,509.212 501.5,511.5C 501.167,511.5 500.833,511.5 500.5,511.5C 480.688,495.197 460.688,479.031 440.5,463C 381.901,422.559 317.567,394.892 247.5,380C 191.424,363.888 147.257,331.721 115,283.5C 86.0637,232.83 82.7303,180.496 105,126.5C 131.642,74.2968 172.475,38.4634 227.5,19C 187.295,49.5601 162.462,89.7268 153,139.5C 146.112,206.198 167.945,261.364 218.5,305C 264.109,341.93 316.443,360.763 375.5,361.5C 402.798,359.196 430.131,359.029 457.5,361C 476.074,363.31 494.074,367.81 511.5,374.5 Z"/>
<path d="M 330.5,90.5 C 363.196,86.7889 391.696,95.7889 416,117.5C 438.171,142.828 441.504,170.495 426,200.5C 406.153,227.507 379.32,240.84 345.5,240.5C 311.644,240.822 284.811,227.488 265,200.5C 246.247,160.343 255.413,128.176 292.5,104C 304.477,97.1767 317.144,92.6767 330.5,90.5 Z M 321.5,121.5 C 295.787,129.744 284.287,147.411 287,174.5C 294.936,200.42 312.436,211.92 339.5,209C 365.42,201.064 376.92,183.564 374,156.5C 366.042,130.733 348.542,119.067 321.5,121.5 Z"/>
<path d="M 324.5,150.5 C 340.654,148.487 347.487,155.487 345,171.5C 340.652,179.915 333.819,182.748 324.5,180C 316.085,175.652 313.252,168.819 316,159.5C 317.688,155.315 320.521,152.315 324.5,150.5 Z"/>
<path d="M -0.5,339.5 C 29.2262,389.723 70.5595,427.223 123.5,452C 140.52,459.452 157.853,466.118 175.5,472C 200.755,482.163 224.088,495.329 245.5,511.5C 221.5,511.5 197.5,511.5 173.5,511.5C 104.212,503.524 46.2121,473.858 -0.5,422.5C -0.5,394.833 -0.5,367.167 -0.5,339.5 Z"/>
<path d="M -0.5,463.5 C 20.934,482.267 44.2674,498.267 69.5,511.5C 49.1667,511.5 28.8333,511.5 8.5,511.5C 7.01307,510.196 5.3464,509.03 3.5,508C 2.30342,505.985 0.970083,504.151 -0.5,502.5C -0.5,489.5 -0.5,476.5 -0.5,463.5 Z"/>
</g>
</svg>
