<?xml version="1.0" standalone="no"?>
<!DOCTYPE svg PUBLIC "-//W3C//DTD SVG 20010904//EN"
 "http://www.w3.org/TR/2001/REC-SVG-20010904/DTD/svg10.dtd">
<svg version="1.0" xmlns="http://www.w3.org/2000/svg"
 width="512.000000pt" height="512.000000pt" viewBox="0 0 512.000000 512.000000"
 preserveAspectRatio="xMidYMid meet">

<g transform="translate(0.000000,512.000000) scale(0.100000,-0.100000)"
fill="#c55656" stroke="none">
<path d="M2181 5110 c-231 -32 -448 -118 -631 -249 -47 -33 -139 -115 -205
-181 l-120 -120 1018 -1018 1017 -1017 565 565 565 565 -572 573 c-409 408
-597 590 -658 633 -155 111 -355 198 -541 234 -99 19 -346 28 -438 15z"/>
<path d="M4122 2787 l-563 -563 173 -170 c95 -94 193 -182 218 -197 138 -79
314 -74 447 12 65 41 634 615 666 671 53 92 70 216 43 315 -25 97 -55 137
-234 318 -97 97 -179 177 -182 177 -3 0 -258 -253 -568 -563z"/>
<path d="M1062 1977 l-1062 -1062 458 -458 457 -457 1065 1065 1065 1065 -455
455 c-250 250 -457 455 -460 455 -3 0 -483 -478 -1068 -1063z"/>
</g>
</svg>
