<?xml version="1.0" standalone="no"?>
<!DOCTYPE svg PUBLIC "-//W3C//DTD SVG 20010904//EN"
 "http://www.w3.org/TR/2001/REC-SVG-20010904/DTD/svg10.dtd">
<svg version="1.0" xmlns="http://www.w3.org/2000/svg"
 width="512.000000pt" height="512.000000pt" viewBox="0 0 512.000000 512.000000"
 preserveAspectRatio="xMidYMid meet">

<g transform="translate(0.000000,512.000000) scale(0.100000,-0.100000)"
fill="#c55656" stroke="none">
<path d="M1611 5098 c-46 -22 -98 -84 -107 -127 -14 -63 -12 -61 -77 -61 -157
-1 -293 -56 -403 -165 -173 -169 -218 -423 -114 -639 59 -124 193 -242 323
-285 34 -11 226 -48 427 -81 201 -33 377 -65 392 -71 48 -19 71 -54 76 -114 4
-53 3 -56 -36 -95 l-40 -40 -334 0 c-391 0 -388 -1 -467 104 -92 122 -223 139
-327 44 -72 -66 -90 -166 -46 -253 48 -95 164 -205 275 -262 69 -35 189 -63
268 -63 l67 0 12 -52 c15 -61 83 -137 140 -155 27 -8 -73 -11 -427 -12 -500
-1 -538 -4 -671 -58 -286 -113 -489 -369 -532 -671 -8 -52 -10 -278 -8 -707 4
-615 4 -632 26 -702 48 -157 118 -276 224 -380 112 -111 225 -178 378 -224 73
-23 87 -23 635 -27 373 -2 602 0 685 8 445 41 848 210 1195 502 121 102 1841
1974 1893 2062 51 84 74 167 75 271 2 164 -49 293 -163 405 -110 110 -234 160
-391 160 -151 0 -275 -50 -382 -153 -36 -34 -224 -230 -418 -436 l-353 -373
-1 -152 c-2 -123 -6 -165 -24 -225 -30 -101 -82 -210 -135 -285 -63 -88 -200
-214 -287 -263 -142 -80 -206 -95 -758 -173 -309 -43 -516 -68 -535 -64 -106
23 -176 108 -176 216 0 73 50 151 116 183 23 11 208 41 523 85 318 45 504 75
539 88 122 47 218 135 274 251 27 57 32 80 36 167 4 85 1 112 -17 166 -51 152
-162 263 -310 308 -58 19 -94 20 -484 20 l-421 0 53 26 c60 30 107 93 118 156
l6 38 73 0 c161 0 287 52 398 164 144 144 196 334 146 530 -25 99 -61 165
-130 240 -64 69 -130 114 -214 145 -34 13 -224 50 -445 87 -229 38 -394 71
-408 80 -33 21 -63 73 -63 109 0 44 31 96 71 117 31 17 59 18 359 16 377 -3
372 -2 450 -104 56 -72 113 -104 185 -104 121 1 215 97 215 220 0 73 -83 197
-185 278 -105 83 -227 129 -367 139 -54 4 -88 10 -88 17 0 33 -25 91 -53 123
-63 72 -170 94 -256 51z"/>
</g>
</svg>
