<?xml version="1.0" encoding="UTF-8"?>
<!DOCTYPE svg PUBLIC "-//W3C//DTD SVG 1.1//EN" "http://www.w3.org/Graphics/SVG/1.1/DTD/svg11.dtd">
<svg xmlns="http://www.w3.org/2000/svg" version="1.1" width="512px" height="512px" style="shape-rendering:geometricPrecision; text-rendering:geometricPrecision; image-rendering:optimizeQuality; fill-rule:evenodd; clip-rule:evenodd" xmlns:xlink="http://www.w3.org/1999/xlink">
<g fill="#3FB8AF" stroke="none">
<path d="M 411.5,27.5 C 428.17,27.3334 444.837,27.5001 461.5,28C 463.667,28.8333 465.167,30.3333 466,32.5C 476.574,106.758 486.24,181.091 495,255.5C 458.123,239.646 421.29,223.646 384.5,207.5C 383.345,204.554 383.179,201.554 384,198.5C 391.427,144.179 398.76,89.8459 406,35.5C 406.625,31.8907 408.458,29.224 411.5,27.5 Z"/>
<path d="M 511.5,282.5 C 511.5,349.5 511.5,416.5 511.5,483.5C 340.833,483.5 170.167,483.5 -0.5,483.5C -0.5,398.5 -0.5,313.5 -0.5,228.5C 4.02948,222.825 9.69614,221.325 16.5,224C 57.1667,245.667 97.8333,267.333 138.5,289C 156.722,293.641 168.889,287.141 175,269.5C 175.333,256.167 175.667,242.833 176,229.5C 176.758,225.078 179.258,222.245 183.5,221C 187.261,220.262 190.928,220.595 194.5,222C 236.167,241 277.833,260 319.5,279C 338.111,284.777 350.944,278.611 358,260.5C 359.159,249.203 359.826,237.87 360,226.5C 362.106,222.177 365.606,220.177 370.5,220.5C 372.923,220.594 375.256,221.094 377.5,222C 421.283,240.725 464.95,259.725 508.5,279C 509.636,280.145 510.636,281.312 511.5,282.5 Z M 72.5,339.5 C 92.1695,339.333 111.836,339.5 131.5,340C 144.076,340.905 152.243,347.405 156,359.5C 156.667,380.833 156.667,402.167 156,423.5C 154.938,436.557 148.105,444.724 135.5,448C 112.833,448.667 90.1667,448.667 67.5,448C 55.4347,444.268 48.9347,436.101 48,423.5C 47.0811,401.8 47.4144,380.134 49,358.5C 52.9509,347.285 60.7842,340.951 72.5,339.5 Z M 225.5,339.5 C 245.169,339.333 264.836,339.5 284.5,340C 297.508,341.005 305.674,347.838 309,360.5C 309.667,382.833 309.667,405.167 309,427.5C 306.948,438.552 300.448,445.386 289.5,448C 266.5,448.667 243.5,448.667 220.5,448C 209.533,444.907 203.033,437.74 201,426.5C 200.053,403.458 200.386,380.458 202,357.5C 206.092,346.545 213.925,340.545 225.5,339.5 Z M 379.5,339.5 C 399.169,339.333 418.836,339.5 438.5,340C 453.802,341.636 461.969,350.136 463,365.5C 463.667,384.833 463.667,404.167 463,423.5C 462.095,436.076 455.595,444.243 443.5,448C 420.5,448.667 397.5,448.667 374.5,448C 364,445.5 357.5,439 355,428.5C 354.333,405.5 354.333,382.5 355,359.5C 358.92,347.396 367.087,340.729 379.5,339.5 Z"/>
<path d="M 71.5,355.5 C 91.8361,355.333 112.169,355.5 132.5,356C 135.196,356.69 137.363,358.19 139,360.5C 140.645,382.745 140.978,405.078 140,427.5C 139.535,428.931 138.701,430.097 137.5,431C 114.922,432.645 92.255,432.978 69.5,432C 67.714,431.215 66.214,430.049 65,428.5C 63.3661,406.564 63.0328,384.564 64,362.5C 65.211,358.666 67.711,356.333 71.5,355.5 Z"/>
<path d="M 223.5,355.5 C 244.503,355.333 265.503,355.5 286.5,356C 288.848,356.346 290.681,357.513 292,359.5C 293.645,381.745 293.978,404.078 293,426.5C 292.226,428.939 290.726,430.773 288.5,432C 266.167,432.667 243.833,432.667 221.5,432C 220.333,430.833 219.167,429.667 218,428.5C 216.356,406.589 216.022,384.589 217,362.5C 217.991,359.011 220.158,356.677 223.5,355.5 Z"/>
<path d="M 377.5,355.5 C 398.169,355.333 418.836,355.5 439.5,356C 443.527,356.427 446.027,358.594 447,362.5C 447.667,383.5 447.667,404.5 447,425.5C 446.654,427.848 445.487,429.681 443.5,431C 420.922,432.645 398.255,432.978 375.5,432C 374.069,431.535 372.903,430.701 372,429.5C 370.355,406.922 370.022,384.255 371,361.5C 372.436,358.558 374.603,356.558 377.5,355.5 Z"/>
</g>
</svg>
