<?xml version="1.0" encoding="UTF-8"?>
<!DOCTYPE svg PUBLIC "-//W3C//DTD SVG 1.1//EN" "http://www.w3.org/Graphics/SVG/1.1/DTD/svg11.dtd">
<svg xmlns="http://www.w3.org/2000/svg" version="1.1" width="512px" height="512px" style="shape-rendering:geometricPrecision; text-rendering:geometricPrecision; image-rendering:optimizeQuality; fill-rule:evenodd; clip-rule:evenodd" xmlns:xlink="http://www.w3.org/1999/xlink">
<g fill="#a74e9f" stroke="none">
<path d="M 207.5,-0.5 C 239.5,-0.5 271.5,-0.5 303.5,-0.5C 328.908,0.877758 354.241,4.04442 379.5,9C 402.657,13.7508 423.657,23.0842 442.5,37C 459.606,52.7131 469.106,72.2131 471,95.5C 471.667,192.5 471.667,289.5 471,386.5C 468.126,406.251 459.459,422.917 445,436.5C 444.667,454.5 444.333,472.5 444,490.5C 441.077,500.92 434.577,507.92 424.5,511.5C 410.833,511.5 397.167,511.5 383.5,511.5C 371.511,507.582 364.678,499.249 363,486.5C 362.5,477.173 362.334,467.839 362.5,458.5C 291.167,458.5 219.833,458.5 148.5,458.5C 148.666,467.839 148.5,477.173 148,486.5C 146.322,499.249 139.489,507.582 127.5,511.5C 113.833,511.5 100.167,511.5 86.5,511.5C 76.4227,507.92 69.9227,500.92 67,490.5C 66.6667,472.5 66.3333,454.5 66,436.5C 51.5409,422.917 42.8742,406.251 40,386.5C 39.3333,289.5 39.3333,192.5 40,95.5C 42.8854,63.5341 58.3854,40.0341 86.5,25C 107.379,14.7075 129.379,8.04082 152.5,5C 170.936,2.64355 189.27,0.810215 207.5,-0.5 Z M 94.5,107.5 C 201.833,107.5 309.167,107.5 416.5,107.5C 416.5,152.167 416.5,196.833 416.5,241.5C 309.167,241.5 201.833,241.5 94.5,241.5C 94.5,196.833 94.5,152.167 94.5,107.5 Z M 128.5,323.5 C 148.004,322.329 162.171,330.329 171,347.5C 177.704,367.72 172.538,384.22 155.5,397C 137.152,406.522 120.319,404.355 105,390.5C 91.8556,373.63 91.1889,356.296 103,338.5C 109.993,330.76 118.493,325.76 128.5,323.5 Z M 370.5,323.5 C 397.74,322.913 413.074,336.079 416.5,363C 414.425,387.575 401.092,401.075 376.5,403.5C 352.596,400.43 339.263,386.93 336.5,363C 339.141,342.149 350.474,328.982 370.5,323.5 Z"/>
</g>
</svg>
