<?xml version="1.0" encoding="UTF-8"?>
<!DOCTYPE svg PUBLIC "-//W3C//DTD SVG 1.1//EN" "http://www.w3.org/Graphics/SVG/1.1/DTD/svg11.dtd">
<svg xmlns="http://www.w3.org/2000/svg" version="1.1" width="512px" height="512px" style="shape-rendering:geometricPrecision; text-rendering:geometricPrecision; image-rendering:optimizeQuality; fill-rule:evenodd; clip-rule:evenodd" xmlns:xlink="http://www.w3.org/1999/xlink">
<g fill="#c55656" stroke="none">
<path d="M 511.5,449.5 C 511.5,455.833 511.5,462.167 511.5,468.5C 500.862,500.158 479.195,511.991 446.5,504C 441.508,501.839 436.841,499.172 432.5,496C 395,458.5 357.5,421 320,383.5C 272.7,414.138 221.2,424.304 165.5,414C 86.6922,395.523 34.1922,348.023 8,271.5C 4.18379,258.232 1.35046,244.899 -0.5,231.5C -0.5,217.833 -0.5,204.167 -0.5,190.5C 8.63442,118.904 44.3011,65.0707 106.5,29C 173.662,-5.23413 240.662,-4.9008 307.5,30C 382.271,76.0306 417.104,143.197 412,231.5C 409.209,260.341 400.709,287.341 386.5,312.5C 423.82,350.32 461.32,387.986 499,425.5C 505.047,432.597 509.214,440.597 511.5,449.5 Z M 188.5,51.5 C 258.623,47.6364 311.456,75.6364 347,135.5C 376.384,197.149 371.051,255.482 331,310.5C 285.193,362.877 228.36,380.711 160.5,364C 94.9636,341.123 57.1303,295.289 47,226.5C 43.245,158.167 70.4117,106.334 128.5,71C 147.473,60.9524 167.473,54.4524 188.5,51.5 Z"/>
<path d="M 111.5,124.5 C 154.501,124.333 197.501,124.5 240.5,125C 257.017,127.168 267.183,136.335 271,152.5C 271.667,207.833 271.667,263.167 271,318.5C 233.787,339.495 195.287,341.995 155.5,326C 140.418,319.129 127.084,309.795 115.5,298C 142.229,297.974 168.895,297.307 195.5,296C 204.573,290.109 206.74,282.276 202,272.5C 199.736,269.567 196.902,267.4 193.5,266C 159.502,265.5 125.502,265.333 91.5,265.5C 86.5501,254.314 83.2167,242.648 81.5,230.5C 118.502,230.667 155.502,230.5 192.5,230C 203.915,225.095 207.082,216.928 202,205.5C 199.736,202.567 196.902,200.4 193.5,199C 155.501,198.5 117.501,198.333 79.5,198.5C 82.0042,170.172 92.6708,145.506 111.5,124.5 Z"/>
</g>
</svg>
