<?xml version="1.0" encoding="UTF-8"?>
<!DOCTYPE svg PUBLIC "-//W3C//DTD SVG 1.1//EN" "http://www.w3.org/Graphics/SVG/1.1/DTD/svg11.dtd">
<svg xmlns="http://www.w3.org/2000/svg" version="1.1" width="512px" height="512px" style="shape-rendering:geometricPrecision; text-rendering:geometricPrecision; image-rendering:optimizeQuality; fill-rule:evenodd; clip-rule:evenodd" xmlns:xlink="http://www.w3.org/1999/xlink">
<g fill="#3FB8AF" stroke="none">
<path d="M 511.5,247.5 C 511.5,252.833 511.5,258.167 511.5,263.5C 506.697,280.765 495.364,290.931 477.5,294C 429.167,294.333 380.833,294.667 332.5,295C 289.833,363 247.167,431 204.5,499C 187.157,499.833 169.824,499.666 152.5,498.5C 173.538,430.553 194.872,362.72 216.5,295C 169.833,294.333 123.167,294.333 76.5,295C 63.8333,311.667 51.1667,328.333 38.5,345C 25.5043,345.5 12.5043,345.667 -0.5,345.5C -0.5,344.167 -0.5,342.833 -0.5,341.5C 8.11933,313.041 16.4527,284.375 24.5,255.5C 16.4527,226.625 8.11933,197.959 -0.5,169.5C -0.5,168.167 -0.5,166.833 -0.5,165.5C 12.5043,165.333 25.5043,165.5 38.5,166C 51.1667,182.667 63.8333,199.333 76.5,216C 123.167,216.667 169.833,216.667 216.5,216C 194.872,148.28 173.538,80.4469 152.5,12.5C 169.824,11.3337 187.157,11.167 204.5,12C 247.167,80 289.833,148 332.5,216C 380.833,216.333 429.167,216.667 477.5,217C 495.364,220.069 506.697,230.235 511.5,247.5 Z"/>
</g>
</svg>
