<?xml version="1.0" encoding="UTF-8"?>
<!DOCTYPE svg PUBLIC "-//W3C//DTD SVG 1.1//EN" "http://www.w3.org/Graphics/SVG/1.1/DTD/svg11.dtd">
<svg xmlns="http://www.w3.org/2000/svg" version="1.1" width="512px" height="512px" style="shape-rendering:geometricPrecision; text-rendering:geometricPrecision; image-rendering:optimizeQuality; fill-rule:evenodd; clip-rule:evenodd" xmlns:xlink="http://www.w3.org/1999/xlink">
<g fill="#a74e9f" stroke="none">
<path d="M 21.5,-0.5 C 120.5,-0.5 219.5,-0.5 318.5,-0.5C 320.812,19.8169 320.979,40.1503 319,60.5C 317.218,76.5171 311.885,91.1837 303,104.5C 295.53,113.817 286.03,119.983 274.5,123C 251.591,126.905 228.591,130.239 205.5,133C 155.92,143.675 126.087,173.841 116,223.5C 114.054,244.069 110.721,264.402 106,284.5C 89.3101,338.358 53.8101,372.691 -0.5,387.5C -0.5,265.5 -0.5,143.5 -0.5,21.5C 3.16667,10.5 10.5,3.16667 21.5,-0.5 Z"/>
<path d="M 347.5,-0.5 C 394.833,-0.5 442.167,-0.5 489.5,-0.5C 500.5,3.16667 507.833,10.5 511.5,21.5C 511.5,68.1667 511.5,114.833 511.5,161.5C 483.918,154.552 455.918,151.719 427.5,153C 380.367,158.733 361.867,184.9 372,231.5C 378.055,249.097 388.222,263.93 402.5,276C 426.162,293.834 452.162,307.501 480.5,317C 490.806,320.325 501.139,323.492 511.5,326.5C 511.5,380.833 511.5,435.167 511.5,489.5C 507.833,500.5 500.5,507.833 489.5,511.5C 460.167,511.5 430.833,511.5 401.5,511.5C 405.168,486.628 406.334,461.628 405,436.5C 398.343,374.5 364.177,347.667 302.5,356C 276.982,363.214 254.648,375.881 235.5,394C 200.837,428.848 172.17,468.014 149.5,511.5C 106.833,511.5 64.1667,511.5 21.5,511.5C 10.5,507.833 3.16667,500.5 -0.5,489.5C -0.5,465.5 -0.5,441.5 -0.5,417.5C 67.232,400.605 112.065,358.939 134,292.5C 139.061,270.737 142.728,248.737 145,226.5C 151.759,193.074 171.593,171.908 204.5,163C 225.756,159.49 247.089,156.49 268.5,154C 305.949,147.889 330.449,126.722 342,90.5C 349.776,60.557 351.609,30.2236 347.5,-0.5 Z"/>
<path d="M 511.5,191.5 C 511.5,226.5 511.5,261.5 511.5,296.5C 479.7,288.096 450.367,274.596 423.5,256C 416.593,249.764 410.427,242.931 405,235.5C 397.286,221.717 396.619,207.717 403,193.5C 409.796,186.853 417.962,183.02 427.5,182C 456.059,180.438 484.059,183.604 511.5,191.5 Z"/>
<path d="M 371.5,511.5 C 308.5,511.5 245.5,511.5 182.5,511.5C 202.853,474.675 228.186,441.508 258.5,412C 272.174,399.659 287.84,390.659 305.5,385C 343.996,376.314 367.163,391.147 375,429.5C 378.24,456.998 377.073,484.332 371.5,511.5 Z"/>
</g>
</svg>
