<?xml version="1.0" encoding="UTF-8"?>
<!DOCTYPE svg PUBLIC "-//W3C//DTD SVG 1.1//EN" "http://www.w3.org/Graphics/SVG/1.1/DTD/svg11.dtd">
<svg xmlns="http://www.w3.org/2000/svg" version="1.1" width="512px" height="512px" style="shape-rendering:geometricPrecision; text-rendering:geometricPrecision; image-rendering:optimizeQuality; fill-rule:evenodd; clip-rule:evenodd" xmlns:xlink="http://www.w3.org/1999/xlink">
<g fill="#a74e9f" stroke="none">
<path d="M 511.5,11.5 C 511.5,59.8333 511.5,108.167 511.5,156.5C 340.833,156.5 170.167,156.5 -0.5,156.5C -0.5,108.167 -0.5,59.8333 -0.5,11.5C 1.61218,8.93737 4.27885,7.10403 7.5,6C 172.833,5.33333 338.167,5.33333 503.5,6C 506.721,7.10403 509.388,8.93737 511.5,11.5 Z"/>
<path d="M -0.5,274.5 C -0.5,259.833 -0.5,245.167 -0.5,230.5C 1.04602,227.8 3.37935,225.967 6.5,225C 41.1667,224.333 75.8333,224.333 110.5,225C 114.165,226.668 116.332,229.501 117,233.5C 117.167,240 117.333,246.5 117.5,253C 117.615,260.574 117.115,268.074 116,275.5C 113.949,278.553 111.115,280.386 107.5,281C 74.8333,281.667 42.1667,281.667 9.5,281C 4.9448,280.565 1.61147,278.398 -0.5,274.5 Z"/>
<path d="M 208.5,224.5 C 243.168,224.333 277.835,224.5 312.5,225C 315.583,225.786 317.749,227.619 319,230.5C 319.667,245.167 319.667,259.833 319,274.5C 317.132,278.521 313.965,280.687 309.5,281C 275.453,281.972 241.453,281.639 207.5,280C 204.813,278.125 202.979,275.625 202,272.5C 201.333,259.5 201.333,246.5 202,233.5C 202.873,229.475 205.039,226.475 208.5,224.5 Z"/>
<path d="M 511.5,230.5 C 511.5,245.167 511.5,259.833 511.5,274.5C 509.389,278.398 506.055,280.565 501.5,281C 472.5,281.667 443.5,281.667 414.5,281C 409.562,280.728 406.396,278.228 405,273.5C 404.333,259.5 404.333,245.5 405,231.5C 406.5,228.667 408.667,226.5 411.5,225C 442.5,224.333 473.5,224.333 504.5,225C 507.621,225.967 509.954,227.8 511.5,230.5 Z"/>
<path d="M -0.5,354.5 C 170.167,354.5 340.833,354.5 511.5,354.5C 511.5,402.833 511.5,451.167 511.5,499.5C 509.388,502.063 506.721,503.896 503.5,505C 338.167,505.667 172.833,505.667 7.5,505C 4.27885,503.896 1.61218,502.063 -0.5,499.5C -0.5,451.167 -0.5,402.833 -0.5,354.5 Z"/>
</g>
</svg>
