<?xml version="1.0" encoding="UTF-8"?>
<!DOCTYPE svg PUBLIC "-//W3C//DTD SVG 1.1//EN" "http://www.w3.org/Graphics/SVG/1.1/DTD/svg11.dtd">
<svg xmlns="http://www.w3.org/2000/svg" version="1.1" width="512px" height="512px" style="shape-rendering:geometricPrecision; text-rendering:geometricPrecision; image-rendering:optimizeQuality; fill-rule:evenodd; clip-rule:evenodd" xmlns:xlink="http://www.w3.org/1999/xlink">
<g fill="#e77a21" stroke="none">
<path d="M 511.5,226.5 C 511.5,231.167 511.5,235.833 511.5,240.5C 502.859,259.552 488.859,264.719 469.5,256C 398.612,192.609 327.278,129.775 255.5,67.5C 183.722,129.775 112.388,192.609 41.5,256C 22.1414,264.719 8.14135,259.552 -0.5,240.5C -0.5,235.833 -0.5,231.167 -0.5,226.5C 2.66369,218.805 7.66369,212.305 14.5,207C 87.1304,143.372 159.464,79.3717 231.5,15C 243.622,2.18605 257.289,0.18605 272.5,9C 298.37,32.5383 324.536,55.7049 351,78.5C 351.638,63.4987 352.304,48.4987 353,33.5C 354.833,27.6667 358.667,23.8333 364.5,22C 372.224,21.6496 379.891,20.8162 387.5,19.5C 395.44,20.8531 403.44,21.6864 411.5,22C 417.731,23.963 421.564,28.1296 423,34.5C 423.64,70.541 423.64,106.541 423,142.5C 451.298,167.129 479.298,192.129 507,217.5C 508.801,220.437 510.301,223.437 511.5,226.5 Z"/>
<path d="M 251.5,188.5 C 280.935,189.269 297.268,204.269 300.5,233.5C 297.817,260.85 282.817,275.85 255.5,278.5C 228.183,275.85 213.183,260.85 210.5,233.5C 212.761,207.913 226.428,192.913 251.5,188.5 Z"/>
<path d="M 193.5,252.5 C 194.978,252.238 196.311,252.571 197.5,253.5C 211.471,284.657 235.471,297.824 269.5,293C 290.97,287.361 305.636,274.195 313.5,253.5C 318.269,253.016 322.935,253.85 327.5,256C 349.312,265.812 363.145,282.312 369,305.5C 370.615,333.465 370.948,361.465 370,389.5C 367.677,399.156 361.843,405.656 352.5,409C 339.223,410.591 325.89,410.924 312.5,410C 301.648,405.8 297.482,397.966 300,386.5C 301.833,380.667 305.667,376.833 311.5,375C 322.833,374.667 334.167,374.333 345.5,374C 352.805,370.117 353.805,365.117 348.5,359C 343.964,357.621 339.297,357.121 334.5,357.5C 333.079,335.911 322.079,321.744 301.5,315C 282.756,311.081 267.422,316.581 255.5,331.5C 236.967,310.935 215.967,308.101 192.5,323C 182.073,332.103 176.74,343.603 176.5,357.5C 171.703,357.121 167.036,357.621 162.5,359C 157.195,365.117 158.195,370.117 165.5,374C 176.833,374.333 188.167,374.667 199.5,375C 211.609,381.056 214.776,390.222 209,402.5C 206.197,406.646 202.364,409.146 197.5,410C 185.833,410.667 174.167,410.667 162.5,410C 151.543,407.711 144.376,401.211 141,390.5C 140.333,364.167 140.333,337.833 141,311.5C 146.757,281.25 164.257,261.583 193.5,252.5 Z"/>
<path d="M 212.5,330.5 C 228.905,327.945 240.071,334.278 246,349.5C 247.641,394.129 247.974,438.795 247,483.5C 244.598,498.875 235.598,506.875 220,507.5C 206.709,506.879 198.043,500.213 194,487.5C 193.5,467.503 193.333,447.503 193.5,427.5C 219.47,423.379 230.636,408.379 227,382.5C 221.13,367.137 209.964,358.804 193.5,357.5C 194.045,344.308 200.378,335.308 212.5,330.5 Z"/>
<path d="M 283.5,330.5 C 303.764,328.443 315.097,337.443 317.5,357.5C 296.173,359.493 284.507,371.16 282.5,392.5C 284.796,413.463 296.463,425.13 317.5,427.5C 317.667,447.503 317.5,467.503 317,487.5C 311.805,502.516 301.305,509.016 285.5,507C 272.965,504.108 265.798,496.274 264,483.5C 263.333,440.167 263.333,396.833 264,353.5C 266.026,341.978 272.526,334.312 283.5,330.5 Z"/>
<path d="M 52.5,382.5 C 64.5,382.5 76.5,382.5 88.5,382.5C 88.5,394.833 88.5,407.167 88.5,419.5C 76.1667,419.5 63.8333,419.5 51.5,419.5C 51.1874,407.087 51.5208,394.753 52.5,382.5 Z"/>
<path d="M 12.5,383.5 C 20.1667,383.5 27.8333,383.5 35.5,383.5C 35.3334,396.837 35.5001,410.171 36,423.5C 37.8595,429.36 41.6928,433.193 47.5,435C 62.8333,435.667 78.1667,435.667 93.5,435C 98.3333,432.833 101.833,429.333 104,424.5C 104.5,410.837 104.667,397.171 104.5,383.5C 110.833,383.5 117.167,383.5 123.5,383.5C 123.724,392.736 126.558,401.069 132,408.5C 132.667,439.5 132.667,470.5 132,501.5C 130.833,504 129,505.833 126.5,507C 88.8333,507.667 51.1667,507.667 13.5,507C 10.6193,505.749 8.78597,503.583 8,500.5C 7.33333,463.833 7.33333,427.167 8,390.5C 8.90417,387.767 10.4042,385.433 12.5,383.5 Z"/>
<path d="M 427.5,409.5 C 445.465,409.46 452.465,418.127 448.5,435.5C 437.5,436.833 426.5,436.833 415.5,435.5C 411.639,423.049 415.639,414.382 427.5,409.5 Z"/>
<path d="M 463.5,409.5 C 481.167,409.824 487.834,418.491 483.5,435.5C 477.5,436.833 471.5,436.833 465.5,435.5C 467.426,427.126 466.426,419.126 462.5,411.5C 462.863,410.817 463.196,410.15 463.5,409.5 Z"/>
<path d="M 396.5,453.5 C 432.167,453.5 467.833,453.5 503.5,453.5C 504.01,463.956 503.177,474.29 501,484.5C 496.322,495.18 488.489,502.347 477.5,506C 468.224,507.111 458.89,507.611 449.5,507.5C 409.647,511.314 391.981,493.314 396.5,453.5 Z"/>
</g>
</svg>
