<?xml version="1.0" encoding="UTF-8"?>
<!DOCTYPE svg PUBLIC "-//W3C//DTD SVG 1.1//EN" "http://www.w3.org/Graphics/SVG/1.1/DTD/svg11.dtd">
<svg xmlns="http://www.w3.org/2000/svg" version="1.1" width="512px" height="512px" style="shape-rendering:geometricPrecision; text-rendering:geometricPrecision; image-rendering:optimizeQuality; fill-rule:evenodd; clip-rule:evenodd" xmlns:xlink="http://www.w3.org/1999/xlink">
<g fill="#a74e9f" stroke="none">
<path d="M 253.5,-0.5 C 254.833,-0.5 256.167,-0.5 257.5,-0.5C 327.609,39.3925 397.942,79.0591 468.5,118.5C 397.984,159.261 326.984,199.261 255.5,238.5C 184.016,199.261 113.016,159.261 42.5,118.5C 113.058,79.0591 183.391,39.3925 253.5,-0.5 Z M 253.5,26.5 C 259.18,26.4128 262.68,29.0795 264,34.5C 264.667,90.8333 264.667,147.167 264,203.5C 261.962,210.054 257.795,212.221 251.5,210C 249.19,208.363 247.69,206.196 247,203.5C 246.333,147.167 246.333,90.8333 247,34.5C 247.583,30.4277 249.75,27.761 253.5,26.5 Z M 197.5,54.5 C 202.421,54.0429 205.921,56.0429 208,60.5C 208.667,99.5 208.667,138.5 208,177.5C 203.119,185.016 197.785,185.349 192,178.5C 191.667,177.167 191.333,175.833 191,174.5C 190.333,137.5 190.333,100.5 191,63.5C 191.719,59.3741 193.886,56.3741 197.5,54.5 Z M 308.5,54.5 C 315.105,54.0441 318.938,57.0441 320,63.5C 320.667,100.5 320.667,137.5 320,174.5C 317.781,182.68 312.948,184.846 305.5,181C 304.299,180.097 303.465,178.931 303,177.5C 302.333,138.5 302.333,99.5 303,60.5C 304.36,57.9774 306.193,55.9774 308.5,54.5 Z M 140.5,82.5 C 145.589,81.4285 149.422,83.0952 152,87.5C 152.667,108.5 152.667,129.5 152,150.5C 146.159,157.394 140.825,157.061 136,149.5C 135.333,128.833 135.333,108.167 136,87.5C 137.366,85.6383 138.866,83.9717 140.5,82.5 Z M 363.5,82.5 C 368.589,81.4285 372.422,83.0952 375,87.5C 375.667,108.167 375.667,128.833 375,149.5C 370.175,157.061 364.841,157.394 359,150.5C 358.333,129.5 358.333,108.5 359,87.5C 360.366,85.6383 361.866,83.9717 363.5,82.5 Z M 84.5,110.5 C 95.1545,110.2 98.6545,114.866 95,124.5C 88.9135,129.096 83.9135,128.096 80,121.5C 79.4465,116.994 80.9465,113.327 84.5,110.5 Z M 418.5,110.5 C 426.955,109.461 431.122,113.128 431,121.5C 427.086,128.096 422.086,129.096 416,124.5C 412.775,119.228 413.608,114.562 418.5,110.5 Z"/>
<path d="M 32.5,134.5 C 103.593,173.743 174.593,213.243 245.5,253C 246.661,277.428 246.827,301.928 246,326.5C 175.086,286.96 104.253,247.293 33.5,207.5C 32.5003,183.176 32.1669,158.842 32.5,134.5 Z"/>
<path d="M 476.5,134.5 C 477.832,146.314 478.499,158.481 478.5,171C 478.167,183.167 477.833,195.333 477.5,207.5C 406.747,247.293 335.914,286.96 265,326.5C 264.173,301.928 264.339,277.428 265.5,253C 336.219,213.979 406.553,174.479 476.5,134.5 Z"/>
<path d="M 32.5,227.5 C 103.768,266.469 174.768,305.969 245.5,346C 246.661,370.428 246.827,394.928 246,419.5C 175.409,379.453 104.576,339.787 33.5,300.5C 32.5003,276.176 32.1669,251.842 32.5,227.5 Z"/>
<path d="M 476.5,227.5 C 477.832,239.314 478.499,251.481 478.5,264C 478.167,276.167 477.833,288.333 477.5,300.5C 406.424,339.787 335.591,379.453 265,419.5C 264.173,394.928 264.339,370.428 265.5,346C 335.896,306.472 406.229,266.972 476.5,227.5 Z"/>
<path d="M 246.5,511.5 C 245.833,511.5 245.167,511.5 244.5,511.5C 174.229,472.028 103.896,432.528 33.5,393C 32.3393,368.572 32.1727,344.072 33,319.5C 104,359.5 175,399.5 246,439.5C 246.5,463.498 246.667,487.498 246.5,511.5 Z"/>
<path d="M 266.5,511.5 C 265.833,511.5 265.167,511.5 264.5,511.5C 264.333,487.498 264.5,463.498 265,439.5C 336,399.5 407,359.5 478,319.5C 478.827,344.072 478.661,368.572 477.5,393C 407.104,432.528 336.771,472.028 266.5,511.5 Z"/>
</g>
</svg>
